<svg width="148" height="89" xmlns="http://www.w3.org/2000/svg" xmlns:xlink="http://www.w3.org/1999/xlink"><defs><path id="a" d="M0 0h28v29H0z"/><path id="c" d="M0 0h13v13H0z"/><path id="e" d="M0 29h128V0H0z"/></defs><g transform="translate(8 30)" fill="none" fill-rule="evenodd"><mask id="b" fill="#fff"><use xlink:href="#a"/></mask><path d="M10.195 18.058h6.778a.98.98 0 0 0 .13-.268c.02-.162 0-.332 0-.484 0-.153.075-.302.094-.454-.005-.256.024-.511.084-.76.092-.241 0-.527.102-.8.1-.273 0-.528.096-.803s.043-.56.1-.849c.066-.429.104-.862.115-1.296 0-.048-.022-.113 0-.145.195-.27.05-.56.1-.839-1.515-.068-6.419-.043-6.824.034 0 .256-.028.51-.084.759-.082.262-.034.561-.101.849-.067.288-.015.597-.101.902-.068.241-.025.496-.096.752-.073.256-.04.53-.1.802a8.768 8.768 0 0 0-.112 1.244v.099c-.145.183-.08.401-.1.605-.019.202-.05.418-.081.652ZM4.85 28.988c-.013-.239.02-.477.094-.704.055-.213-.082-.457.101-.653.017-.019 0-.065 0-.1.034-.398.05-.8.103-1.196.105-.563.17-1.133.193-1.705.164-.241.037-.515.111-.747.075-.232.029-.517.1-.754.07-.317.1-.643.09-.968H.027c0-.2-.09-.381.065-.553a.13.13 0 0 0 .011-.095c-.071-.483.114-.967.107-1.45.016-.253.046-.503.092-.753.026-.241-.039-.507.091-.759.06-.116 0-.29 0-.483H5.98a.224.224 0 0 0 .255-.223c.044-.365.065-.725.104-1.1.022-.186.063-.37.099-.554.036-.183-.094-.396.096-.556v-.048c-.07-.36.109-.697.099-1.05a2.265 2.265 0 0 1 .094-.703c.063-.228-.08-.484.103-.704.017-.02 0-.065 0-.097.032-.416.059-.834.101-1.247.025-.133.063-.263.111-.387a.327.327 0 0 0-.045-.056.067.067 0 0 0-.041-.022H1.375c.072-.292-.098-.585.11-.853.018-.02 0-.063 0-.097.035-.58.061-1.163.102-1.743.017-.22.078-.435.094-.655.017-.22 0-.458 0-.704H7.5c0-.397.15-.755.13-1.146 0-.16.099-.322.093-.506a.879.879 0 0 1 .05-.484c.074-.144 0-.362.052-.522.1-.268.034-.548.104-.8.07-.252.03-.518.096-.754.08-.288.021-.588.103-.85.082-.26.017-.553.092-.805.132-.447.075-.913.24-1.378h3.917c-.022.131-.04.242-.06.373 0 .043-.046.082-.05.125-.037.416-.064.834-.105 1.248-.02.203-.06.404-.096.604-.036.201.09.395-.094.56-.027.021 0 .094 0 .144a6.395 6.395 0 0 1-.114 1.144c-.059.315-.088.635-.086.955-.015.186-.128.353-.101.556a.614.614 0 0 1-.092.506c-.017.02 0 .062 0 .096.01.149.01.297 0 .445-.027.137-.065.27-.113.401.422.092 4.985.121 6.947.046-.084-.435.14-.841.096-1.28-.019-.187.13-.35.101-.555a.542.542 0 0 1 .09-.505c.017-.017 0-.065 0-.097.012-.417.05-.834.113-1.248.055-.268.03-.546.099-.8.054-.265.084-.534.092-.805.046-.165.08-.334.1-.506a.758.758 0 0 1 .053-.47c.078-.141.015-.351.042-.528.034-.147.079-.29.134-.43h3.217c.214-.015.426.038.608.152-.039.505-.056 1.023-.133 1.533-.022.147-.075.297-.087.454-.012.158.044.307-.06.484-.074.12 0 .329-.043.484-.111.33-.039.677-.107.999-.055.27-.04.541-.093.802s-.034.523-.106.75a4.166 4.166 0 0 0-.084.856c-.03.242-.08.464-.13.744H28c-.068.34.089.668-.11.967-.018.023 0 .066 0 .097.069.484-.088.967-.117 1.452-.021.381-.086.763-.09 1.15-.024.141-.07.278-.134.407h-5.697c.042.403-.16.763-.096 1.156-.147.241-.038.546-.113.797-.074.252-.032.515-.097.752-.079.288-.019.588-.103.85-.084.26-.015.587-.094.853-.08.266-.032.55-.101.803-.07.251-.036.546-.1.802a1.912 1.912 0 0 0-.066.726h5.58a.447.447 0 0 1-.019.42.202.202 0 0 0-.039.13c.073.509-.13.992-.108 1.498-.01.22-.042.439-.094.652-.034.218.032.431-.08.663-.089.186-.019.453-.019.699H20.64a.949.949 0 0 0-.175.648 4.033 4.033 0 0 1-.094.602c-.036.2.101.43-.094.607-.017.014 0 .065 0 .096-.032.416-.068.832-.097 1.248 0 .192-.134.351-.106.556a.58.58 0 0 1-.087.508c-.033.037 0 .129 0 .194-.01.401-.047.8-.113 1.197-.042.2-.07.403-.086.607-.017.2-.063.401-.097.602h-3.966c-.07-.484.091-.968.12-1.451a4.02 4.02 0 0 1 .092-.798c.072-.256.034-.515.099-.752s.043-.544.096-.805c.053-.262.034-.52.106-.747.072-.228.017-.522.092-.755.062-.247.093-.501.091-.757 0-.12.077-.241.092-.355a3.463 3.463 0 0 0 0-.411H9.73c-.068.316-.116.655-.155 1.003a5.2 5.2 0 0 1-.091.8c-.073.271-.031.55-.1.803-.067.254-.028.55-.098.8-.07.252-.026.552-.1.804-.076.251-.025.55-.1.802-.074.252-.029.515-.097.752a3.837 3.837 0 0 0-.09.856.585.585 0 0 1-.095.206l-3.954-.008Z" fill="#BED473" mask="url(#b)"/><path d="M90.812 7.674V.305c0-.218.078-.295.283-.305H94v12.978h-2.975l-5.8-7.64v7.589a.687.687 0 0 1-.05.056.08.08 0 0 1-.041.017H82V.305c0-.218.08-.305.283-.305h2.549a.372.372 0 0 1 .244.124c.243.31.487.63.731.949.151.202.29.414.444.614.383.487.778.975 1.156 1.462.259.34.502.69.754 1.036.441.62.91 1.22 1.361 1.83.266.36.556.706.83 1.061l.46.598ZM102 12.998V.012h2.294c.228-.027.459-.009.68.052.168.075.273.302.395.47.244.334.466.678.71 1.005.515.69 1.067 1.348 1.562 2.053.44.626.946 1.218 1.407 1.821.341.453.656.929.996 1.385.173.243.376.443.561.667.064.089.121.18.174.274.012-.135.027-.244.027-.342V.6a3.424 3.424 0 0 1 0-.35c0-.136.109-.245.244-.245h2.702c.161 0 .23.095.244.244a1.27 1.27 0 0 1 0 .2v12.395c0 .05 0 .095-.012.156H111l-5.76-7.575s-.014 0-.024.022a.107.107 0 0 0-.017.044v7.507H102ZM76.79 16H80v12.995h-2.995l-5.797-7.689V29H68V16.012h3.047l5.743 7.66V16ZM71.516 6.708h1.647c.522.008 1.046-.018 1.566-.078.488-.073 1.219-.634 1.356-1.06.064-.333.097-.67.098-1.01a1.529 1.529 0 0 0-.228-.911 1.518 1.518 0 0 0-1.288-.819c-1.041-.069-2.094-.02-3.151-.02v3.898Zm5.674 2.053L80 12.99h-4.005c-.058-.093-.153-.22-.225-.359-.22-.429-.399-.88-.654-1.287-.335-.532-.615-1.085-.906-1.639a1.877 1.877 0 0 0-.253-.292h-2.439V13H68V.012h.301c1.973 0 3.943-.035 5.914.014a7.327 7.327 0 0 1 2.855.588 4.012 4.012 0 0 1 2.108 1.981c.174.371.29.765.343 1.169.052.317.078.638.076.96 0 .287-.08.573-.096.86-.05.276-.115.55-.197.82a2.073 2.073 0 0 1-.349.76c-.245.474-.613.88-1.067 1.177-.215.166-.45.307-.698.42ZM42 0h9.814v2.789h-6.537v2.292h5.801c.033.032.047.041.056.053.01.012.016.026.017.042V7.89h-5.865v2.409H52V13H42V0ZM86.283 26.29H93V29H83V16h9.81v2.69h-6.475a.384.384 0 0 0-.052.052.074.074 0 0 0-.016.043v2.334h5.976v2.373c0 .33-.035.368-.356.368h-5.604v2.43ZM61.663 8.103c-.593-1.523-1.11-3.025-1.708-4.518l-1.717 4.518h3.425ZM56.381 13H53c.062-.178.109-.34.172-.488.35-.835.71-1.663 1.057-2.502.288-.71.59-1.416.883-2.124.293-.708.574-1.392.862-2.085.223-.54.473-1.07.684-1.608a82.53 82.53 0 0 1 .86-2.085c.292-.694.566-1.394.852-2.104h3.15c.154-.026.299.084.323.244l.002.016c.098.291.21.577.338.855.305.788.621 1.572.945 2.35.222.538.43 1.084.661 1.62.21.488.37.976.586 1.45.218.473.374 1.044.647 1.527.132.26.233.537.3.823.076.269.253.488.312.772.077.245.178.482.303.705.319.698.557 1.43.874 2.129.07.15.12.314.189.488h-3.497l-.873-2.259h-5.384c-.286.777-.586 1.539-.865 2.276ZM60.003 19.587c-.07.115-.111.18-.149.246-.176.378-.334.765-.472 1.16-.14.354-.297.713-.405 1.084-.165.568-.417 1.099-.606 1.654-.033.1-.057.197-.092.328h3.237a.074.074 0 0 0 .04-.02.64.64 0 0 0 .054-.064c-.518-1.426-1.054-2.876-1.607-4.388M58.333 16h3.417c.327.79.672 1.55.96 2.33.334.898.706 1.775 1.046 2.676.203.545.471 1.076.665 1.627.218.48.408.972.57 1.475.099.276.218.545.354.804.158.386.285.784.453 1.165.178.377.328.767.447 1.167.079.22.174.432.284.635.157.366.308.737.471 1.116h-3.537l-.85-2.289H57.26L56.395 29H53c.222-.531.444-1.06.663-1.59.14-.292.262-.59.365-.898.082-.307.288-.543.33-.873.038-.278.236-.53.356-.799.257-.597.5-1.197.745-1.797.314-.772.649-1.536.962-2.306.293-.715.59-1.428.884-2.14.295-.714.559-1.404.863-2.098.073-.16.109-.327.165-.499" fill="#020303"/><g transform="translate(115)"><mask id="d" fill="#fff"><use xlink:href="#c"/></mask><path d="M13 1.937c-.411.461-.832.868-1.168 1.331-.174.237-.466.402-.568.698-.017.054-.092.092-.14.14a.229.229 0 0 1-.352 0 3.263 3.263 0 0 0-1.127-.733c-.484-.218-.981-.474-1.554-.474-.174 0-.35-.092-.524-.087a4.437 4.437 0 0 0-2.456.775c-.403.28-.63.662-.923 1.005-.24.28-.252.675-.44.991-.02.038 0 .095 0 .145.007.232-.024.465-.09.69-.113.336.054.68.124 1.012.126.484.354.94.67 1.34.286.383.658.7 1.09.93.353.209.739.362 1.143.453.29.034.58.043.87.026a4.514 4.514 0 0 0 1.964-.472c.16-.05.26-.199.237-.355v-2.93h3.09v4.91c-.421.35-.91.622-1.442.8-.362.11-.692.315-1.073.381-.149.19-.403.057-.598.178-.141.09-.391.075-.562.128-.911.274-1.842.146-2.776.18-.434-.135-.895-.107-1.339-.237a10.466 10.466 0 0 1-1.42-.535 4.591 4.591 0 0 1-1.206-.787c-.144-.14-.286-.282-.44-.411A5.495 5.495 0 0 1 .331 8.428a3.05 3.05 0 0 1-.21-1.133C.137 7.042.003 6.823 0 6.56c-.002-.262.142-.551.116-.832a2.395 2.395 0 0 1 .157-.864c.071-.26.16-.517.265-.768.111-.248.252-.473.391-.721.199-.37.453-.712.757-1.014a9.02 9.02 0 0 1 1.733-1.346c.47-.255.971-.46 1.491-.61A5.617 5.617 0 0 1 6.59.102c.16-.022.318-.051.475-.09.167-.016.336-.016.504 0A13.3 13.3 0 0 1 9.362.28a8.233 8.233 0 0 1 3.07 1.253c.202.108.362.246.568.404" fill="#020303" mask="url(#d)"/></g><path d="M34.423 22.66h2.364a2.111 2.111 0 0 0 1.23-.425c.181-.139.332-.314.441-.514.147-.216.217-.476.197-.737-.012-.202 0-.403 0-.604a1.436 1.436 0 0 0-.706-1.308 1.808 1.808 0 0 0-.86-.346c-.886-.032-1.772 0-2.669 0l.003 3.934Zm-.018 2.823V29H31V16h.505c1.9 0 3.804.015 5.705 0a6.314 6.314 0 0 1 1.893.317 4.538 4.538 0 0 1 2.138 1.526c.247.378.434.793.554 1.23.144.53.213 1.08.204 1.63 0 .61-.108 1.215-.318 1.787a4.216 4.216 0 0 1-.645 1.2 4.367 4.367 0 0 1-2.049 1.395 4.797 4.797 0 0 1-1.743.305c-.305 0-.613.074-.918.091-.306.017-.606 0-.908 0l-1.013.002ZM101.26 29h-3.48V18.808H94V16h11v2.788h-3.74zM34.418 10.084H40v2.848c-.42.07-7.458.097-9 .029V.034l.015-.017A.094.094 0 0 1 31.057 0h3.36v10.084ZM44 16h3.43v10.054H53v2.87c-.42.077-7.134.107-9 .035V16Z" fill="#020303"/><mask id="f" fill="#fff"><use xlink:href="#e"/></mask><path fill="#020303" mask="url(#f)" d="M96 13h3V0h-3z"/><path d="M5 29.435h4c-.027.046-.051.13-.078.13h-3.83c-.038 0-.065-.084-.092-.13M16 29.435h4c-.025.046-.052.13-.078.13H16.08c-.027 0-.054-.084-.081-.13" fill="#BED473" mask="url(#f)"/></g></svg>