<svg width="146" height="52" xmlns="http://www.w3.org/2000/svg" xmlns:xlink="http://www.w3.org/1999/xlink"><defs><path id="a" d="M0 0h29.444v18H0z"/></defs><g fill="none" fill-rule="evenodd"><path fill="#727172" d="M41 19v17h6.55v-6.13H52v-4.163h-4.194V23.09H52V19zM62.727 18.26c-4.717-.001-8.543 3.93-8.545 8.784-.001 4.852 3.822 8.788 8.54 8.79 4.717.001 8.543-3.932 8.545-8.785v-.002c.016-4.844-3.787-8.784-8.496-8.801h-.044v.014Zm0 12.165c-1.823 0-3.3-1.52-3.3-3.396 0-1.874 1.477-3.394 3.3-3.394 1.823 0 3.3 1.52 3.3 3.394.028 1.847-1.405 3.367-3.2 3.396h-.1ZM82.897 23.819l2.605-3.395s-2.187-2.178-6.6-1.822c-4.415.357-5.141 4.074-5.246 4.68-.173 1.464 0 4.5 4.236 5.394 2.605.535 1.529 3.82-.935 2.356l-2.475-1.75-2.187 3.394s3.3 3.036 6.909 3.036c3.473 0 5.728-2.215 6.251-4.36.52-2.783-.245-5.57-4.827-6-3.055-.249-2.362-3.284 0-2.854.152.104 1.502.285 2.27 1.32"/><path fill="#ED721C" d="M98.524 18.888h-10.66v16.929h10.66V31.21h-5.072v-2.107h4.307V25.21h-4.307v-2l5.072.107z"/><path fill="#727172" d="M100.952 18.888v16.929h11.389v-5.642h-5.729V18.888zM124.599 18.888h-9.863v16.929h9.863V31.21h-4.968v-2.107h4.131V25.21h-4.13v-2h4.967zM125.605 18.962h5.83l2.432 10 2.986-10H143l-6.32 16.854h-4.826z"/><path fill="#ED731C" d="m38.803 23.567-10.937 2.394-.242-.32 11.11-2.43z"/><g transform="translate(6.722 18)"><mask id="b" fill="#fff"><use xlink:href="#a"/></mask><path d="M14.549 0 0 18h29.444L14.55 0Zm-.105.678L12.05 9.57l-.105.393-2.084 7.638H.765L14.445.678Z" fill="#727172" mask="url(#b)"/></g><path fill="#ED731C" d="m18.77 27.567-.104.393L2.07 31.568 2 31.21z"/></g></svg>