<svg width="375" height="102" xmlns="http://www.w3.org/2000/svg"><g fill="none" fill-rule="evenodd"><path fill="#52837F" d="M85.403 29 64 69.354l.751-.079.79-.125 1.858-.244 2.048-.44 2.095-.487 2.055-.605 2.132-.651 2.133-.77 1.62-.525.667-.322.636-.402.552-.526.514-.566.392-.69L92.476 40.93l16.386 41.808.2.486.276.44.352.409.399.321.469.284.475.164.514.118h.514L126 85l-25.508-56z"/><path fill="#CD3B26" d="M136 32.091V22l-24.747 13.885-.23.126-.51.196-.548.164h-.511l-.434-.078-.471-.165-.39-.157-.159-.086.197.65.39 1.287.51 1.333.67 1.333.784 1.214.823 1.005.785.728.707.4.664.165h.67l.625-.079.471-.164.39-.157.159-.125z"/><path fill="#1E1E1C" d="M186.48 67.282h-.28l-.24.046-.234.04-.163.08-.203.125-.156.119-.162.165-.117.198-1.92 3.293h8.68v5.812l-.684.206-.598.164-.56.12-.598.125-.566.12-.755.079-.598.085-.52.04h-1.725l-.598-.08-.84-.085-.52-.08-.52-.118-.521-.126-.52-.159-.482-.205-.598-.33-.482-.285-.397-.324-.404-.324-.396-.363-.358-.37-.364-.404-.28-.45-.358-.608-.24-.49-.202-.528-.157-.53-.123-.528-.117-.569-.085-.522-.04-.57v-1.626l.086-.528.117-.49.162-.529.157-.49.201-.488.241-.483.202-.284.318-.45.359-.41.357-.403.404-.364.397-.33.565-.364.475-.285.52-.284.56-.204.52-.2.762-.204.599-.125.598-.08.566-.08.599-.039.598-.046.598-.04h.56l.605.04.598.046.6.08.598.079.598.079.605.125.6.08.598.126.598.159.605.125.6.158.558.166.6.166.278.079V58.5l-.676-.199-.566-.204-.599-.166-.598-.12-.56-.118-.598-.125-.599-.12-1.08-.165-.605-.08-.598-.086-.599-.039-.599-.04-.559-.039H183.76l-.598.04-.598.04-.6.079-.565.086-.553.08-.605.164-.56.16-.761.204-.56.165-.52.198-.56.245-.481.245-.514.244-.481.324-.482.284-.559.41-.443.364-.436.364-.403.41-.397.443-.403.41-.319.45-.319.482-.318.49-.28.489-.365.688-.195.488-.202.57-.201.528-.118.569-.162.569-.079.575-.078.568-.045.728v1.138l.085.574.078.609.078.568.163.57.117.568.202.529.201.529.28.608.24.53.28.488.28.483.319.49.358.449.325.45.397.403.481.45.475.363.482.324.52.324.52.284.52.285.522.284.559.205.52.244.56.206.637.198.606.126.598.119.599.086.598.079.605.08.638.04.56.085.637.04h.605l1.034.039.605-.04h.56l.598-.04.638-.038.6-.047.603-.079.6-.08.598-.08.644-.045.56-.119.598-.08.599-.126.598-.118.599-.08.605-.165.598-.165.599-.12.599-.164.52-.159V67.282h-10.195zM210.813 28.895l.435.045.518.116.4.114.318.123.357.198.278.193.28.236.277.276.279.359.162.352.155.314.085.352.077.397V32.521l-.038.353-.079.32-.123.353-.2.314-.233.314-.24.314-.402.358-.356.237-.402.192-.395.122-.402.154-.395.083-.44.039H206.79l-.2.038-.24.076-.163.046-.194.115-.162.16-.117.154-.083.077-1.788 3.235 5.654-.045 5.733 8.47H222l-6.568-9.885.557-.154.48-.2.478-.236.635-.314.435-.275.4-.276.396-.32.362-.352.318-.391.402-.513.272-.397.24-.43.161-.435.155-.39.124-.436.039-.513.039-.474v-.353l-.04-.473-.077-.475-.123-.474-.155-.468-.162-.473-.24-.475-.278-.435-.318-.43-.317-.396-.357-.353-.363-.352-.395-.314-.44-.32-.434-.231-.48-.237-.479-.199-.48-.16-.478-.154-.512-.121-.525-.04-.511-.037-.519-.039-.44.039H196V48h6.05V28.895l8.4-.039zM236.99 20 235 24h4.489L243 20zM300.393 48h6.214V29.03h6.954l.198-.04.245-.038.165-.039.165-.077.12-.084.079-.115.125-.116.04-.122.08-.16.038-.078.04-.038L316 25h-22.356l-.205.083-.158.039-.166.115-.158.123-.126.115-.119.16-.086.155-.04.084L291 29.029h9.393zM221.763 69.961l.49-.16.49-.154.445-.237.617-.32.404-.237.371-.314.364-.314.325-.353.285-.397.285-.39.245-.436.166-.474.16-.468.125-.474.08-.513.04-.512v-.435l-.04-.514-.08-.467-.087-.474-.158-.474-.165-.436-.246-.467-.199-.32-.292-.43-.324-.397-.364-.353-.365-.352-.617-.436-.484-.276-.49-.236-.53-.237-.855-.276-.57-.154-.61-.121-.57-.116-.576-.077-.61-.082-.61-.04-.61-.038H202v23h6.237V61.177h8.31l.286.039.41.039.404.077.371.121.484.237.332.154.245.198.239.199.245.352.166.314.159.352.125.36.08.313.04.314v.2l-.04.313-.04.352-.119.275-.166.36-.205.352-.245.275-.405.436-.364.199-.37.23-.366.16-.45.16-.405.078-.41.077h-3.99l-.166.037-.159.084-.205.077-.166.077-.159.121-.166.116-.12.121-.125.116-.08.16-1.63 2.954h5.421l6.23 8.424H228l-6.807-9.885zM150.91 57 139 80h6.581l2.446-5.186h7.135l.28-.078.281-.083.242-.115.24-.16.203-.198.196-.192.162-.236.04-.084 1.846-2.987h-8.701l4.891-10.067 8.825 19.31H170L159.173 57zM283 48h6V25h-6zM170.462 44l.457.4.456.368.45.362.496.32.496.323.497.328.537.283.53.243.415.157.578.165.577.203.577.158.617.164.584.118.617.08.578.124.738.079.623.04.618.038h.617l.617.047h.624l.618-.047.905-.039.618-.04.624-.038.576-.08.618-.085.577-.118.577-.118.618-.125.576-.118.618-.204.583-.118.577-.204.578-.204.449-.117v-4.448l-.249.125-.576.197-.577.244-.577.164-.578.203-.577.158-.617.124-.865.158-.537.086-.618.078-.576.08-.584.039-.617.039H183.09l-.577.047-.537-.047-.577-.039-.537-.079-.577-.118-.537-.165-.624-.163-.49-.159-.495-.203-.457-.243-.45-.282-.416-.283-.409-.321-.537-.487-.328-.4-.336-.408-.328-.44-.249-.446-.201-.486-.208-.487-.208-.761-.12-.526-.088-.565v-1.616l.087-.525.12-.769.129-.486.16-.525.169-.487.247-.44.248-.446.41-.565.37-.4.375-.368.449-.362.416-.322.45-.322.744-.406.497-.244.577-.203.537-.157.577-.165.785-.157.577-.04.617-.086h1.819l.865.04.617.046.618.079.617.078.537.079.624.126.577.117.617.165.577.118.577.204.578.164.288.118.704.204.04-4.401-.376-.086-.576-.157-.577-.204-.617-.164-.577-.119-.618-.163-.577-.119-.618-.125-.704-.118-.617-.079-.577-.086-.624-.078-.617-.04-.617-.039h-2.396l-.577.04-.617.039-.618.078-.576.086-.578.119-.577.124-.583.158-.577.164-.658.204-.537.197-.536.203-.577.243-.497.283-.53.282-.496.283-.497.322-.456.367-.45.362-.416.36-.409.408-.416.401-.369.447-.37.446-.335.48-.328.446-.249.526-.289.486-.329.762-.207.525-.161.526-.168.565-.12.565-.129.57-.04.81-.04.564v1.129l.08.566.088.565.08.564.168.526.161.565.288.807.249.526.248.486.29.525.287.48.33.447.328.447.376.479zM232 80h6V57h-5.956zM305.443 57H300v23h17.322L319 75.9h-13.557zM251 44.053h-18.983V28.947h18.09L248.6 25H226v23h22.963zM334.77 57H321v23h23.147L346 75.868h-18.839V61.017h17.916L343.669 57z"/><path fill="#1E1E1C" d="m331.725 66-.165.039h-.203l-.237.037-.205.077-.164.121-.204.115-.158.16-.039.076L328 70h10.321l.164-.038.197-.044.204-.078.205-.076.158-.114.164-.16.08-.115L342 66h-6.997zM290.597 69.441v.485l-.037.563-.075.563-.081.445-.113.563-.119.564-.187.523-.194.524-.194.524-.269.517-.269.445-.344.4-.35.366-.344.361-.381.367-.463.28-.425.283-.463.197-.456.163-.463.164-.463.118-.731.117-.538.046h-1l-.538-.085-.5-.078-.5-.118-.495-.164-.5-.163-.5-.197-.582-.328-.418-.281-.388-.321-.382-.36-.344-.367-.544-.655-.268-.4-.226-.445-.23-.484-.195-.484-.194-.524-.15-.524-.118-.517-.113-.766-.082-.564v-1.087l.082-.687.075-.603.075-.563.118-.524.151-.562.194-.485.193-.524.27-.439.23-.484.345-.406.306-.4.35-.366.382-.321.575-.44.425-.24.463-.243.456-.204.463-.157.463-.124.769-.118.731-.085h.5l.232-.04.77.086.918.157.463.124.5.157.463.204.419.202.463.282.387.282.382.32.381.36.35.367.344.4.269.445.27.439.193.484.194.484.187.485.119.478.075.406.075.563.081.563.075.525v.562-.026Zm6.303-1.008-.037-.563-.075-.439-.076-.57-.118-.517-.15-.563-.157-.524-.231-.524-.194-.524-.268-.484-.27-.484-.343-.485-.344-.439-.35-.446-.382-.438-.387-.406-.42-.4-.425-.366-.5-.36-.463-.32-.5-.322-.494-.282-.544-.241-.5-.282-.494-.203-.538-.203-.544-.203-.538-.157-.537-.164-.575-.118-.538-.124-.575-.118-.575-.04-.538-.039-.545-.045h-.5l-.188-.04h-.268l-.463.04h-.462l-.538.045-.538.04-.575.039-.538.078-.582.125-.538.118-.537.117-.538.164-.538.164-.5.197-.5.242-.538.242-.463.242-.538.36-.418.282-.457.366-.426.361-.418.36-.388.406-.381.445-.35.4-.382.523-.306.445-.307.478-.268.485-.232.524-.194.523-.231.525-.157.562-.187.767-.081.563-.075.603-.075.562v1.612l.075.602.037.563.119.563.113.57.118.517.188.609.194.563.231.524.232.478.268.524.307.485.463.726.343.44.388.405.381.445.388.4.419.36.5.405.463.321.463.282.5.321.5.243.538.28.5.204.538.242.731.203.538.158.575.124.576.117.537.079.576.085.537.04.582.078h.576l.5.039h.625l.575-.039.582-.04.576-.038.537-.086.919-.157.538-.124.544-.118.538-.164.538-.157.537-.242.5-.203.5-.243.726-.399.5-.281.463-.282.425-.321.419-.367.425-.36.388-.406.381-.4.5-.654.307-.485.306-.484.269-.523.231-.485.232-.524.193-.563.195-.524.112-.563.156-.564.075-.563.075-.562.075-.603.044-.564v-.32l-.044-.563-.037-.61-.019.014ZM235.825 34h-.192l-.23.04-.269.045-.192.116-.23.078-.15.163-.192.202L232 38h9.442l.23-.039.23-.039.193-.078.23-.123.187-.156.156-.125.155-.2.112-.118L245 34h-6.5zM268.343 43.65l-.484.16-.49.115-.49.077-.49.083h-7.292V28.838h5.966l.569.045h.245l.286.038.484.115.53.122.49.153.49.2.49.237.445.236.45.276.451.314.364.352.325.276.365.397.285.39.292.436.199.436.245.468.166.435.119.513.08.314.125.512.08.512v1.455l-.08.513-.08.512-.165.513-.12.435-.165.513-.205.513-.246.467-.284.475-.286.473-.325.436-.325.39-.323.353-.412.275-.404.282-.45.23-.451.2h.026Zm1.471 3.902.816-.2.57-.198.53-.192.53-.199.53-.275.816-.436.503-.256.451-.276.49-.314.405-.352.41-.397.365-.352.49-.551.325-.436.286-.435.284-.468.285-.512.206-.514.245-.589.119-.596.166-.55.12-.551.085-.551.04-.551.04-.59.04-.513.039-.512v-.436l-.04-.512-.079-.551-.086-.551-.12-.512-.165-.552-.159-.512-.206-.512-.245-.513-.245-.468-.285-.474-.325-.474-.404-.551-.371-.436-.405-.39-.41-.397-.444-.353-.451-.275-.45-.314-.445-.276-.49-.275-.451-.237-.484-.238-.49-.198-.53-.192-.49-.16-.531-.16-.49-.154-.531-.122-.53-.115-.523-.077-.49-.083-.53-.04-.492-.037-.53-.039h-.159l-.331.039H253V48h13.918l.57-.038.57-.077.57-.077.616-.122.57-.115v-.02ZM265.306 76.222l-.429.16-.58.166-.543.16-.586.167-.58.12-.543.127-.581.119-.58.04-.505.087-.58.08-.549.04-.543.046h-.58l-.542-.046-.58-.04-.739-.04-.504-.08-.543-.087-.467-.12-.504-.207-.46-.16-.543-.286-.467-.246-.391-.287-.423-.287-.391-.333-.467-.533-.309-.407-.309-.407-.27-.453-.234-.453-.197-.486-.232-.826-.114-.574-.038-.566-.038-.533v-.58l.038-.574.038-.533.075-.526.076-.534.158-.492.158-.494.189-.453.315-.573.271-.447.31-.453.347-.366.353-.374.385-.367.429-.326.46-.286.467-.247.505-.247.504-.206.505-.16.58-.126.543-.081.542-.08.587-.047.542-.04.738.04.543.047.618.08.58.04.543.127.587.08.58.12.543.167.58.166.543.16.58.166.542.2.543.207h.044l.618.246V58.72l-.195-.08-.423-.16-.12-.046-.542-.2-.58-.207-.543-.166-.7-.16-.543-.127-.58-.12-.58-.08-.587-.087-1.123-.12-.58-.04-.581-.046-.587-.04-.694-.04H255.838l-.581.04-.58.04-.89.126-.586.08-.543.128-.543.119-.542.167-.505.206-.694.287-.504.2-.505.287-.467.286-.504.287-.43.333-.542.447-.423.373-.39.366-.423.407-.354.453-.346.454-.506.652-.308.534-.272.493-.27.533-.197.533-.195.407-.19.573-.157.533-.12.574-.113.572-.12.947-.038.573V70.157l.038.74.082.565.114.58.12.574.113.573.271.733.195.534.234.533.272.492.27.534.385.653.354.454.347.453.346.446.43.413.542.487.429.373.46.367.467.286.543.373.504.24.543.247.543.207.504.206.543.16 1.091.247.58.087.58.08.581.08.58.04.896.04.58.046h1.161l.587-.047h.58l.619-.08.542-.04.505-.04.586-.08.58-.086.581-.12.542-.127.581-.16.58-.167.549-.16.543-.166.233-.08.038-.04.618-.207.038-4.465-.58.246z"/><path fill="#0385BA" d="m68.529 29.079-2.159.282-2.438.526-2.516.73-2.64.968-2.554 1.091-2.445 1.138-2.353 1.25-2.322 1.334-2.353 1.493-2.445 1.658-2.391 1.743-2.12 1.736-1.878 1.578-1.678 1.618-1.645 1.697-1.515 1.861-1.397 1.94-1.242 1.98-1.002 2.143-.799 2.145-.436 2.183L28 62.278l.163 2.262.395 2.387.638 2.381.845 2.27.956 2.057 1.118 1.822 1.32 1.776 1.52 1.617 1.64 1.421 1.755 1.21 1.963.973 2.314.849 2.757.77 2.959.526 3.042.322 2.997.079 2.873-.165 2.6-.197 2.478-.368 2.477-.44 2.483-.487 2.315-.566 2.282-.566 2.399-.73 2.477-.73 2.477-.81 2.516-.886 2.522-.967 2.516-1.013 2.516-1.092 2.561-1.216 2.718-1.33 1.56-.854 2.036-1.092 2.795-1.531 4.082-2.224 5.631-3.157 7.476-4.163 8.953-5.057L137 49.861v-11.97l-8.315 4.775-8.036 4.57-7.515 4.204-6.833 3.76-6.156 3.316-5.514 2.867-5.038 2.473-4.512 2.058-4.238 1.822-4.039 1.493-3.998 1.335-3.874 1.131-3.881.934-3.758.808-3.556.606-3.355.48-2.997.33-2.68.157-2.241.125-1.958-.085-2.958-.323-2.035-.48-1.483-.612-1.195-.808-.963-.927-.76-1.092-.435-1.21-.162-1.421.162-1.697.598-1.94.962-2.105 1.274-2.137 1.6-2.144 1.8-2.065 1.84-1.901 1.879-1.657 2.035-1.618 2.282-1.736L51.3 47.6l2.282-1.415 2.36-1.334 2.439-1.257 2.437-1.091 2.478-1.006 2.36-.81 2.197-.69 1.956-.447 1.8-.283 1.796-.079 1.879.165 1 .118-.52-1.861-.916-3.15-.722-2.224-.56-1.335-.44-.73-.436-.447-.482-.322-.76-.283L70.252 29z"/></g></svg>