<svg width="165" height="52" xmlns="http://www.w3.org/2000/svg"><g fill="none" fill-rule="evenodd"><path fill="#A9AC19" d="M9.243 17.122 1 21.086 14.15 22 19 17z"/><path fill="#BB2353" d="M16 23.574 17.446 37 21 28.387 20.759 18z"/><path fill="#E84B38" d="M5.61 32.723 16 37l-1.721-13.787L1 22z"/><g fill="#56575B"><path d="M35.141 26.56c1.883-.433 3.22-1.61 3.22-3.22 0-2.6-1.762-3.653-5.407-3.653h-2.916c-1.397 0-2.734-.123-2.977-.123H27v.743c1.58 0 1.701.185 1.701 1.238v9.288c0 1.052-.122 1.238-1.701 1.238v.743a35.339 35.339 0 0 1 3.099-.124c1.336 0 2.49.062 3.098.124v-.743c-1.762 0-1.884-.186-1.884-1.238V26.87h1.094c1.701 2.167 3.098 4.086 4.678 5.82h1.823c1.033 0 1.58.124 1.822.124h.061v-.743c-.79-.062-1.64-.434-2.37-1.362l-3.28-4.149Zm-3.767-6.006h1.215c1.823 0 3.038.867 3.038 2.663 0 1.857-1.458 2.662-3.463 2.662h-.79v-5.325ZM46.259 30.833c0 1.052.121 1.238 2.005 1.238v.743a38.855 38.855 0 0 0-3.281-.124c-1.397 0-2.612.062-3.28.124v-.743c1.883 0 2.004-.186 2.004-1.238v-9.288c0-1.053-.121-1.238-2.005-1.238v-.743c.669.061 1.884.123 3.28.123 1.398 0 2.614-.062 3.282-.123v.743c-1.884 0-2.005.185-2.005 1.238v9.288ZM61.144 23.34c-.244-.061-.425-.061-.608-.061-.243 0-.425.061-.607.061-.304-1.919-1.155-3.096-3.099-3.096-2.248 0-3.827 2.353-3.827 5.697 0 3.281 1.276 5.82 4.01 5.82 1.58 0 3.037-.99 4.01-2.662l.606.31c-1.032 2.29-2.794 3.59-5.042 3.59-3.584 0-6.5-2.352-6.5-6.81 0-3.84 2.855-6.811 6.56-6.811 1.823 0 3.22.557 4.557 1.61v2.352h-.06ZM67.462 30.833c0 1.052.121 1.238 1.823 1.238v.743c-.608-.062-1.762-.124-3.099-.124-1.336 0-2.43.062-3.098.124v-.743c1.64 0 1.823-.186 1.823-1.238v-9.288c0-1.053-.122-1.238-1.823-1.238v-.743c.607.061 1.762.123 3.098.123 1.337 0 2.43-.062 3.099-.123v.743c-1.64 0-1.823.185-1.823 1.238v4.149h6.075v-4.15c0-1.052-.12-1.237-1.822-1.237v-.743c.608.061 1.762.123 3.098.123 1.337 0 2.43-.062 3.1-.123v.743c-1.642 0-1.824.185-1.824 1.238v9.288c0 1.052.122 1.238 1.823 1.238v.743c-.608-.062-1.762-.124-3.099-.124-1.336 0-2.43.062-3.098.124v-.743c1.64 0 1.822-.186 1.822-1.238V26.56h-6.075v4.273ZM79.127 32.071v.743a11.668 11.668 0 0 1 1.762-.124c.729 0 1.397.062 1.762.124v-.743c-.912 0-1.094-.248-1.094-.62 0-.185.243-.804.911-2.723h4.435c.73 2.042.912 2.476.912 2.724 0 .557-.243.619-1.701.619v.743c.546-.062 1.579-.124 2.794-.124 1.155 0 2.187.062 2.795.124v-.743c-.972-.062-1.215-.495-1.58-1.672L86.418 19.5h-.061c-.365.062-.851.124-1.276.124h-.425c-.122.31-.426 1.177-.426 1.177l-3.645 9.907c-.425 1.176-.79 1.3-1.519 1.362h.06Zm3.524-4.272 1.944-5.635h.06l1.823 5.634h-3.827ZM100.755 26.56c1.883-.433 3.22-1.61 3.22-3.22 0-2.6-1.762-3.653-5.407-3.653h-2.855c-1.397 0-2.734-.123-2.977-.123h-.061v.743c1.58 0 1.701.185 1.701 1.238v9.288c0 1.052-.121 1.238-1.701 1.238v.743a35.339 35.339 0 0 1 3.099-.124c1.336 0 2.49.062 3.098.124v-.743c-1.762 0-1.884-.186-1.884-1.238V26.87h1.094c1.701 2.167 3.098 4.086 4.678 5.82h1.823c1.033 0 1.58.124 1.822.124h.061v-.743c-.79-.062-1.64-.434-2.369-1.362l-3.342-4.149Zm-3.706-6.006h1.215c1.823 0 3.038.867 3.038 2.663 0 1.857-1.458 2.662-3.463 2.662h-.79v-5.325ZM109.26 30.833c0 1.052-.12 1.238-1.7 1.238v.743h.06c.183 0 1.458-.124 2.613-.124h3.585c4.677 0 6.864-2.786 6.864-6.501 0-3.715-2.247-6.564-6.864-6.564h-3.585c-1.155 0-2.43-.124-2.613-.124h-.06v.744c1.58 0 1.7.185 1.7 1.238v9.35Zm2.552-10.217h1.702c2.673 0 4.192 2.105 4.192 5.573 0 3.53-1.154 5.573-4.192 5.573h-1.702V20.616ZM122.688 28.851c.243.062.425.062.668.062.243 0 .425-.062.668-.062.425 2.167 1.883 3.22 4.01 3.22 1.458 0 2.795-.743 2.795-2.353 0-2.849-7.716-2.043-7.716-6.502 0-2.414 2.005-3.962 4.678-3.962 1.7 0 2.977.371 4.314 1.052l.182 2.477c-.182-.062-.426-.062-.608-.062-.243 0-.425.062-.607.062-.487-1.61-1.398-2.6-3.22-2.6-1.337 0-2.552.743-2.552 2.105 0 2.91 7.837 1.61 7.837 6.75 0 2.166-2.065 3.962-4.92 3.962-2.249 0-4.193-.62-5.347-1.424l-.182-2.725ZM134.838 26.127c0 4.458 2.916 6.81 6.5 6.81 3.646 0 6.502-2.352 6.502-6.81s-2.916-6.811-6.501-6.811c-3.585 0-6.44 2.353-6.5 6.81m2.915.063c0-3.84.973-5.944 3.585-5.944 2.613 0 3.585 2.104 3.585 5.944 0 3.839-.972 5.944-3.585 5.944-2.552 0-3.524-2.105-3.585-5.944M44.983 16.963c1.074 0 1.945-.887 1.945-1.981S46.058 13 44.984 13c-1.074 0-1.945.888-1.945 1.982 0 1.094.87 1.98 1.944 1.98M161.023 28.665v-7.182c0-1.053-.121-1.238-1.822-1.238V19.5c.608.063 1.762.124 3.098.124 1.336 0 1.033-.061 1.701-.124v.744c-1.64 0-1.823.185-1.823 1.238V32.69h-1.093l-9.72-9.783v7.864c0 1.052.121 1.238 1.822 1.238v.743c-.607-.062-.607-.124-1.944-.124s-2.248.062-2.916.124v-.743c1.64 0 1.822-.186 1.822-1.238v-9.288c0-1.053-.121-1.238-1.822-1.238V19.5c.607.063 2.37.124 3.645.124l9.052 9.04Z"/></g></g></svg>