<svg width="175" height="96" xmlns="http://www.w3.org/2000/svg" xmlns:xlink="http://www.w3.org/1999/xlink"><defs><path id="a" d="M0 0h67v67H0z"/><path id="c" d="M0 0h6v9H0z"/></defs><g fill="none" fill-rule="evenodd"><g transform="translate(10 14)"><mask id="b" fill="#fff"><use xlink:href="#a"/></mask><path d="M67 33.5C67 52.001 52.001 67 33.5 67 14.998 67 0 52.001 0 33.5 0 15 14.998 0 33.5 0 52 0 67 14.999 67 33.5" fill="#1B2341" mask="url(#b)"/></g><path d="M69.388 58a1.6 1.6 0 0 1-1.29-.657l-13.774-18.7a1.675 1.675 0 0 1 .319-2.311 1.589 1.589 0 0 1 2.258.326l13.775 18.7a1.675 1.675 0 0 1-.318 2.31 1.58 1.58 0 0 1-.97.332" fill="#56BAA9"/><path d="M55.5 57c-.829 0-1.5-.7-1.5-1.563v-8.873C54 45.7 54.671 45 55.5 45s1.5.7 1.5 1.564v8.873C57 56.3 56.329 57 55.5 57" fill="#FEFEFE"/><path d="M25.436 58C19.681 58 15 53.066 15 47c0-6.065 4.681-11 10.436-11 .865 0 1.564.738 1.564 1.65 0 .91-.7 1.649-1.564 1.649-4.029 0-7.306 3.455-7.306 7.702 0 4.245 3.277 7.701 7.306 7.701.865 0 1.564.738 1.564 1.65 0 .91-.7 1.648-1.564 1.648" fill="#56BAA9"/><path d="M31.413 57c-.877 0-1.587-.7-1.587-1.564V48.13h-4.237A1.578 1.578 0 0 1 24 46.565c0-.864.712-1.565 1.589-1.565h5.824c.877 0 1.587.7 1.587 1.565v8.871c0 .865-.71 1.564-1.587 1.564M69.5 49c-.829 0-1.5-.7-1.5-1.565v-8.871C68 37.7 68.671 37 69.5 37c.83 0 1.5.7 1.5 1.564v8.871C71 48.3 70.33 49 69.5 49" fill="#FEFEFE"/><path d="M49.466 57H38.534C37.686 57 37 56.3 37 55.436v-8.87C37 45.7 37.686 45 38.534 45s1.535.7 1.535 1.565v7.307h9.397c.848 0 1.534.7 1.534 1.564 0 .865-.686 1.564-1.534 1.564" fill="#56BAA9"/><path d="M49.294 49h-5.586C42.764 49 42 48.33 42 47.5c0-.828.764-1.5 1.708-1.5h5.586c.943 0 1.706.672 1.706 1.5 0 .83-.763 1.5-1.706 1.5M49.466 39H38.534C37.686 39 37 38.328 37 37.5s.686-1.5 1.534-1.5h10.932c.848 0 1.534.672 1.534 1.5s-.686 1.5-1.534 1.5" fill="#FEFEFE"/><path d="M92 32.526v2.688c0 .54-.302.974-.914 1.299-.612.324-1.403.487-2.379.487-1.322 0-2.44-.487-3.348-1.454C84.45 34.57 84 33.39 84 32.006c0-1.414.45-2.603 1.346-3.564.896-.961 2.052-1.442 3.46-1.442.835 0 1.563.17 2.2.5.636.338.952.689.952 1.046 0 .195-.057.338-.168.441a.577.577 0 0 1-.408.15c-.13 0-.315-.072-.555-.208a6.672 6.672 0 0 0-.909-.397 3.701 3.701 0 0 0-1.224-.193c-.963 0-1.76.35-2.383 1.057-.625.708-.94 1.578-.94 2.61 0 1.014.334 1.877.988 2.592.662.707 1.471 1.064 2.436 1.064.734 0 1.37-.116 1.914-.357v-2.149h-2.107c-.34 0-.618-.292-.618-.65 0-.363.278-.649.618-.649h2.78c.13 0 .248.04.347.11.03.027.061.053.092.085a.526.526 0 0 1 .137.227.715.715 0 0 1 .03.13.654.654 0 0 1 .012.117M98.02 31.277c.523 0 .942-.144 1.255-.434.314-.29.47-.67.47-1.146 0-.474-.156-.855-.47-1.139-.313-.284-.732-.426-1.255-.426h-1.844v3.145h1.844Zm2.692 3.646c.115.187.171.373.171.56 0 .15-.05.273-.15.37a.552.552 0 0 1-.399.147c-.261 0-.48-.16-.654-.475l-1.804-3.117H96.19v2.949a.629.629 0 0 1-.17.455.578.578 0 0 1-.432.174.544.544 0 0 1-.425-.182.648.648 0 0 1-.163-.447V27.6c0-.177.053-.321.157-.433a.527.527 0 0 1 .406-.168h2.378c.915 0 1.655.246 2.216.74.562.494.843 1.147.843 1.957 0 .625-.167 1.157-.503 1.6-.336.443-.804.757-1.405.944l1.62 2.682ZM109.275 32.558l-1.817-4.054-1.817 4.054h3.634Zm2.657 3.16c-.1.177-.275.27-.526.28-.4.027-.69-.172-.87-.599l-.766-1.714h-4.64l-.765 1.728c-.1.213-.208.366-.323.46-.115.092-.273.134-.473.124-.24-.009-.407-.1-.503-.272-.095-.17-.088-.383.023-.633l3.333-7.242c.14-.316.288-.537.443-.662.155-.125.368-.188.638-.188s.484.063.638.188c.155.125.302.346.443.662l3.318 7.2c.119.27.13.492.03.669ZM121.816 27.188a.595.595 0 0 1 .184.452v7.567c0 .241-.064.434-.192.577a.654.654 0 0 1-.515.216c-.235 0-.43-.053-.582-.16a2.878 2.878 0 0 1-.523-.521l-4.847-6.107v6.148a.58.58 0 0 1-.192.452.69.69 0 0 1-.486.174.663.663 0 0 1-.471-.18.589.589 0 0 1-.192-.446v-7.553c0-.25.067-.447.199-.591.132-.143.322-.216.567-.216.364 0 .699.218 1.003.655l4.905 6.217V27.64c0-.185.062-.336.184-.452a.673.673 0 0 1 .48-.173c.196 0 .356.058.478.173M126.335 34.807h1.523c1.14 0 2.054-.303 2.743-.906.69-.604 1.035-1.402 1.035-2.393 0-1.002-.348-1.805-1.042-2.409-.694-.603-1.61-.905-2.75-.905h-1.51v6.613Zm-1.163-7.638a.61.61 0 0 1 .446-.169h2.197c1.532 0 2.779.419 3.742 1.256.962.838 1.443 1.922 1.443 3.252 0 1.329-.47 2.409-1.408 3.242-.938.834-2.15 1.25-3.634 1.25h-2.34a.613.613 0 0 1-.446-.168.578.578 0 0 1-.172-.436v-7.792c0-.178.056-.323.172-.435ZM136.173 27.169a.618.618 0 0 1 .448-.169h4.758c.182 0 .331.056.448.169a.582.582 0 0 1 .173.435c0 .178-.058.321-.173.428a.635.635 0 0 1-.448.162h-4.064v2.695h3.484c.184 0 .334.054.449.161a.561.561 0 0 1 .174.43.58.58 0 0 1-.174.434.618.618 0 0 1-.449.168h-3.484v2.725h4.064c.182 0 .331.055.448.168a.58.58 0 0 1 .173.435c0 .178-.058.32-.173.43a.634.634 0 0 1-.448.16h-4.758a.62.62 0 0 1-.448-.168.582.582 0 0 1-.173-.436v-7.792a.58.58 0 0 1 .173-.435M88.764 39.302c.082.175.036.355-.138.539l-1.185 1.462a.683.683 0 0 1-.593.207c-.174-.019-.294-.09-.362-.213-.067-.125-.053-.265.044-.422l.982-1.505c.183-.293.434-.412.752-.357.252.018.418.114.5.29m-4.59 3.021a.614.614 0 0 1 .447-.166h4.757a.62.62 0 0 1 .449.166c.115.11.173.253.173.428a.543.543 0 0 1-.173.42.639.639 0 0 1-.45.16h-4.062v2.647H88.8c.183 0 .332.053.448.16a.544.544 0 0 1 .174.42.564.564 0 0 1-.174.427.621.621 0 0 1-.448.166h-3.485v2.676h4.063c.183 0 .333.055.449.166.115.11.173.252.173.427a.548.548 0 0 1-.173.422.64.64 0 0 1-.45.157h-4.756a.623.623 0 0 1-.447-.164.563.563 0 0 1-.174-.429v-7.655c0-.175.057-.319.174-.428M93.352 43.444C94.254 42.48 95.419 42 96.849 42c.815 0 1.544.168 2.186.504.643.336.965.683.965 1.045 0 .19-.058.335-.172.436a.617.617 0 0 1-.417.15c-.126 0-.305-.068-.541-.202a5.6 5.6 0 0 0-.892-.4 3.48 3.48 0 0 0-1.187-.195c-1.008 0-1.827.354-2.46 1.06-.633.707-.949 1.577-.949 2.61 0 1.023.316 1.885.949 2.585.633.702 1.452 1.053 2.46 1.053.432 0 .827-.065 1.187-.195.36-.13.657-.26.892-.39.236-.13.415-.197.54-.197.163 0 .301.05.418.15.114.102.172.246.172.437 0 .361-.322.709-.965 1.046-.642.335-1.371.503-2.186.503-1.43 0-2.595-.481-3.497-1.444C92.45 49.593 92 48.411 92 47.007c0-1.414.45-2.601 1.352-3.563M108.516 44.422c-.691-.722-1.53-1.083-2.516-1.083-.975 0-1.809.358-2.5 1.075-.691.717-1.036 1.582-1.036 2.593 0 1.013.345 1.876 1.037 2.587.69.712 1.524 1.068 2.5 1.068.985 0 1.824-.356 2.515-1.068.69-.711 1.035-1.569 1.035-2.571 0-1.013-.345-1.88-1.035-2.601m1.021 6.119C108.56 51.513 107.382 52 106 52c-1.382 0-2.56-.489-3.536-1.466S101 48.381 101 47.007c0-1.382.488-2.564 1.464-3.54C103.44 42.49 104.618 42 106 42c1.382 0 2.56.491 3.537 1.474.976.983 1.463 2.166 1.463 3.549 0 1.373-.487 2.546-1.463 3.518M113.179 42.183a.621.621 0 0 1 .466-.183.63.63 0 0 1 .66.65V49.8h4.091c.182 0 .328.057.438.17.11.112.166.258.166.437s-.055.321-.166.43a.597.597 0 0 1-.438.162h-4.78a.607.607 0 0 1-.445-.17.586.586 0 0 1-.171-.437V42.65a.64.64 0 0 1 .179-.466M121.173 42.17a.619.619 0 0 1 .45-.17h4.756c.182 0 .331.057.448.17a.582.582 0 0 1 .173.435c0 .178-.058.32-.173.427a.632.632 0 0 1-.448.162h-4.064v2.696h3.484a.63.63 0 0 1 .449.161.558.558 0 0 1 .174.429.58.58 0 0 1-.174.435.618.618 0 0 1-.449.168h-3.484v2.724h4.064c.182 0 .331.056.448.168a.58.58 0 0 1 .173.435c0 .179-.058.32-.173.43a.634.634 0 0 1-.448.16h-4.757a.62.62 0 0 1-.449-.168.582.582 0 0 1-.173-.436v-7.791a.58.58 0 0 1 .173-.436M137.336 49.806h1.522c1.14 0 2.055-.302 2.744-.905.69-.604 1.034-1.402 1.034-2.394 0-1.001-.347-1.805-1.042-2.408-.693-.603-1.61-.906-2.75-.906h-1.508v6.613Zm-1.164-7.638a.608.608 0 0 1 .444-.168h2.2c1.532 0 2.778.419 3.742 1.256.961.838 1.442 1.922 1.442 3.25 0 1.33-.469 2.41-1.407 3.244-.938.833-2.15 1.25-3.635 1.25h-2.342a.608.608 0 0 1-.444-.169.578.578 0 0 1-.172-.435v-7.793c0-.177.057-.322.172-.435ZM146.174 42.192a.586.586 0 0 1 .453-.192.61.61 0 0 1 .46.192c.122.127.181.292.181.496V48c0 .795.206 1.433.614 1.917.41.483.95.724 1.618.724.678 0 1.22-.24 1.624-.724.405-.484.608-1.122.608-1.917v-5.312c0-.204.06-.37.18-.496a.592.592 0 0 1 .446-.192.61.61 0 0 1 .46.192.69.69 0 0 1 .182.496V48c0 1.2-.322 2.168-.97 2.9-.646.734-1.493 1.1-2.544 1.1-1.05 0-1.894-.364-2.53-1.091C146.318 50.18 146 49.21 146 48v-5.312c0-.204.058-.37.174-.496M91.815 58.188a.596.596 0 0 1 .185.452v7.567c0 .241-.065.434-.193.577a.65.65 0 0 1-.515.216c-.235 0-.43-.053-.581-.16a2.85 2.85 0 0 1-.524-.521l-4.846-6.107v6.148a.582.582 0 0 1-.192.452.693.693 0 0 1-.487.173.662.662 0 0 1-.472-.18.592.592 0 0 1-.19-.445v-7.553c0-.25.066-.447.198-.591.132-.143.322-.216.567-.216.364 0 .698.218 1.003.655l4.906 6.217V58.64c0-.185.06-.336.183-.452a.673.673 0 0 1 .48-.173c.196 0 .355.058.478.173M95.174 57.19a.585.585 0 0 1 .453-.19c.186 0 .34.063.46.19a.687.687 0 0 1 .181.497V63c0 .794.204 1.433.614 1.916.41.484.948.725 1.618.725.678 0 1.22-.24 1.624-.725.405-.483.608-1.122.608-1.916v-5.313c0-.204.06-.37.18-.497.121-.127.27-.19.446-.19.186 0 .34.063.46.19a.687.687 0 0 1 .182.497V63c0 1.201-.324 2.168-.97 2.9-.645.734-1.493 1.1-2.544 1.1-1.05 0-1.894-.364-2.531-1.091-.637-.729-.955-1.698-.955-2.91v-5.312c0-.204.058-.37.174-.497M114.787 57.203a.682.682 0 0 1 .213.522v7.648a.574.574 0 0 1-.198.453.73.73 0 0 1-.502.174.693.693 0 0 1-.486-.182.58.58 0 0 1-.197-.445v-6.255l-2.873 4.249c-.192.279-.441.417-.744.417-.304 0-.553-.138-.746-.417l-2.871-4.221v6.227a.574.574 0 0 1-.198.453.73.73 0 0 1-.502.174.685.685 0 0 1-.494-.182.59.59 0 0 1-.189-.445v-7.55c0-.251.08-.45.243-.6.161-.148.385-.223.669-.223.242 0 .444.057.606.168.164.111.325.293.488.543l3.085 4.596 3.191-4.777c.243-.353.552-.53.927-.53.244 0 .437.067.578.203M122.764 54.302c.082.175.036.355-.137.538l-1.186 1.462a.68.68 0 0 1-.592.207c-.175-.018-.295-.089-.362-.214-.068-.123-.054-.264.043-.42l.983-1.505c.183-.293.434-.412.752-.357.251.017.417.114.5.29m-4.591 3.02a.619.619 0 0 1 .447-.165h4.757c.183 0 .334.055.45.165.114.11.172.253.172.428a.542.542 0 0 1-.173.42.637.637 0 0 1-.449.16h-4.063v2.648h3.485c.184 0 .333.053.448.159a.54.54 0 0 1 .174.42.56.56 0 0 1-.174.428.619.619 0 0 1-.448.166h-3.485v2.677h4.063c.183 0 .334.054.45.165.114.11.172.252.172.427a.548.548 0 0 1-.173.422.642.642 0 0 1-.449.157h-4.757a.62.62 0 0 1-.447-.165.562.562 0 0 1-.174-.428V57.75c0-.175.057-.318.174-.428M129.02 62.277c.523 0 .942-.145 1.255-.434.314-.288.47-.67.47-1.146 0-.474-.156-.855-.47-1.139-.313-.284-.732-.426-1.255-.426h-1.844v3.145h1.844Zm2.693 3.647c.113.186.17.372.17.559 0 .15-.05.273-.15.37a.552.552 0 0 1-.399.147c-.261 0-.48-.16-.654-.475l-1.804-3.116h-1.686v2.948a.628.628 0 0 1-.17.455.576.576 0 0 1-.432.174.545.545 0 0 1-.425-.182.646.646 0 0 1-.163-.447v-7.756c0-.177.053-.321.157-.433a.532.532 0 0 1 .406-.168h2.378c.915 0 1.655.247 2.216.74.562.494.843 1.147.843 1.957 0 .625-.167 1.158-.503 1.6-.335.443-.804.757-1.406.944l1.622 2.683ZM135.274 58.174c.182-.116.421-.174.715-.174s.535.058.727.174c.189.116.284.267.284.454v7.744c0 .187-.095.339-.284.454-.192.117-.433.174-.727.174s-.533-.06-.715-.18c-.183-.123-.274-.27-.274-.448v-7.744c0-.187.091-.338.274-.454M141.5 65.04c.692.661 1.525.991 2.5.991.987 0 1.825-.33 2.516-.99.69-.66 1.037-1.455 1.037-2.384 0-.94-.347-1.742-1.037-2.412-.691-.67-1.529-1.005-2.516-1.005-.975 0-1.808.334-2.5.999-.691.664-1.037 1.465-1.037 2.404 0 .938.346 1.738 1.038 2.397m7.346 3.43a.53.53 0 0 1-.15.363.553.553 0 0 1-.428.167c-.203 0-.423-.065-.656-.194l-3.14-1.548a6.054 6.054 0 0 1-.473.013c-1.382 0-2.56-.453-3.537-1.359-.975-.907-1.463-1.996-1.463-3.269 0-1.283.488-2.378 1.463-3.283.977-.906 2.155-1.36 3.537-1.36 1.382 0 2.561.456 3.538 1.366.974.911 1.462 2.008 1.462 3.291 0 .9-.26 1.728-.784 2.481a4.805 4.805 0 0 1-2.066 1.687l2.226 1.06c.315.168.471.362.471.585M151.174 57.19a.587.587 0 0 1 .454-.19c.185 0 .339.063.46.19.12.127.18.293.18.497V63c0 .794.206 1.433.614 1.916.41.484.949.725 1.618.725.679 0 1.22-.24 1.625-.725.404-.483.607-1.122.607-1.916v-5.313c0-.204.06-.37.18-.497a.59.59 0 0 1 .447-.19c.185 0 .339.063.46.19a.69.69 0 0 1 .181.497V63c0 1.201-.323 2.168-.97 2.9-.644.734-1.493 1.1-2.543 1.1-1.052 0-1.896-.364-2.532-1.091-.636-.729-.955-1.698-.955-2.91v-5.312a.71.71 0 0 1 .174-.497" fill="#1B2341"/><g transform="translate(161 58)"><mask id="d" fill="#fff"><use xlink:href="#c"/></mask><path d="M.174.169A.616.616 0 0 1 .622 0H5.38c.183 0 .332.056.448.169A.582.582 0 0 1 6 .604c0 .179-.058.32-.173.428a.627.627 0 0 1-.448.161H1.315V3.89h3.486c.183 0 .332.054.448.161a.56.56 0 0 1 .173.429.58.58 0 0 1-.173.435.616.616 0 0 1-.448.168H1.315v2.726H5.38c.183 0 .332.055.448.167A.58.58 0 0 1 6 8.41c0 .179-.058.32-.173.43a.632.632 0 0 1-.448.16H.622a.618.618 0 0 1-.448-.168A.58.58 0 0 1 0 8.396V.604C0 .426.058.281.174.17" fill="#1B2341" mask="url(#d)"/></g><path d="M92.51 32.558v.029a.918.918 0 0 0-.02-.174c.02.047.02.096.02.145" fill="#1B2341"/></g></svg>