<svg width="159" height="96" xmlns="http://www.w3.org/2000/svg" xmlns:xlink="http://www.w3.org/1999/xlink"><defs><path id="a" d="M0 74h148V0H0z"/></defs><g transform="translate(6 11)" fill="none" fill-rule="evenodd"><path d="M147.99 56h-2.187a2.966 2.966 0 0 1-.035-.327c.183-8.129-1.14-16.068-3.016-23.94-.839-3.513-1.792-6.986-3.33-10.274-3.172-6.79-8.395-11.315-15.373-13.91a73.391 73.391 0 0 0-11.522-3.077c-3.264-.652-6.528-1.305-9.818-1.658s-6.714-.391-10.072-.565H92V.085c.27 0 .548-.04.826-.04H147.2c.267 0 .532-.028.799-.045l-.01 56Z" fill="#F4BD06"/><mask id="b" fill="#fff"><use xlink:href="#a"/></mask><path d="m0 73.624.02-.212h55.383c.186 0 .372 0 .558-.036l.039.233-56 .015Z" fill="#758CB3" mask="url(#b)"/><path d="M44.951 19.028H55v34.968h-2.376c-1.776 0-3.546-.022-5.329 0a1.29 1.29 0 0 1-1.164-.56c-4.56-5.871-9.133-11.733-13.718-17.587l-.464-.587v18.683H22V19.003h7.763a1.22 1.22 0 0 1 1.106.554c4.645 5.984 9.298 11.969 13.96 17.952.113.144.229.28.322.41-.064-6.311-.132-12.585-.2-18.89" fill="#23366A" mask="url(#b)"/><path d="m91.645 22.733-5.54 5.98-.491-.41c-3.385-2.782-7.185-3.435-11.268-2.137-2.522.797-4.128 2.689-4.935 5.254a14.408 14.408 0 0 0-.185 8.282c1.19 4.351 4.499 6.808 8.977 6.693 2.114-.056 4.173-.374 6.037-1.518a.963.963 0 0 0 .542-.985c-.042-1.313 0-2.604 0-3.967H76.01v-7.921H93V47.308a2.304 2.304 0 0 1-.319 1.1c-1.456 2.499-3.669 4.065-6.27 5.014-5.802 2.115-11.641 2.172-17.36-.242-5.037-2.129-8.042-6.161-9.346-11.537-1.275-5.287-.88-10.433 1.674-15.274 2.706-5.133 7.028-7.977 12.54-8.965a21.788 21.788 0 0 1 9.955.377c3.085.887 5.617 2.72 7.771 4.952" fill="#23366B" mask="url(#b)"/><path fill="#23366A" mask="url(#b)" d="M126.983 54H98V19h28.3v8.263h-18.182v4.985h17.091v8.077h-17.062v5.337H127zM56 72.977c-.186 0-.372.023-.559.023H0V17h2.197c0 .14.03.282.026.42-.114 6.988.768 13.867 2.286 20.672.895 3.975 1.77 7.943 3.265 11.743 2.943 7.42 8.124 12.582 15.544 15.485 4.13 1.62 8.433 2.599 12.763 3.453 3.095.61 6.203 1.222 9.334 1.559 3.265.353 6.595.376 9.893.543h.686L56 72.977Z"/></g></svg>