<svg width="119" height="89" xmlns="http://www.w3.org/2000/svg"><g fill-rule="nonzero" fill="none"><path d="M20.48 62c-.233 0-.444-.059-.632-.175a1.636 1.636 0 0 1-.473-.445 2.154 2.154 0 0 1-.297-.588 1.914 1.914 0 0 1-.106-.605c.07-.89.433-2.199 1.087-3.927.655-1.726 1.614-3.904 2.877-6.533 2.455-5.108 3.718-8.383 3.789-9.824v-.127c0-.043.01-.117.034-.223v-.445c0-.933-.514-1.399-1.543-1.399H24.9c-.118 0-.236.01-.351.031-2.924.382-5.79 1.908-8.594 4.579-2.597 2.48-4 4.727-4.21 6.74-.07.848.151 1.41.666 1.686.07.042.175.069.316.08.14.01.303.036.49.078.235.021.352.096.352.224 0 .19-.176.317-.527.38-.233 0-.456-.084-.666-.254a1.179 1.179 0 0 1-.438-.27 3.483 3.483 0 0 1-.51-.62c-.326-.53-.467-.996-.42-1.4.327-2.521 1.929-5.076 4.806-7.662 2.83-2.543 5.613-3.974 8.348-4.292.96-.063 1.79.202 2.491.795.749.615 1.111 1.368 1.088 2.258-.024.741-.334 1.924-.93 3.545-.596 1.621-1.456 3.683-2.578 6.184-2.455 5.34-3.823 8.786-4.105 10.333a2.863 2.863 0 0 0 0 .89c.07.382.211.573.422.573.21 0 .455-.17.736-.51 2.55-2.988 4.864-5.59 6.946-7.805 2.08-2.215 3.929-4.064 5.542-5.548 5.332-4.832 9.67-7.249 13.015-7.249a6.97 6.97 0 0 1 1.789.223c.28.147.421.243.421.286 0 .106-.14.127-.421.063a9.506 9.506 0 0 0-.667-.095 6.172 6.172 0 0 0-.631-.032c-2.433 0-5.437 1.346-9.016 4.038-1.333.976-2.771 2.168-4.314 3.577-1.544 1.41-3.193 3.047-4.946 4.912a301.557 301.557 0 0 0-3.667 3.959 511.8 511.8 0 0 1-3.665 3.99c-.374.402-.772.604-1.193.604" fill="#030002"/><path d="M29.061 60.945a1.726 1.726 0 0 1-.513-.232 1.568 1.568 0 0 1-.388-.372.77.77 0 0 1-.16-.464c.048-1.713 1.627-4.241 4.741-7.585.094-.144.07-.237-.07-.278a6.71 6.71 0 0 1-.638-.356c-.212-.134-.318-.263-.318-.388 0-.061.035-.144.106-.247.071-.103.377-.165.92-.185l1.344-.031c.095 0 .224-.042.39-.124.519-.434 1.037-.661 1.556-.681.377-.02.908.165 1.592.557.046.02.088.041.124.061a.991.991 0 0 0 .123.063 380.15 380.15 0 0 0 4.6.124c.353.041.53.082.53.123 0 .124-.177.186-.53.186-.732 0-1.204.124-1.416.371-.047.062-.047.124 0 .186l.071.186a.478.478 0 0 1 .035.155c-.07.784-.453 1.625-1.15 2.522-.695.899-1.751 1.874-3.166 2.926-2.759 2.085-5.176 3.26-7.251 3.53-.166.02-.343.004-.532-.047m-.176-.913c0 .494.377.68 1.132.557 1.603-.227 3.526-1.238 5.766-3.034 2.359-1.837 3.715-3.508 4.069-5.015.164-.619-.283-.98-1.345-1.083a7.506 7.506 0 0 0-1.592-.016c-.495.052-.955.15-1.38.294-.047-.02-.248.072-.601.28-2.523 2.042-4.469 4.487-5.837 7.336a1.282 1.282 0 0 0-.212.68M46.464 77.086c-.643-.617-1.048-1.313-1.215-2.09A12.126 12.126 0 0 1 45 72.462c0-2.999 1.369-7.295 4.106-12.888 1.215-2.468 2.43-4.69 3.644-6.668 1.214-1.977 2.428-3.752 3.642-5.327.286-.276.428-.595.428-.957 0-.382-.214-.68-.642-.893-.857-.297-1.191-.627-1-.989.071-.127.423-.223 1.053-.286.631-.064 1.518-.096 2.661-.096.096 0 .107-.032.036-.096-.071-.064-.084-.128-.036-.191a45.504 45.504 0 0 1 3.964-4.77c1.5-1.584 3.071-3.227 4.714-4.928.144-.149.81-.426 2-.83.572-.17.982-.302 1.232-.398.25-.096.518-.144.805-.144.261 0 .393.096.393.287 0 .085-.12.16-.357.223-2.24.404-5.941 3.775-11.108 10.113-.38.489-.298.734.25.734h5.179c1.404 0 2.494.005 3.266.016.775.01 1.257.016 1.448.016.214 0 .356.031.429.095 0 .043-.066.154-.198.335a.704.704 0 0 1-.517.304c-1.357.042-2.91.11-4.66.207-1.751.096-3.745.196-5.983.302-.405.064-.702.234-.892.51a120.19 120.19 0 0 0-3.572 4.945 70.504 70.504 0 0 0-3.286 5.327c-1.643 3.042-2.94 5.8-3.892 8.279-.953 2.478-1.524 4.705-1.714 6.683-.024.276-.037.53-.037.766v.765c0 3.7 1.465 5.55 4.393 5.55.834 0 1.762-.138 2.786-.414 1.5-.425 2.987-1.095 4.464-2.01 1.476-.914 2.977-2.105 4.5-3.572 1.572-1.468 2.78-2.84 3.625-4.115.845-1.277 1.363-2.489 1.554-3.637 0-2-.798-2.882-2.393-2.648a2.447 2.447 0 0 0-.929.287c-.262.149-.453.224-.57.224-.24 0-.335-.096-.286-.288.118-.17.291-.319.517-.446.226-.128.65-.31 1.268-.542.094-.022.238-.033.429-.033.761 0 1.487.458 2.179 1.372.713.957 1.046 1.68 1 2.17-.478 2.806-2.75 5.858-6.822 9.155-2.072 1.658-4.007 2.914-5.804 3.765-1.797.85-3.494 1.275-5.09 1.275-1.904 0-3.475-.638-4.713-1.914" fill="#030002"/><path d="M53.868 61.52c-.58 0-.868-.373-.868-1.12 0-1.515 1.283-3.456 3.852-5.825 1.18-1.087 2.29-1.966 3.33-2.639 1.042-.673 2.013-1.179 2.915-1.52.208-.064.434-.123.678-.177.242-.052.49-.08.745-.08.278 0 .555.028.833.08.277.054.556.124.833.209.393.043.613.053.66.031.415-.063.716-.202.901-.415.047-.043.116-.064.209-.064.092 0 .173.053.243.16.069.106.091.181.07.224-.672.96-1.337 1.904-1.996 2.832a83.148 83.148 0 0 0-1.926 2.832 22.41 22.41 0 0 0-1.423 2.576 41.162 41.162 0 0 0-1.266 2.944 45.061 45.061 0 0 0-.99 2.832c-.277.896-.462 1.653-.554 2.272a1.34 1.34 0 0 0-.035.288v.32c0 .726.243 1.264.728 1.616.486.352 1.146.528 1.978.528.833 0 1.654-.127 2.464-.383 1.226-.384 2.822-1.302 4.789-2.753a23.328 23.328 0 0 0 2.55-2.176A32.04 32.04 0 0 0 74.547 62c.208-.213.348-.32.416-.32.023.021.036.053.036.096 0 .086-.047.203-.14.352a26.333 26.333 0 0 1-1.925 2.304c-.752.81-1.649 1.621-2.69 2.433a33.584 33.584 0 0 1-2.619 1.792c-.775.469-1.487.81-2.134 1.023a6.497 6.497 0 0 1-.972.24c-.324.054-.671.08-1.04.08a4.65 4.65 0 0 1-1.527-.24 5.965 5.965 0 0 1-1.25-.592 1.925 1.925 0 0 1-.92-1.008c-.172-.438-.248-.933-.225-1.488.023-.448.121-1.045.295-1.792.174-.747.4-1.541.677-2.384.277-.842.578-1.68.902-2.512.324-.832.647-1.568.972-2.208.393-.768.78-1.483 1.163-2.144a23.05 23.05 0 0 1 1.162-1.824c.162-.235.15-.352-.035-.352-.024 0-.058.02-.104.065a24.033 24.033 0 0 1-1.996 1.951c-.775.684-1.671 1.43-2.69 2.24-2.034 1.579-3.782 2.763-5.238 3.552-.301.17-.568.256-.798.256m1.214-2.24c0 .513.208.768.624.768.162 0 .336-.053.521-.16 1.295-.747 2.66-1.754 4.095-3.024 1.434-1.269 2.972-2.81 4.615-4.624a.293.293 0 0 0 .103-.224c0-.235-.15-.453-.45-.656-.301-.203-.683-.304-1.145-.304-.255 0-.52.032-.798.096-1.088.257-2.464 1.228-4.13 2.912-.786.81-1.451 1.59-1.995 2.337-.544.746-.977 1.46-1.302 2.143a1.99 1.99 0 0 0-.138.736" fill="#030002"/><path d="M73.334 58.595c-.567.403-1.19.822-1.872 1.257-.681.436-1.368.843-2.061 1.226-.693.381-1.294.678-1.802.89-.138.043-.352.043-.64 0a2.579 2.579 0 0 1-.867-.302 2.644 2.644 0 0 1-.763-.636 1.473 1.473 0 0 1-.329-.97c0-.34.092-.78.277-1.322.185-.54.416-1.113.693-1.718.278-.605.577-1.22.901-1.846.323-.625.624-1.198.902-1.718.276-.52.508-.965.692-1.337.185-.37.289-.599.312-.684a.657.657 0 0 1 .416-.525.952.952 0 0 1 .659-.048c.208.064.357.213.45.446.092.233.034.541-.173.923a999.783 999.783 0 0 1-1.82 3.134 68.9 68.9 0 0 0-.918 1.608c-.185.338-.295.546-.33.62a2.817 2.817 0 0 0-.086.206 4.44 4.44 0 0 1-.156.35c-.08.17-.26.52-.537 1.05s-.421.94-.433 1.226c-.012.286.063.493.225.62a.88.88 0 0 0 .606.175c.243-.01.48-.036.711-.08.44-.084.988-.286 1.646-.603a30.412 30.412 0 0 0 2.027-1.082c.693-.403 1.34-.807 1.941-1.21a15.78 15.78 0 0 0 1.386-1.019c.207-.19.358-.296.45-.318.093-.02.145 0 .156.065.012.063-.017.158-.086.285a1.113 1.113 0 0 1-.313.35c-.276.255-.698.584-1.264.987m-1.888-9.578c-.509.445-.935.636-1.282.572-.509-.084-.763-.264-.763-.54 0-.297.266-.69.798-1.177.53-.51.958-.796 1.282-.86.253-.042.49.027.71.207.219.18.294.366.225.557-.07.36-.393.775-.97 1.241" fill="#030002"/><path d="M71.027 60.905a.322.322 0 0 1 .035-.32c2.247-3.186 3.778-5.64 4.588-7.362.14-.319.21-.584.21-.797 0-.042-.036-.159-.105-.35a.37.37 0 0 1 0-.224c.278-.084 1.147-.53 2.607-1.338.023-.042.069-.064.139-.064.139 0 .231.054.278.16.093.127.081.244-.035.35a135.97 135.97 0 0 0-1.894 2.44c-.522.69-.91 1.268-1.164 1.736a.697.697 0 0 0-.105.319c0 .106.127.117.382.03.208-.083.348-.17.418-.253.903-1 2.073-2.03 3.51-3.093 1.483-1.104 2.642-1.816 3.476-2.135.718-.021 1.251.043 1.599.192.022.02.034.042.034.064 0 .063-.04.153-.121.27a1.926 1.926 0 0 1-.278.319c-.105.096-.215.17-.33.223-.116.054-.21.059-.278.016-.464-.192-1.09-.095-1.877.287-3.43 1.742-6.49 4.633-9.177 8.669 0 .064-.093.138-.278.223a11.13 11.13 0 0 0-.625.24 7.309 7.309 0 0 0-.8.398c-.116.127-.185.127-.209 0M96.764 52.996c-.522.33-1.109.539-1.759.624-.395.064-.983.107-1.761.127-.78.022-1.633.043-2.562.064-.93.022-1.859.033-2.788.033h-2.44c-.256.32-.529.677-.82 1.072-.29.393-.563.815-.82 1.263-.254.447-.475.912-.66 1.392-.187.48-.292.976-.315 1.488-.023.469.03.852.158 1.151.127.299.3.528.522.688.22.16.476.267.766.32.291.053.588.069.89.048a13.2 13.2 0 0 0 2.457-.608 17.365 17.365 0 0 0 2.249-.928c.185-.107.324-.122.417-.048.094.075.047.165-.138.272-.256.17-.558.358-.907.56-.349.202-.732.4-1.15.592-.418.192-.855.367-1.307.528-.454.16-.889.272-1.307.336-.35.063-.733.026-1.151-.112a3.811 3.811 0 0 1-2.021-1.6 2.011 2.011 0 0 1-.314-1.2c.07-1.173.424-2.345 1.063-3.519A16.983 16.983 0 0 1 85.4 52.26a19.142 19.142 0 0 1 2.893-2.624c1.012-.735 1.923-1.252 2.737-1.55.441-.129.836-.113 1.185.047.348.16.622.395.819.704.198.31.314.656.348 1.04.035.384-.052.735-.26 1.055-.349.597-.977 1.1-1.883 1.504-.906.406-1.94.694-3.102.864h1.917c.673 0 1.313-.006 1.916-.016.604-.01 1.168-.027 1.691-.048.523-.021.97-.053 1.343-.096.487-.043.98-.181 1.48-.416s.89-.469 1.169-.704c.116-.148.215-.202.296-.16.081.044.064.14-.052.288-.233.235-.61.518-1.134.848M92.67 49.75c.023-.256-.035-.453-.174-.592-.14-.138-.343-.203-.61-.192-.268.01-.575.1-.923.272-.861.448-1.733 1.04-2.615 1.775a37.88 37.88 0 0 0-2.51 2.288c.604 0 1.231-.064 1.882-.192a9.385 9.385 0 0 0 1.847-.56 9.363 9.363 0 0 0 1.586-.848c.477-.32.854-.671 1.133-1.056.232-.34.36-.639.384-.895M70.605 42.947c-.947.431-1.942.858-2.994 1.282-3.312 1.34-6.844 2.53-10.596 3.572a149.642 149.642 0 0 1-11.984 2.774c.069-.106.127-.211.173-.318l.14-.32h-.035a83.66 83.66 0 0 1 4.134-7.765 68.486 68.486 0 0 1 4.863-7.033c5.767-7.463 11.452-11.312 17.056-11.546.21-.006.417-.01.622-.008L72 23c-.21.002-.424.009-.638.019-9.819.574-19.013 9.781-27.581 27.62v.096a22.225 22.225 0 0 0-1.356 3.652c-.324 1.201-.463 2.355-.416 3.46.023 1 .255 1.75.694 2.249.44.5.996.792 1.667.878.672.084 1.425-.033 2.259-.352.833-.319 1.655-.808 2.466-1.468.255-.211.527-.456.816-.732.29-.277.527-.522.713-.734.185-.234.237-.366.156-.4-.081-.03-.214.038-.4.209-.254.255-.504.494-.747.717a8.068 8.068 0 0 1-.816.654 8.536 8.536 0 0 1-1.79.94c-.636.245-1.226.336-1.77.272-.545-.063-.996-.318-1.355-.765-.36-.447-.516-1.17-.469-2.169.023-.872.167-1.855.434-2.95a24 24 0 0 1 .99-3.142c3.52-.617 6.977-1.36 10.37-2.233a119.458 119.458 0 0 0 10.056-3.061c2.382-.826 4.536-1.667 6.464-2.523-.376-.1-.755-.197-1.142-.29M27.739 33.918c0-1.005 0-1.19-.015-1.402-.014-.225-.073-.33-.314-.377a1.714 1.714 0 0 0-.285-.02c-.08 0-.125-.013-.125-.06 0-.046.051-.059.161-.059.388 0 .848.02 1.053.02.3 0 .724-.02 1.06-.02.914 0 1.243.278 1.36.377.161.14.366.437.366.787 0 .94-.76 1.6-1.799 1.6-.036 0-.117 0-.153-.006-.037-.007-.088-.014-.088-.06 0-.053.051-.073.205-.073.41 0 .98-.416.98-1.09 0-.219-.023-.662-.432-.993a1.16 1.16 0 0 0-.73-.258c-.111 0-.22.007-.286.027-.037.013-.059.053-.059.126v2.645c0 .608 0 1.13.037 1.415.022.185.066.33.285.357.102.013.263.026.373.026.08 0 .117.02.117.054 0 .046-.058.066-.14.066-.482 0-.942-.02-1.133-.02-.168 0-.628.02-.921.02-.095 0-.146-.02-.146-.066 0-.034.03-.054.117-.054.11 0 .198-.013.264-.026.146-.026.182-.172.211-.364.037-.278.037-.8.037-1.408v-1.164ZM32.633 33.913c0-1.003 0-1.19-.007-1.4-.014-.225-.07-.295-.27-.358a1.058 1.058 0 0 0-.249-.023c-.064 0-.107-.023-.107-.07 0-.047.05-.062.142-.062.328 0 .726.015.854.015.213 0 .782-.015.975-.015.397 0 .852.039 1.187.28.178.132.441.467.441.91 0 .49-.256.925-.868 1.462.555.746.996 1.345 1.373 1.757.348.38.569.412.668.436.064.015.1.015.15.015.05 0 .078.039.078.07 0 .055-.043.07-.12.07h-.598c-.349 0-.52-.039-.683-.132-.27-.148-.506-.46-.853-.973-.249-.357-.513-.8-.59-.902a.138.138 0 0 0-.115-.046l-.561-.015c-.03 0-.05.015-.05.054v.093c0 .615.007 1.128.035 1.408.022.194.05.318.242.35.093.014.228.023.306.023.05 0 .078.039.078.07 0 .047-.05.07-.128.07-.362 0-.882-.023-.974-.023-.12 0-.52.023-.768.023-.079 0-.12-.023-.12-.07 0-.031.02-.07.099-.07a.887.887 0 0 0 .22-.023c.128-.032.164-.156.185-.35.028-.28.028-.801.028-1.408v-1.166Zm.797.513c0 .07.014.093.057.117.135.046.32.062.476.062.25 0 .334-.024.44-.11.193-.147.407-.434.407-.979 0-.933-.584-1.174-.953-1.174-.157 0-.306.008-.37.024-.043.015-.057.038-.057.092v1.968Z" fill="#030002"/><path d="M36 34.5c0-1.089.7-2.5 2.53-2.5 1.524 0 2.47.923 2.47 2.387C41 35.852 40.026 37 38.47 37 36.712 37 36 35.634 36 34.5m4.102.12c0-1.411-.776-2.283-1.75-2.283-.672 0-1.46.391-1.46 1.967 0 1.315.686 2.35 1.824 2.35.425 0 1.386-.217 1.386-2.034M41.791 33.427c0-.748 0-.887-.006-1.044-.012-.169-.062-.22-.237-.267a1.084 1.084 0 0 0-.218-.017c-.056 0-.094-.018-.094-.052 0-.035.044-.047.125-.047.287 0 .686.012.829.012.13 0 .48-.012.698-.012.074 0 .112.012.112.047 0 .034-.032.052-.1.052a.756.756 0 0 0-.155.017c-.15.023-.194.093-.206.267-.013.157-.013.296-.013 1.044v.916c0 .21.019.447.019.697 0 .278-.019.591-.13.87-.12.301-.456.649-.985.939a5.715 5.715 0 0 1-.275.128.3.3 0 0 1-.111.023c-.025 0-.044-.023-.044-.047 0-.023.025-.046.119-.087.074-.034.155-.092.26-.19.418-.378.412-.865.412-1.834v-1.415ZM44.574 33.94c0-.989 0-1.172-.006-1.38-.014-.222-.065-.29-.246-.353a.885.885 0 0 0-.226-.023c-.058 0-.096-.022-.096-.068 0-.047.045-.062.129-.062.296 0 .658.015.819.015.18 0 1.439.008 1.548 0 .104-.007.194-.03.24-.038.032-.007.063-.031.09-.031.032 0 .038.031.038.062 0 .045-.032.122-.045.421-.006.07-.02.353-.032.43-.007.03-.02.108-.065.108-.038 0-.045-.032-.045-.085a.728.728 0 0 0-.038-.238c-.046-.115-.09-.207-.374-.238a16.65 16.65 0 0 0-.891-.03c-.026 0-.038.023-.038.06v1.611c0 .038.006.07.038.07.129 0 .864 0 .993-.016.136-.016.22-.03.272-.1.045-.046.064-.084.09-.084.025 0 .045.03.045.07 0 .038-.013.145-.045.474a7.51 7.51 0 0 0-.026.438c0 .053-.006.145-.058.145-.038 0-.052-.022-.052-.053-.007-.07-.007-.154-.019-.238-.033-.13-.103-.23-.316-.253a15.18 15.18 0 0 0-.89-.031c-.026 0-.032.031-.032.07v.52c0 .223-.007.775 0 .967.012.444.186.544.767.544.148 0 .387-.007.536-.084.141-.076.206-.214.244-.484.014-.068.026-.099.065-.099.045 0 .052.085.052.154 0 .145-.045.59-.078.72-.039.169-.09.169-.303.169-.426 0-.768-.008-1.045-.024-.277-.006-.49-.014-.658-.014-.065 0-.188.008-.323.008-.135.006-.277.015-.393.015-.071 0-.11-.023-.11-.07 0-.03.02-.068.09-.068a.744.744 0 0 0 .2-.023c.117-.031.149-.154.168-.345.026-.276.026-.79.026-1.388v-1.15ZM48.651 32.489l-.868.022c-.34.008-.478.054-.565.2a.78.78 0 0 0-.099.22c-.014.054-.027.084-.066.084-.04 0-.053-.038-.053-.106 0-.107.112-.734.125-.787.014-.084.033-.122.067-.122.046 0 .106.054.252.077.172.022.391.03.584.03h2.368c.186 0 .312-.015.399-.03.092-.016.139-.03.159-.03.04 0 .046.037.046.137 0 .137-.014.618-.014.786-.006.068-.02.107-.052.107-.047 0-.06-.03-.067-.13l-.007-.07c-.013-.167-.165-.366-.69-.373l-.736-.015v2.626c0 .595.007 1.107.034 1.389.02.183.052.305.225.336.08.014.212.023.298.023.067 0 .093.038.093.068 0 .046-.046.069-.112.069-.385 0-.776-.023-.942-.023-.133 0-.531.023-.763.023-.074 0-.114-.023-.114-.07 0-.03.02-.067.094-.067.086 0 .16-.009.205-.023.12-.031.153-.153.173-.344.026-.274.026-.786.026-1.381v-2.626Z" fill="#030002"/><path d="M71.138 42.835c6.302-2.741 10.535-5.567 12.23-8.61.164-.33.29-.655.384-.975.093-.32.163-.656.21-1.006.256-2.188-.78-4.118-3.106-5.79-2.167-1.613-4.766-2.431-7.798-2.454-.218-.001-.438.002-.659.008l-.023.803-.592 1.685 1.037.91-1.422 2.319-.485.935.046 2.058s-1.637 1.991-1.639 2.599c-.002.608-1.67 4.307-3.358 5.455-1.688 1.15-.644 1.07-.644 1.07A55.35 55.35 0 0 1 71.626 43l-.488-.165Z" fill="#A2C437"/><path d="m92.02 26.745 1.923-.218.057-1.004-2.314-3.435.031-1.124-1.204-3.508-.62-.883-.834-.596-1.053-1.55-.831-1.218-1.457-1.477-1.97-.641L81.472 11l-2.029.361-2.246.65-1.763.935-1.627 1.531-.358 1.554-1.6 1.652-.554 3.202-.114 1.385-.024.856c.184-.009.367-.015.549-.017 3.196-.04 6.015.882 8.458 2.769 2.64 1.982 3.841 4.237 3.605 6.767a6.94 6.94 0 0 1-.777 2.34C81.29 37.889 77.09 40.647 71 43.258c6.813 1.78 11.619 4.521 14.656 6.742l2.636-1.993 1.082-.605 1.15-.424 1.487-.18-1.825-5.929-1.554-4.085-1.509-1.718-.404-1.17.576-1.218.704-.622 1.216-.217 1.625-.29 1.166-.457.491-.956-.242-1.076-.43-.666.03-.502.166-1.147Z" fill="#A2C437"/></g></svg>