<svg width="184" height="96" xmlns="http://www.w3.org/2000/svg" xmlns:xlink="http://www.w3.org/1999/xlink"><defs><path d="M0 30.958s9.47 3.893 11.206 4.463L15.012 37l1.037-.354 1.126-.446c2.535-1.04 2.955-1.19 5.878-2.382C24.73 33.134 30 31.02 30 31.02V.06H.029V0S0 25.988 0 30.958Z" id="a"/><path d="M0 30.958s9.47 3.893 11.206 4.463L15.012 37l1.037-.354 1.126-.446c2.535-1.04 2.955-1.19 5.878-2.382C24.73 33.134 30 31.02 30 31.02V.06H.029V0S0 25.988 0 30.958Z" id="c"/><path d="M0 30.958s9.47 3.893 11.206 4.463L15.012 37l1.037-.354 1.126-.446c2.535-1.04 2.955-1.19 5.878-2.382C24.73 33.134 30 31.02 30 31.02V.06H.029V0S0 25.988 0 30.958Z" id="e"/><path id="g" d="M0 41h180V0H0z"/></defs><g fill="none" fill-rule="evenodd"><g transform="translate(78 29)"><mask id="b" fill="#fff"><use xlink:href="#a"/></mask><path fill="#F6B40D" mask="url(#b)" d="m31.003 37.357-.09-41.137H-1.036l.09 41.137z"/><mask id="d" fill="#fff"><use xlink:href="#c"/></mask><path fill="#FEFEFE" mask="url(#d)" d="m29.877 33.22 1.036-17.681H15.136l.029 21.638z"/><mask id="f" fill="#fff"><use xlink:href="#e"/></mask><path fill="#E20718" mask="url(#f)" d="M1.673 32.593h1.645V-3.78H1.673zM4.995 33.935h1.644V-3.78H4.995zM8.345 35.393h1.644V-3.78H8.345zM11.662 36.554h1.648V-3.78h-1.648z"/></g><g transform="translate(2 26)"><path stroke="#241916" stroke-width=".38" stroke-linecap="round" stroke-linejoin="round" d="M105.983 34.622V3.768H76.496v30.854l14.908 5.993z"/><path d="M103.161 31.831c-.239-1.898-1.048-3.083-1.98-3.083-.93 0-1.737 1.394-1.98 3.383" fill="#241916"/><path d="M103.161 31.831c-.239-1.898-1.048-3.083-1.98-3.083-.93 0-1.737 1.394-1.98 3.383" stroke="#FEFEFE" stroke-width=".03"/><path d="M98.153 32.16c-.21-2.079-1.049-3.384-2.009-3.384-.902 0-1.65 1.277-1.922 3.115" fill="#241916"/><path d="M98.153 32.16c-.21-2.079-1.049-3.384-2.009-3.384-.902 0-1.65 1.277-1.922 3.115" stroke="#FEFEFE" stroke-width=".03"/><path d="M100.464 31.951c-.356-1.365-1.052-2.166-1.8-2.166-.75 0-1.41.89-1.785 2.286" fill="#241916"/><path d="M100.464 31.951c-.356-1.365-1.052-2.166-1.8-2.166-.75 0-1.41.89-1.785 2.286" stroke="#FEFEFE" stroke-width=".06"/><path fill="#E20718" d="M97.015 22.458v.088l.089.268.09.088.06.032h.24l.06-.032h.089l.089-.028h.182l.089.028.122.06.057.06h.06l.032-.06-.032-.088-.028-.06-.061-.028-.028-.06-.061.028-.09-.028h-.242l-.179.088h-.149l-.06-.028h-.09l-.032-.06-.057-.06-.061-.088v-.12l-.032-.028z"/><path stroke="#241916" stroke-width=".08" d="m98.064 22.754-.09-.028h-.242l-.179.088h-.149l-.06-.028h-.09l-.032-.06-.057-.06-.032-.088-.029-.06v-.06l-.032-.028-.057.028v.088l.089.268.09.089.06.031h.24l.06-.031h.089l.089-.029h.182l.089.029.122.06.057.06h.06l.032-.06-.032-.089-.117-.12z"/><path fill="#E20718" d="m97.554 22.073-.122.06-.089.089-.029.088-.06.12.028.176.032.12.058-.088.06-.06.06-.032.122.032.15.028.239.12.09.089.088.06.032.119-.032.089-.089-.033-.117-.056-.182-.032-.118.032-.243.117h.06l.09-.028h.122l.12.028.15.06.06.06.09.028.51-.06-.032-.413-.267-.296h-.21l-.061-.328-.121.06-.09-.12-.178-.06z"/><path stroke="#241916" stroke-width=".08" d="m98.181 23.082-.089-.031-.118-.057-.182-.031-.117.031-.243.116h.093l.057-.028h.121l.122.028.15.06.06.06.09.029.51-.06-.032-.413-.268-.296h-.21l-.033-.328-.15.06-.089-.12-.178-.06-.121.031-.09.06-.121.088-.028.089-.061.12.029.176.032.12.057-.088.06-.06.093-.032.089.032.15.028.118.032.121.088.09.088.088.06.032.12-.032.088"/><path fill="#E20718" d="m99.562 21.54-.3.386.06-.565-.238.473.029-.561-.21.504v-.593l-.18.505v-.565l-.182.533-.028-.564-.15.536h-.028l-.061-.536-.121.504-.118-.504-.06.536-.15-.505.028.565v.384l.21.029.932.236.239.06.029-.116.06-.209.032-.031z"/><path stroke="#241916" stroke-width=".08" d="m99.562 21.54-.3.386.06-.565-.238.473.029-.561-.21.504v-.593l-.18.505v-.565l-.182.533-.028-.564-.15.536h-.028l-.061-.536-.121.504-.118-.504-.06.536-.15-.505.028.565v.384l.21.029.932.236.239.06.029-.116.06-.209.032-.031z"/><path d="M103.465 31.951v-.12a.436.436 0 0 1-.393-.412c0 .176-.21.352-.478.412h-.51c-.271-.056-.482-.236-.482-.444 0 .208-.21.353-.477.444h-.482c-.271-.056-.478-.236-.478-.444 0 .208-.21.388-.51.444h-.421c-.3-.056-.51-.204-.51-.412 0 .208-.21.352-.51.412h-.421c-.3-.056-.51-.204-.51-.412a.58.58 0 0 1-.478.412h-.482c-.272-.056-.478-.204-.478-.412a.599.599 0 0 1-.571.412h-.332a.589.589 0 0 1-.567-.412c-.032.208-.182.352-.481.412v.92h9.6v-.8h-.03Z" fill="#004A87"/><path d="M103.465 31.951v-.12a.436.436 0 0 1-.393-.412c0 .176-.21.352-.478.412h-.51c-.271-.056-.482-.236-.482-.444 0 .208-.21.353-.477.444h-.482c-.271-.056-.478-.236-.478-.444 0 .208-.21.388-.51.444h-.421c-.3-.056-.51-.204-.51-.412 0 .208-.21.352-.51.412h-.421c-.3-.056-.51-.204-.51-.412a.58.58 0 0 1-.478.412h-.482c-.272-.056-.478-.204-.478-.412a.599.599 0 0 1-.571.412h-.332a.589.589 0 0 1-.567-.412c-.032.208-.182.352-.481.412v.92h9.6v-.8h-.03Z" stroke="#241916" stroke-width=".17"/><path fill="#E20718" d="m97.853 25.753-.328-.328-.061-.089v.06l-.21-.031.15-.385-.782-.208-.838-.324-.392-.625-.6.029-.117.596-.061.148-.182.028v.444l-.117.445v.328l-.032.297v.296l.032.208-.032.265.032.327-.032.297.06.592.089.18v.209l.06.296.033.264.057.24.032.237.09-.06.032-.237v-.772l.028-.445.15.06.06-.236v-.18l.09.06.088-.148.033-.18.057.092.121-.12.06-.237.061.06.15-.12.06-.208v-.028l.03.028.12-.028v.208l.09.116.089-.028.09.117.15.06.031-.089.029.12.121.088.15-.031.178.06.09-.208v-.297l-.03-.296-.028-.088h.058l-.03.148.09.148.122-.028.089.148.15.06.032-.18.028-.356v-.208l.06.24.09.088.089-.237v-.327l-.028-.177.15.653.12.116.057-.236v-.356z"/><path stroke="#241916" stroke-width=".08" d="m97.853 25.753-.328-.328-.061-.089v.06l-.21-.031.15-.385-.782-.208-.838-.324-.392-.625-.6.029-.117.596-.061.148-.182.028v.444l-.117.445v.328l-.032.297v.296l.032.208-.032.265.032.327-.032.297.06.592.089.18v.209l.06.296.033.264.057.24.032.237.09-.06.032-.237v-.772l.028-.445.15.06.06-.236v-.18l.09.06.088-.148.033-.18.057.092.121-.12.06-.237.061.06.15-.12.06-.208v-.028l.03.028.12-.028v.208l.09.116.089-.028.09.117.15.06.031-.089.029.12.121.088.15-.031.178.06.09-.208v-.297l-.03-.296-.028-.088h.058l-.03.148.09.148.122-.028.089.148.15.06.032-.18.028-.356v-.208l.06.24.09.088.089-.237v-.327l-.028-.177.15.653.12.116.057-.236v-.356z"/><path d="m103.372 26.226-.029-.269v-.352l-.121-.389v-.504h-.06a1.83 1.83 0 0 0-.208-.592c-.12-.177-.841.148-1.112.18-.272.031-.629.088-.629.088a.795.795 0 0 1-.42.472 2.512 2.512 0 0 1-.81.092l-.15.532-.3.297-.028.353v.353l.057.236.121-.088.09-.385v.296l.06.237.121-.088.15-.685v.536l.06.237.119-.088.032-.24v.208l.028.353.06.18.15-.06.09-.148.12.028.09-.149v-.147h.029l-.029.088-.028.296v.297l.057.208.182-.057.15.028.117-.088.032-.12.03.088.12-.06.09-.116.12.028.09-.116-.029-.18.118.031.032-.031.057.236.154.092.057-.06.06.236.122.089.06-.057.029.176.09.149.088-.06v.18l.061.236.15-.06.031.444v.773l.03.236.088.089.122-.473.028-.236.06-.3v-.237l.09-.176.06-.268.033-.297-.032-.296.032-.328-.06-.265.06-.24v-.384l-.032.01Z" fill="#E20718"/><path d="m103.372 26.226-.029-.269v-.352l-.121-.389v-.504h-.06a1.83 1.83 0 0 0-.208-.592c-.12-.177-.841.148-1.112.18-.272.031-.629.088-.629.088a.795.795 0 0 1-.42.472 2.512 2.512 0 0 1-.81.092l-.15.532-.3.297-.028.353v.353l.057.236.121-.088.09-.385v.296l.06.237.121-.088.15-.685v.536l.06.237.119-.088.032-.24v.208l.028.353.06.18.15-.06.09-.148.12.028.09-.149v-.147h.029l-.029.088-.028.296v.297l.057.208.182-.057.15.028.117-.088.032-.12.03.088.12-.06.09-.116.12.028.09-.116-.029-.18.118.031.032-.031.057.236.154.092.057-.06.06.236.122.089.06-.057.029.176.09.149.088-.06v.18l.061.236.15-.06.031.444v.773l.03.236.088.089.122-.473.028-.236.06-.3v-.237l.09-.176.06-.268.033-.297-.032-.296.032-.328-.06-.265.06-.24v-.384l-.032.01Z" stroke="#241916" stroke-width=".08"/><path d="M104.12 32.54c-.177-.084-.307-.327-.331-.62a.7.7 0 0 1-.713.716.731.731 0 0 1-.714-.717.704.704 0 0 1-.713.717.733.733 0 0 1-.713-.717c0 .427-.332.762-.714.762-.382 0-.714-.335-.714-.762 0 .427-.328.762-.713.762-.385 0-.713-.335-.713-.762 0 .427-.332.762-.714.762-.382 0-.714-.335-.714-.762l-.299.57m4.827.056c-.177-.086-.305-.328-.329-.62 0 .426-.332.762-.713.762-.382 0-.714-.336-.714-.762 0 .426-.328.762-.713.762-.385 0-.714-.336-.714-.762a.703.703 0 0 1-.713.716.733.733 0 0 1-.714-.716c0 .426-.327.762-.713.762-.385 0-.713-.336-.713-.762a.701.701 0 0 1-.714.716.73.73 0 0 1-.713-.716l-.3.57" stroke="#FEFEFE" stroke-width=".19"/><path fill="#E20718" d="m102.294 28.956-.12-.12-.09-.06-.06-.028-.09-.031h-.15l.09-.057h.117v-.032h.032l.09-.028h.06l.06.06.061.028.029.088.029-.06-.03-.116v-.088l-.028-.06-.06-.06-.093-.06v-.028l-.089-.089h-.09l-.089.056-.089.033-.093.088-.117.06-.093.06-.117.088-.122.06-.09.028-.149-.028-.239-.12-.15-.06-.242-.117-.21-.208-.058-.088-.21-.208-.09-.148-.36-.092.24.625.36.268.178.116.15.06.121.06.15.028.121.032.15.056.06.032-.15.028-.092.032h-.21l-.09.028-.089.06-.06.06-.029.117v.18l-.032.088.032.088.028.06.061.06.061.028h.15l.06-.028h-.12l-.062-.06-.028-.06v-.088l.028-.028h.09l.06-.12.032-.089.028-.06.09.029h.21l.09-.028.06-.029.09-.06h.032l.089.06.06.029.179.12.093.088-.033.06v.088l.033.06.089.028v.06l.06.088.029.088-.029.06-.06.06-.061.032-.09.028.062.028h.117l.061-.056.06-.032.061-.088.028-.088v-.209l-.028-.031v-.028l.028-.06-.028-.088-.06-.032v-.088l-.033-.06-.057-.028-.06-.089-.09-.06h.118l.061-.028h.178l.032.028-.032.029v.091l.032.088.09.029v.031l.028.057v.151l-.057.057h.057l.093-.088.028-.088.032-.06v-.089l-.032-.06.032-.028.029-.06v-.088z"/><path stroke="#241916" stroke-width=".08" d="m102.294 28.956-.12-.12-.09-.06-.06-.028-.09-.031h-.15l.09-.057h.117v-.032h.032l.09-.028h.06l.06.06.061.028.029.088.029-.06-.03-.116v-.088l-.028-.06-.06-.06-.093-.06v-.028l-.089-.089h-.09l-.089.056-.089.033-.093.088-.117.06-.093.06-.117.088-.122.06-.09.028-.149-.028-.239-.12-.15-.06-.242-.117-.21-.208-.058-.088-.21-.208-.09-.148-.36-.092.24.625.36.268.178.116.15.06.121.06.15.028.121.032.15.056.06.032-.15.028-.092.032h-.21l-.09.028-.089.06-.06.06-.029.117v.18l-.032.088.032.088.028.06.061.06.061.028h.15l.06-.028h-.12l-.062-.06-.028-.06v-.088l.028-.028h.09l.06-.12.032-.089.028-.06.09.029h.21l.09-.028.06-.029.09-.06h.032l.089.06.06.029.179.12.093.088-.033.06v.088l.033.06.089.028v.06l.06.088.029.088-.029.06-.06.06-.061.032-.09.028.062.028h.117l.061-.056.06-.032.061-.088.028-.088v-.209l-.028-.031v-.028l.028-.06-.028-.088-.06-.032v-.088l-.033-.06-.057-.028-.06-.089-.09-.06h.118l.061-.028h.178l.032.028-.032.029v.091l.032.088.09.029v.031l.028.057v.151l-.057.057h.057l.093-.088.028-.088.032-.06v-.089l-.032-.06.032-.028.029-.06v-.088z"/><path fill="#E20718" d="m97.732 27.71-.09.15-.117.087-.092.12-.061.088-.207.208-.243.117-.15.088-.117.06-.15.032-.121.028-.09-.028-.238-.12-.122-.088-.09-.06-.092-.088-.09-.032-.12-.057h-.09l-.06.089v.027h-.029l-.12.12-.058.177v.088l.028.06.03-.088.06-.028.032-.032.09-.028.088.06v-.032l.06.032h.09l.09.056h-.15l-.179.06-.06.089-.062.031-.06.06-.029.06v.088l.03.06v.177l.031.06v.088l.118.12h.032l-.032-.06v-.18l.032-.057v-.031l.06-.028.057-.089v-.091l-.028-.029.028-.028h.182l.061.028h.118l-.09.06-.06.088-.057.029-.032.06v.088l-.06.031-.03.09.03.087-.03.032v.208l.03.088.06.088.06.032.061.056h.118l.06-.028-.117-.028-.06-.032-.062-.12.061-.176.029-.029.089-.06.032-.06v-.087l-.032-.06.093-.089.178-.12.06-.028.09-.06h.028l.061.06.182.057h.21l.09-.029.028.06.032.089.061.12h.09l.028.028v.088l-.06.06-.03.06h-.12l.06.028h.15l.06-.028.06-.06.03-.06.032-.088-.032-.089-.03-.12.03-.06-.03-.116-.088-.06-.06-.06-.09-.028h-.21l-.243-.06.06-.031.15-.057.121-.032.15-.028.122-.06.15-.06.178-.088.12-.12.24-.177.24-.624z"/><path stroke="#241916" stroke-width=".08" d="m97.732 27.71-.09.15-.117.087-.092.12-.061.088-.207.208-.243.117-.15.088-.117.06-.15.032-.121.028-.09-.028-.238-.12-.122-.088-.09-.06-.092-.088-.09-.032-.12-.057h-.09l-.06.089v.027h-.029l-.12.12-.058.177v.088l.028.06.03-.088.06-.028.032-.032.09-.028.088.06v-.032l.06.032h.09l.09.056h-.15l-.179.06-.06.089-.062.031-.06.06-.029.06v.088l.03.06v.177l.031.06v.088l.118.12h.032l-.032-.06v-.18l.032-.057v-.031l.06-.028.057-.089v-.091l-.028-.029.028-.028h.182l.061.028h.118l-.09.06-.06.088-.057.029-.032.06v.088l-.06.031-.03.09.03.087-.03.032v.208l.03.088.06.088.06.032.061.056h.118l.06-.028-.117-.028-.06-.032-.062-.12.061-.176.029-.029.089-.06.032-.06v-.087l-.032-.06.093-.089.178-.12.06-.028.09-.06h.028l.061.06.182.057h.21l.09-.029.028.06.032.089.061.12h.09l.028.028v.088l-.06.06-.03.06h-.12l.06.028h.15l.06-.028.06-.06.03-.06.032-.088-.032-.089-.03-.12.03-.06-.03-.116-.088-.06-.06-.06-.09-.028h-.21l-.243-.06.06-.031.15-.057.121-.032.15-.028.122-.06.15-.06.178-.088.12-.12.24-.177.24-.624z"/><path d="m103.404 24.832-.032-.236-.061-.208-.09-.149-.117-.18-.182-.296c-.16-.136-.36-.219-.57-.236a.439.439 0 0 0-.39.236l-.15.476-.327-.12-.332-.088c-.122.089-.029.621-.271.74l-.268-.059-.481.148-.357-.324-.21-.18-.118-.117-.061-.091v-.028l-.09-.445.03-.653-.061-.476-.028-.176-.09-.12-.092-.089-.058-.028-.032-.031-.389-.149h-.182l-.117-.028h-.21l-.09.028-.032.06-.028.089.089.088.121.18.21.416.057.056.061.12v.12l-.089.06h-.171l.267.265v.12l-.028.12-.061.088-.028.116v.092l-.211.177-.182.268-.178.088-.15.176-.393-.116-.206.028-.303-.208-.09-.505h-.3l-.42.149-.24-.593a.49.49 0 0 0-.51-.117.71.71 0 0 0-.449.354l-.089.176-.122.176-.089.148-.06.208-.029.24-.053.28.032.295.06.208.09.06.06-.088.118-.353.121-.416.061.18.057.116.121.06.121-.06.09-.148.06-.148.029-.208.06.24.061.176.09.088.12.032.119-.091v-.177l.15.148.12.088.122.12.117.089h.161l.093.148.089-.028.09.088h.12l.09-.088.06-.149.15.117.118-.029.093.12.21.117.179.208.27.06v.176l.03.149.027.06v.208l.033.06v.028l-.033.092v.204l-.056.092-.243.236-.057.12-.032.117v.12h-.16l-.15.06-.061.088v.088l.032-.088.089-.06.09-.057h.12l-.12.057-.061.092.06-.06.061-.032h.178l-.089.092-.089.116-.06.148.031.092.057-.18.061-.029.09-.031h.117l.09-.028-.122.176-.06.06-.09.06h.182l.09-.028.088-.092-.06.092-.029.088-.089.113-.09.088h.09l.09-.06.088-.116.093-.088-.06.116-.033.12-.057.12-.12.088-.09.028.028.032h.182l.09-.032.12-.028.15-.148-.092.264.06-.088.033-.06.057-.148v.092l-.03.116-.06.18-.15.149-.088.056-.122.032h-.446l-.121-.06-.118-.028.06.056.058.091.093.089.089.06.09.028h.356l.089-.028.093-.06.089-.089v.149l-.09.264-.27.268-.183.06-.117.029h-.51l-.121.032-.09.027-.121.06-.09.06-.06.088-.028.09v.207l.028.088.06.06.062.032h.089l.089-.032.06-.088-.06.06-.057.028h-.06l-.061-.028-.032-.088v-.18l.032-.088.089-.089.239-.06h.21l-.089.06-.06.089-.03.116v.092l.062.088.089.06h.117l-.057-.032-.06-.088-.032-.088.032-.088.06-.092.09-.029h.121l.117-.028.121-.06.15-.031.24-.177.21-.208.089-.148v.254l-.06.117-.057.091-.357.353-.093.06-.118.032h-.21l-.09-.032-.12-.116.089.116.092.091.118.057.09.032h.117l.15-.032.089-.057.093-.09.089-.061.089-.117.089-.088-.028.057v.328l-.032.12-.057.056-.093.032h-.118l.09.06h.178l.093-.06v.208l.028.148.029.088.032-.088.028-.12.032-.148.029-.12v-.088l.06.088.09.06.089.032.121-.031-.089-.029-.032-.06-.057-.088-.033-.089-.028-.12v-.087l.028-.12.09.088.06.088.121.06.18.06h.12l.24-.06.089-.089.093-.06.056-.116-.028.057-.121.06-.09.032h-.089l-.121-.032-.239-.117-.179-.12-.12-.236-.062-.18-.028-.208-.032-.236-.029-.297.061.149.06.12.09.148.3.296.117.06.122.088.12.06.119.028.093.032.089.057.028.06.032.12v.116l-.032.092-.15.088h.122l.089-.06.06-.089.061-.12v-.088l-.032-.12-.06-.116-.09-.092-.15-.056h.482l.15.028.15.06.088.06.09.088.06.088.032.149v.207l.058-.147v.416l-.029-.148-.06-.12-.09-.089-.12-.088-.15-.06-.119-.06h-.66l-.181-.028-.122-.06-.118-.088-.21-.208-.06-.148-.061-.12-.118-.148.118.088.092.088.118.092.182.056h.342l.122-.028.117-.088.122-.149.089-.18-.06.12-.09.089-.089.06-.122.028h-.117l-.182-.028-.15-.028-.117-.06-.121-.12-.09-.148-.09-.12-.06-.177.06.12.09.117.118.088.093.031-.121-.088-.122-.18-.09-.236.09.148.093.12.178.117h.121l.09-.029.028-.032h-.178l-.09-.056-.06-.091-.061-.117v-.18l.029-.116v-.148l.032.176.178.236.122.12.089.268.032-.12-.032-.12-.06-.148.092.12.057.12.06.205v-.296l-.06-.237.06.06.09.12.121.176.028.12.033.088.028-.12v-.148l-.028-.116-.06-.092-.09-.148.09.06.06.06.06.088.058.148h.032l-.032-.176-.03-.12-.06-.12-.028-.088.178.06.122.088-.09-.148-.121-.177-.09-.147-.12-.297-.118-.148-.093-.12-.089-.028.06-.18.03-.148v-.237l.031-.12.028-.176v-.148l.45-.06.182-.209.21-.12.09-.116.117.029.154-.12.057.151.092.088h.118l.09-.088.092.028.09-.148h.15l.12-.088.15-.12.118-.088.15-.148v.176l.121.088.15-.028.09-.088.06-.18.06-.236.03.208.06.148.089.148.121.06.121-.06.058-.12.032-.176.118.416.12.353.061.088.09-.06.06-.208.029-.296-.118-.445v.007Z" fill="#E20718"/><path d="m103.404 24.832-.032-.236-.061-.208-.09-.149-.117-.18-.182-.296c-.16-.136-.36-.219-.57-.236a.439.439 0 0 0-.39.236l-.15.476-.327-.12-.332-.088c-.122.089-.029.621-.271.74l-.268-.059-.481.148-.357-.324-.21-.18-.118-.117-.061-.091v-.028l-.09-.445.03-.653-.061-.476-.028-.176-.09-.12-.092-.089-.058-.028-.032-.031-.389-.149h-.182l-.117-.028h-.21l-.09.028-.032.06-.028.089.089.088.121.18.21.416.057.056.061.12v.12l-.089.06h-.171l.267.265v.12l-.028.12-.061.088-.028.116v.092l-.211.177-.182.268-.178.088-.15.176-.393-.116-.206.028-.303-.208-.09-.505h-.3l-.42.149-.24-.593a.49.49 0 0 0-.51-.117.71.71 0 0 0-.449.354l-.089.176-.122.176-.089.148-.06.208-.029.24-.053.28.032.295.06.208.09.06.06-.088.118-.353.121-.416.061.18.057.116.121.06.121-.06.09-.148.06-.148.029-.208.06.24.061.176.09.088.12.032.119-.091v-.177l.15.148.12.088.122.12.117.089h.161l.093.148.089-.028.09.088h.12l.09-.088.06-.149.15.117.118-.029.093.12.21.117.179.208.27.06v.176l.03.149.027.06v.208l.033.06v.028l-.033.092v.204l-.056.092-.243.236-.057.12-.032.117v.12h-.16l-.15.06-.061.088v.088l.032-.088.089-.06.09-.057h.12l-.12.057-.061.092.06-.06.061-.032h.178l-.089.092-.089.116-.06.148.031.092.057-.18.061-.029.09-.031h.117l.09-.028-.122.176-.06.06-.09.06h.182l.09-.028.088-.092-.06.092-.029.088-.089.113-.09.088h.09l.09-.06.088-.116.093-.088-.06.116-.033.12-.057.12-.12.088-.09.028.028.032h.182l.09-.032.12-.028.15-.148-.092.264.06-.088.033-.06.057-.148v.092l-.03.116-.06.18-.15.149-.088.056-.122.032h-.446l-.121-.06-.118-.028.06.056.058.091.093.089.089.06.09.028h.356l.089-.028.093-.06.089-.089v.149l-.09.264-.27.268-.183.06-.117.029h-.51l-.121.032-.09.027-.121.06-.09.06-.06.088-.028.09v.207l.028.088.06.06.062.032h.089l.089-.032.06-.088-.06.06-.057.028h-.06l-.061-.028-.032-.088v-.18l.032-.088.089-.089.239-.06h.21l-.089.06-.06.089-.03.116v.092l.062.088.089.06h.117l-.057-.032-.06-.088-.032-.088.032-.088.06-.092.09-.029h.121l.117-.028.121-.06.15-.031.24-.177.21-.208.089-.148v.254l-.06.117-.057.091-.357.353-.093.06-.118.032h-.21l-.09-.032-.12-.116.089.116.092.091.118.057.09.032h.117l.15-.032.089-.057.093-.09.089-.061.089-.117.089-.088-.028.057v.328l-.032.12-.057.056-.093.032h-.118l.09.06h.178l.093-.06v.208l.028.148.029.088.032-.088.028-.12.032-.148.029-.12v-.088l.06.088.09.06.089.032.121-.031-.089-.029-.032-.06-.057-.088-.033-.089-.028-.12v-.087l.028-.12.09.088.06.088.121.06.18.06h.12l.24-.06.089-.089.093-.06.056-.116-.028.057-.121.06-.09.032h-.089l-.121-.032-.239-.117-.179-.12-.12-.236-.062-.18-.028-.208-.032-.236-.029-.297.061.149.06.12.09.148.3.296.117.06.122.088.12.06.119.028.093.032.089.057.028.06.032.12v.116l-.032.092-.15.088h.122l.089-.06.06-.089.061-.12v-.088l-.032-.12-.06-.116-.09-.092-.15-.056h.482l.15.028.15.06.088.06.09.088.06.088.032.149v.207l.058-.147v.416l-.029-.148-.06-.12-.09-.089-.12-.088-.15-.06-.119-.06h-.66l-.181-.028-.122-.06-.118-.088-.21-.208-.06-.148-.061-.12-.118-.148.118.088.092.088.118.092.182.056h.342l.122-.028.117-.088.122-.149.089-.18-.06.12-.09.089-.089.06-.122.028h-.117l-.182-.028-.15-.028-.117-.06-.121-.12-.09-.148-.09-.12-.06-.177.06.12.09.117.118.088.093.031-.121-.088-.122-.18-.09-.236.09.148.093.12.178.117h.121l.09-.029.028-.032h-.178l-.09-.056-.06-.091-.061-.117v-.18l.029-.116v-.148l.032.176.178.236.122.12.089.268.032-.12-.032-.12-.06-.148.092.12.057.12.06.205v-.296l-.06-.237.06.06.09.12.121.176.028.12.033.088.028-.12v-.148l-.028-.116-.06-.092-.09-.148.09.06.06.06.06.088.058.148h.032l-.032-.176-.03-.12-.06-.12-.028-.088.178.06.122.088-.09-.148-.121-.177-.09-.147-.12-.297-.118-.148-.093-.12-.089-.028.06-.18.03-.148v-.237l.031-.12.028-.176v-.148l.45-.06.182-.209.21-.12.09-.116.117.029.154-.12.057.151.092.088h.118l.09-.088.092.028.09-.148h.15l.12-.088.15-.12.118-.088.15-.148v.176l.121.088.15-.028.09-.088.06-.18.06-.236.03.208.06.148.089.148.121.06.121-.06.058-.12.032-.176.118.416.12.353.061.088.09-.06.06-.208.029-.296-.118-.445v.007Z" stroke="#241916" stroke-width=".08"/><path fill="#241916" d="M98.153 22.398h.121l-.06-.088z"/><path d="M98.303 9.049c.052.283.063.574.032.86-.032.15.057.625-.482.565a.7.7 0 0 0 .121-.536 1.97 1.97 0 0 0-.27-.801l-.179-.176.057.296-.029.504a.494.494 0 0 1-.45.177.392.392 0 0 0 .18-.445 2.031 2.031 0 0 0-.418-.889l.96.18.478.265Z" fill="#E20718"/><path d="M98.303 9.049c.052.283.063.574.032.86-.032.15.057.625-.482.565a.7.7 0 0 0 .121-.536 1.97 1.97 0 0 0-.27-.801l-.179-.176.057.296-.029.504a.494.494 0 0 1-.45.177.392.392 0 0 0 .18-.445 2.031 2.031 0 0 0-.418-.889l.96.18.478.265Z" stroke="#241916" stroke-width=".07" stroke-linejoin="round"/><path d="m101.05 12.4.478-.176.331.296.271-.593.628-.06a1.448 1.448 0 0 1-.688-.705c-.243-.384-.45-.652-.51-.8l-.032.236-.18.624-.299.95v.235-.007Z" fill="#E20718"/><path d="m101.05 12.4.478-.176.331.296.271-.593.628-.06a1.448 1.448 0 0 1-.688-.705c-.243-.384-.45-.652-.51-.8l-.032.236-.18.624-.299.95v.235-.007Z" stroke="#241916" stroke-width=".07" stroke-linejoin="round"/><path d="M99.234 10.947c-.21.388-.45 1.365-.87 1.661-.421.296-.54.388-.9.417.3.06.75.12.66.268l-.06.088h.21l.09.296.088.088.843-1.57-.061-1.248" fill="#E20718"/><path d="M99.234 10.947c-.21.388-.45 1.365-.87 1.661-.421.296-.54.388-.9.417.3.06.75.12.66.268l-.06.088h.21l.09.296.088.088.843-1.57-.061-1.248Z" stroke="#241916" stroke-width=".07" stroke-linejoin="round"/><path d="M101.05 12.548c-.058.653-.357 1.457-.329 2.198-.02.605.093 1.206.328 1.764l-.178.032c-.06-.12-.27-.95-.481-1.157-.211-.209-.45-.209-.45 0 0 .208-.178.208-.21-.032s-.029-.473-.714-.385a1.076 1.076 0 0 0-.57.208l2.607-2.642-.004.014Z" fill="#E20718"/><path d="M101.05 12.548c-.058.653-.357 1.457-.329 2.198-.02.605.093 1.206.328 1.764l-.178.032c-.06-.12-.27-.95-.481-1.157-.211-.209-.45-.209-.45 0 0 .208-.178.208-.21-.032s-.029-.473-.714-.385a1.076 1.076 0 0 0-.57.208l2.607-2.642-.004.014Z" stroke="#241916" stroke-width=".07" stroke-linejoin="round"/><path d="M96.744 14.538c.75-.208 2.518-.8 2.458-2.73-.061-1.93-.689-2.58-1.588-3.055a1.631 1.631 0 0 0-.75-.149l-.12-.148s-.21-.088-.57-.208a3.22 3.22 0 0 0-1.139-.06l-.032-.148h1.502c0-.148-.332-.353-.753-.413s-1.049-.06-1.199-.268l-.12-.353.752.148.478-.208a.462.462 0 0 1-.121-.621c.092-.208.542-.652 1.68-.476 1.138.176 2.882 1.365 3.45 2.046.566.681 1.23 1.411.991 2.939a5.107 5.107 0 0 1-1.784 3.231 22.826 22.826 0 0 0-1.862 1.782l-.15-1.01-1.138-.295.015-.004Z" fill="#004A87"/><path d="M95.674 6.914h.182-.182Zm1.07 7.624c.75-.208 2.518-.8 2.458-2.73-.061-1.93-.689-2.58-1.588-3.056a1.646 1.646 0 0 0-.75-.148l-.12-.148s-.21-.088-.57-.208a3.205 3.205 0 0 0-1.139-.06l-.032-.148h1.502c0-.149-.332-.353-.753-.413s-1.049-.06-1.199-.268l-.12-.353.752.148.478-.208a.462.462 0 0 1-.121-.62c.092-.21.542-.654 1.68-.477 1.138.177 2.882 1.365 3.45 2.046.566.681 1.23 1.411.991 2.939a5.11 5.11 0 0 1-1.784 3.232 22.819 22.819 0 0 0-1.862 1.78l-.15-1.008-1.138-.296.015-.004Z" stroke="#241916" stroke-width=".07" stroke-linejoin="round"/><path fill="#241916" d="m96.594 7.063.06.088.09-.088-.09-.092z"/><path d="M99.234 13.737c-1.07.681-2.43 1.274-3.81-.031-.87-.83-.692-.83-.96-.858a.538.538 0 0 0-.542.177c.21 0 .51-.088.753.268.242.356.3.68.178.8h-.15l.15.353.3.148.356.533a2.45 2.45 0 0 0 2.22-.148 3.362 3.362 0 0 1-2.159.829c.57.18.899.24 1.138.536.24.297.032.505.271.505.24 0 .061-.208.15-.208.234.047.44.185.57.384.09.24.24.741.75.86.51.12.632-.119.66-.207-.24 0-.268.268-.628-.06-.36-.329-.752-1.098-.182-2.117.57-1.02 1.07-1.362 1.11-1.718l-.328.148.149-.208.004.014Z" fill="#E20718"/><path d="M99.234 13.737c-1.07.681-2.43 1.274-3.81-.031-.87-.83-.692-.83-.96-.858a.538.538 0 0 0-.542.177c.21 0 .51-.088.753.268.242.356.3.68.178.8h-.15l.15.353.3.148.356.533a2.45 2.45 0 0 0 2.22-.148 3.362 3.362 0 0 1-2.159.829c.57.18.899.24 1.138.536.24.297.032.505.271.505.24 0 .061-.208.15-.208.234.047.44.185.57.384.09.24.24.741.75.86.51.12.632-.119.66-.207-.24 0-.268.268-.628-.06-.36-.329-.752-1.098-.182-2.117.57-1.02 1.07-1.362 1.11-1.718l-.328.148.149-.208.004.014Z" stroke="#241916" stroke-width=".07" stroke-linejoin="round"/><path d="M96.505 5.786c.207-.028 1.199.06 1.62-.473l-.3.445c.279.033.562.021.838-.033.308-.042.588-.202.781-.444a.639.639 0 0 1-.357.477.477.477 0 0 1-.449.208c.3.056.66.204.928.236.44.093.897-.03 1.23-.328a.709.709 0 0 1-.57.564 1.802 1.802 0 0 1-.54.12c.24.237.482.504.81.829.329.325.871.833 1.592.389-.093.296-.393.384-.753.352a2.68 2.68 0 0 1-.9-.268.816.816 0 0 1-.388-.505c.042.247.123.484.24.706l-.479-.536-.271.208V7.26l-.482-.504c.064.18.095.37.093.56l-.27.389.06-.296-.21.324c-.062.06-.211.148-.632.148.331-.148.57-.264.542-.62a1.15 1.15 0 0 0-.45-.893 2.062 2.062 0 0 0-.87-.445 3.039 3.039 0 0 1-.66-.088l-.15-.06" fill="#E20718"/><path d="M96.505 5.786c.207-.028 1.199.06 1.62-.473l-.3.445c.279.033.562.021.838-.033.308-.042.588-.202.781-.444a.639.639 0 0 1-.357.477.477.477 0 0 1-.449.208c.3.056.66.204.928.236.44.093.897-.03 1.23-.328a.709.709 0 0 1-.57.564 1.802 1.802 0 0 1-.54.12c.24.237.482.504.81.829.329.325.871.833 1.592.389-.093.296-.393.384-.753.352a2.68 2.68 0 0 1-.9-.268.816.816 0 0 1-.388-.505c.042.247.123.484.24.706l-.479-.536-.271.208V7.26l-.482-.504c.064.18.095.37.093.56l-.27.389.06-.296-.21.324c-.062.06-.211.148-.632.148.331-.148.57-.264.542-.62a1.15 1.15 0 0 0-.45-.893 2.062 2.062 0 0 0-.87-.445 3.039 3.039 0 0 1-.66-.088l-.15-.06-.003.01Z" stroke="#241916" stroke-width=".07" stroke-linejoin="round"/><path d="M4.17 6.76H3.54v3.707s.631.028 1.32.028c1.052 0 1.783-.593 1.783-1.764-.032-1.41-1.02-1.957-2.461-1.957m1.73 7.866L4.92 12.92H3.492v4.364H0V4.057H4.05c3.72 0 6.182 1.411 6.182 4.42a3.43 3.43 0 0 1-1.951 3.235l.93 1.453c.931 1.486 1.32 1.69 2.28 1.81l-.27 2.403c-3.301-.06-3.96-.268-5.309-2.759M13.199 17.237V4.036h7.951v2.847h-4.44v2.314h4.108v2.79H16.71v2.371h5.008l-.206 2.879zM30.69 17.417c-4.71 0-7.62-2.226-7.62-6.827 0-4.3 3.089-6.73 7.62-6.73a15.48 15.48 0 0 1 4.008.55L34.4 7.231a14.75 14.75 0 0 0-3.72-.533c-2.551 0-3.992 1.186-3.992 3.648 0 2.699 1.562 4.152 3.781 4.152.437.007.873-.052 1.291-.176V10.83h3.507v4.063c0 .918.032 1.69.032 1.69a14.535 14.535 0 0 1-4.637.833" fill="#241916"/><mask id="h" fill="#fff"><use xlink:href="#g"/></mask><path fill="#241916" mask="url(#h)" d="M37.588 17.237h3.51V4.036h-3.51zM49.767 6.7c-2.14 0-3.36 1.541-3.36 3.619 0 2.282 1.32 4.233 3.449 4.233h.121c2.251 0 3.421-1.81 3.421-4.032 0-2.286-1.352-3.828-3.631-3.828m.028 10.725c-4.166 0-7.016-2.76-7.016-6.915 0-4.092 2.907-6.642 7.227-6.642 4.23 0 6.992 2.55 6.992 6.494 0 4.212-2.854 7.055-7.203 7.055M58.678 4.036h3.899l5.608 8.1v-8.1h3.331v13.2h-3.96L62.035 9.17v8.068h-3.356zM37.617 35.214c-1.315 0-2.62-.21-3.867-.62l-.093-2.851c1.224.394 2.495.624 3.781.685 1.32 0 1.68-.565 1.68-1.13 0-.444-.181-.828-1.26-1.276l-.78-.325c-2.76-.98-3.328-2.403-3.3-3.916.029-2.078 1.53-4.152 5.159-4.152a12.31 12.31 0 0 1 3.42.473l-.27 2.67a11.296 11.296 0 0 0-2.818-.416c-1.381 0-1.784.505-1.784 1.058 0 .476.21.861 1.648 1.394l.78.296c2.552.92 3.09 2.314 3.09 3.767-.028 1.842-1.198 4.333-5.4 4.333M50.726 35.246c-4.23 0-5.968-2.116-5.968-6.35v-7.03h3.496v7.178c0 2.117.75 3.264 2.854 3.264 1.784 0 2.43-1.098 2.43-3.115v-7.328h3.331v7.003c-.032 4.092-2.012 6.378-6.121 6.378M63.804 24.684c-.57 0-.87 0-1.291.028v7.476c.481.031.959.031 1.53.031 2.429 0 3.838-1.277 3.838-3.62.033-2.698-1.783-3.915-4.077-3.915m.332 10.382c-1.68 0-2.854 0-5.07-.028V21.837h4.528c4.469 0 7.886 2.195 7.886 6.466 0 4.509-2.879 6.763-7.348 6.763M111.562 3.8h1.68c1.68 0 3.061.86 3.061 2.47 0 1.607-1.23 2.49-2.7 2.49a3.504 3.504 0 0 1-.57-.029v-.705l.448.028c1.052 0 1.89-.653 1.89-1.718 0-1.19-.93-1.764-2.25-1.764h-.656v7.091h-.9V3.799h-.003ZM119.203 4.58h-.66v3.234s.66.028 1.32.028a1.553 1.553 0 0 0 1.652-1.63c-.032-1.185-.992-1.633-2.312-1.633m1.87 5.419-.903-1.482h-1.677v3.143h-.902V3.8h1.74c1.784 0 3.061.77 3.061 2.314.041.916-.498 1.76-1.352 2.118l.81 1.304c.752 1.186 1.142 1.394 1.801 1.483l-.089.652c-1.17 0-1.62-.176-2.497-1.662M128.16 4.48c-1.66-.076-3.07 1.193-3.147 2.836a2.85 2.85 0 0 0-.003.22c0 1.957 1.263 3.47 3.09 3.47h.093c2.04 0 3.239-1.333 3.239-3.263s-1.26-3.263-3.271-3.263m-.04 7.338c-2.368 0-4.048-1.764-4.048-4.152 0-2.343 1.783-3.944 4.17-3.944 2.497 0 4.138 1.601 4.138 3.944 0 2.47-1.71 4.152-4.26 4.152M135.741 11.691l-3-7.891h.988l2.55 6.97 2.49-6.97h.932l-2.911 7.86zM140.571 11.66V3.8h4.17v.769h-3.3v2.73h3.058v.741h-3.057v2.878h3.566l-.089.741zM146.628 3.8h.96l4.862 6.526V3.799h.838v7.86h-.93l-4.888-6.554v6.554h-.842zM158.96 11.78c-2.61 0-4.32-1.543-4.32-4.005 0-2.554 1.68-4.063 4.32-4.063a6.49 6.49 0 0 1 2.498.472l-.093.8a6.73 6.73 0 0 0-2.458-.503c-2.162 0-3.36 1.216-3.36 3.234 0 1.764 1.198 3.264 3.477 3.264a6.41 6.41 0 0 0 2.7-.625l-.06.833c-.842.397-1.764.6-2.697.592M163.309 11.66V3.8h4.199v.769h-3.3v2.73h3.028v.741h-3.029v2.878h3.54l-.058.741zM112.943 20.056h2.79l-1.428-3.856-1.348 3.856h-.014Zm3.06.74h-3.3l-.841 2.346h-.931l2.882-7.863.96-.028 3.09 7.856h-.96l-.9-2.314v.004ZM119.032 23.142V15.28h.87v7.09h3.54l-.062.773zM124.761 15.279h1.68c1.68 0 3.061.86 3.061 2.47 0 1.608-1.23 2.49-2.7 2.49a3.504 3.504 0 0 1-.571-.028v-.706l.45.032c1.051 0 1.89-.653 1.89-1.721 0-1.186-.931-1.764-2.251-1.764h-.656v7.09h-.9V15.28h-.003ZM130.85 23.142V15.28h4.17v.772h-3.3v2.727h3.061v.745h-3.06v2.847h3.57l-.089.772zM138.53 23.259a5.209 5.209 0 0 1-2.068-.385l-.033-.832a5.757 5.757 0 0 0 2.141.387c1.352 0 1.783-.684 1.783-1.364 0-.565-.206-1.01-1.287-1.486l-.66-.296c-1.291-.56-1.709-1.185-1.709-2.117 0-1.125.867-2.046 2.64-2.046a5.628 5.628 0 0 1 1.737.268l-.06.801a5.862 5.862 0 0 0-1.649-.296c-1.23 0-1.708.504-1.708 1.185 0 .565.238.949 1.32 1.411l.66.296c1.32.565 1.708 1.274 1.708 2.167 0 1.125-.78 2.282-2.79 2.282M115.493 35.102c-2.61 0-4.32-1.542-4.32-4.005 0-2.55 1.68-4.063 4.32-4.063a6.48 6.48 0 0 1 2.498.476l-.093.8a6.743 6.743 0 0 0-2.458-.504c-2.162 0-3.36 1.217-3.36 3.231 0 1.782 1.198 3.264 3.477 3.264a6.388 6.388 0 0 0 2.701-.62l-.06.828c-.843.398-1.765.6-2.698.593M123.138 25.305l-1.56 1.188-.449-.476 2.098-1.57 1.98 1.57-.539.505-1.53-1.217Zm.089 2.494c-1.66-.077-3.07 1.193-3.148 2.836a2.83 2.83 0 0 0-.002.219c0 1.958 1.26 3.471 3.09 3.471h.092c2.037 0 3.24-1.337 3.24-3.263s-1.26-3.263-3.272-3.263Zm-.06 7.327c-2.369 0-4.05-1.764-4.05-4.152 0-2.346 1.784-3.947 4.17-3.947 2.498 0 4.139 1.601 4.139 3.947.032 2.47-1.677 4.152-4.26 4.152ZM131.24 27.887v7.12h-.9v-7.12h-2.608v-.74h6.15l-.06.74zM134.931 35.006v-7.86h4.17v.74h-3.3v2.732h3.058v.74h-3.057v2.88h3.567l-.09.768zM145.194 27.887h-1.562v6.35c.631 0 1.113.028 1.83.028 2.162 0 3.51-1.185 3.51-3.235 0-2.222-1.71-3.143-3.778-3.143m.207 7.12c-.902 0-1.74 0-2.64-.029v-7.864h2.522c2.519 0 4.62 1.218 4.62 3.8 0 2.639-1.802 4.093-4.499 4.093M150.92 29.669l-.539-.329c.6-.624.778-1.125.778-1.481a1.054 1.054 0 0 0-.39-.8.635.635 0 0 1 .54-.353c.481 0 .748.472.748.949 0 .352-.089.977-1.137 2.017M153.41 31.926h2.79l-1.428-3.859-1.362 3.86Zm3.06.706h-3.3l-.841 2.346h-.932l2.883-7.863.96-.029 3.089 7.86h-.96l-.898-2.314ZM158.867 35.006v-.712l4.32-6.379H158.9v-.769h5.458v.621l-4.409 6.439h4.83l-.089.8zM169.098 35.126c-2.218 0-3.15-1.157-3.15-3.528v-4.451h.9v4.3c0 1.81.542 2.879 2.34 2.879 1.651 0 2.25-1.038 2.25-2.791v-4.42h.839v4.628c0 2.078-1.02 3.383-3.179 3.383M175.523 27.898h-.631v3.235s.66.028 1.32.028a1.553 1.553 0 0 0 1.648-1.63c-.03-1.157-.989-1.633-2.309-1.633m1.887 5.418-.902-1.485h-1.68v3.175h-.899v-7.86h1.74c1.784 0 3.061.77 3.061 2.315.041.915-.498 1.76-1.352 2.116l.81 1.306c.75 1.185 1.142 1.393 1.784 1.481l-.09.653c-1.202 0-1.622-.208-2.497-1.69"/><path fill="#F6B40D" mask="url(#h)" d="M21.15 3.087H13.2L21.15.773z"/><path d="m95.784 6.735.268.088c.286-.077.576-.136.87-.177a.94.94 0 0 1 .781.706c.06-.416-.028-.504-.15-.624l-.449-.209.328-.056a1.528 1.528 0 0 0-.838 0c-.188.074-.37.162-.542.265h-.268" fill="#E20718" mask="url(#h)"/><path d="m95.784 6.735.268.088c.286-.077.576-.136.87-.177a.94.94 0 0 1 .781.706c.06-.416-.028-.504-.15-.624l-.449-.209.328-.056a1.528 1.528 0 0 0-.838 0c-.188.074-.37.162-.542.265l-.268.007Z" stroke="#241916" stroke-width=".07" stroke-linejoin="round" mask="url(#h)"/></g></g></svg>