<svg width="133" height="68" xmlns="http://www.w3.org/2000/svg" xmlns:xlink="http://www.w3.org/1999/xlink"><defs><path id="a" d="M0 0h17v23H0z"/><path id="c" d="M0 23h117V0H0z"/></defs><g transform="translate(11 23)" fill="none" fill-rule="evenodd"><g transform="translate(100)"><mask id="b" fill="#fff"><use xlink:href="#a"/></mask><path d="M3.394 0C6.159 3.072 7.739 6.694 9.27 10.803c3.044-2.153 5.206-4.895 7.647-7.444C17.933 11.356 9.365 20.145 0 23 4.391 15.73 4.034 7.915 3.394 0" fill="#E53630" mask="url(#b)"/></g><path d="M1.924 18.7A6.198 6.198 0 0 1 0 17.89l.85-1.684a6.096 6.096 0 0 0 1.654.728 6.891 6.891 0 0 0 1.917.277c.71 0 1.235-.095 1.576-.284a.843.843 0 0 0 .51-.753.696.696 0 0 0-.3-.572 2.392 2.392 0 0 0-.765-.364 15.75 15.75 0 0 0-1.278-.303 19.283 19.283 0 0 1-2.024-.525 3.313 3.313 0 0 1-1.36-.851 2.13 2.13 0 0 1-.564-1.549 2.483 2.483 0 0 1 .511-1.526 3.412 3.412 0 0 1 1.537-1.082 6.942 6.942 0 0 1 2.514-.4c.68-.002 1.36.072 2.024.22.604.127 1.187.34 1.73.634l-.773 1.698a6.595 6.595 0 0 0-2.998-.76c-.702 0-1.22.102-1.554.306a.908.908 0 0 0-.502.8c0 .331.194.578.58.73a9.92 9.92 0 0 0 1.769.484c.684.138 1.36.313 2.026.525.51.164.973.448 1.353.827.39.412.593.967.564 1.534a2.45 2.45 0 0 1-.518 1.511c-.406.501-.945.877-1.554 1.086a7.026 7.026 0 0 1-2.519.4 9.91 9.91 0 0 1-2.482-.299M19 17.142V19h-8V9h7.808v1.858h-5.434v2.173h4.798v1.8h-4.798v2.314zM27.667 15.1l-1.696-3.826-1.695 3.828 3.391-.003Zm.778 1.756h-4.963L22.525 19H20l4.764-10h2.446L32 19h-2.606l-.949-2.144ZM35.452 10.858V13.5h4.899v1.854h-4.9V19H33V9h8v1.858zM49.76 16.7c.504-.248.929-.627 1.229-1.098a3.107 3.107 0 0 0 0-3.205 3.04 3.04 0 0 0-1.23-1.1 4.11 4.11 0 0 0-3.51 0c-.504.247-.93.628-1.228 1.1a3.096 3.096 0 0 0 0 3.205c.299.471.725.851 1.229 1.098a4.087 4.087 0 0 0 3.51 0Zm-4.835 1.651a5.235 5.235 0 0 1-2.148-1.79 4.616 4.616 0 0 1 0-5.125 5.23 5.23 0 0 1 2.148-1.79 7.624 7.624 0 0 1 6.145 0 5.284 5.284 0 0 1 2.146 1.79 4.58 4.58 0 0 1 0 5.126 5.293 5.293 0 0 1-2.146 1.789 7.598 7.598 0 0 1-6.145 0ZM62.757 16.7c.505-.247.93-.627 1.23-1.098a3.093 3.093 0 0 0 0-3.205 3.018 3.018 0 0 0-1.23-1.1 4.11 4.11 0 0 0-3.51 0 3.04 3.04 0 0 0-1.229 1.1 3.11 3.11 0 0 0 0 3.205c.3.47.725.85 1.23 1.098a4.087 4.087 0 0 0 3.51 0Zm-4.835 1.651a5.248 5.248 0 0 1-2.148-1.79 4.628 4.628 0 0 1 0-5.125 5.243 5.243 0 0 1 2.148-1.79 7.624 7.624 0 0 1 6.146 0 5.318 5.318 0 0 1 2.148 1.79 4.58 4.58 0 0 1 0 5.126 5.318 5.318 0 0 1-2.148 1.789 7.598 7.598 0 0 1-6.146 0ZM73.844 17.089c1.094 0 1.966-.278 2.618-.835a3.11 3.11 0 0 0 0-4.511c-.654-.556-1.526-.834-2.618-.834h-2.313v6.19l2.313-.01ZM69 9.002h4.97a7.554 7.554 0 0 1 3.148.618 4.954 4.954 0 0 1 2.125 1.755 4.925 4.925 0 0 1 0 5.248 4.95 4.95 0 0 1-2.125 1.754A7.546 7.546 0 0 1 73.97 19H69V9.002Z" fill="#2D3F75"/><mask id="d" fill="#fff"><use xlink:href="#c"/></mask><path fill="#2D3F75" mask="url(#d)" d="M82 19h3V9h-3zM93.663 15.1l-1.694-3.826-1.694 3.828 3.388-.003Zm.778 1.756H89.48L88.523 19H86l4.772-10h2.441L98 19h-2.614l-.945-2.144Z"/></g></svg>