<svg width="110" height="89" xmlns="http://www.w3.org/2000/svg" xmlns:xlink="http://www.w3.org/1999/xlink"><defs><path id="a" d="M0 0h8.394v11.752H0z"/><path id="c" d="M0 0h4.95v11.798H0z"/><path id="e" d="M0 0h2.558v3.937H0z"/><path id="g" d="M0 44.755h82.264V0H0z"/></defs><g transform="translate(13 22)" fill="none" fill-rule="evenodd"><path d="M53.791 17.17h4.06c.202 0 .404 0 .605-.013a2.84 2.84 0 0 0 2.588-2.86 2.806 2.806 0 0 0-2.503-2.819 13.426 13.426 0 0 0-2.32 0 2.674 2.674 0 0 0-2.41 2.451c-.067 1.046-.02 2.086-.02 3.241m-28.86-2.389h5.972c.33.336.2.73.201 1.083.011 2.128 0 4.257 0 6.385.011 2.29 1.56 3.888 3.758 3.903 2.197.016 3.79-1.529 3.818-3.833.04-2.675.033-5.338 0-8.006-.02-1.819-1.115-2.858-2.947-2.862-4.22-.01-8.443-.01-12.666 0-1.275 0-1.483.205-1.483 1.462v10.03c-.013 5.427-4.052 9.465-9.49 9.46-1.616 0-3.24.164-4.845-.204a9.21 9.21 0 0 1-7.235-8.973c-.027-6.116 0-12.23 0-18.344 0-.29-.089-.61.183-.858.381-.1.628.183.91.344 1.468.83 2.912 1.705 4.4 2.5.594.317.77.705.765 1.36-.029 4.763-.017 9.526-.015 14.29 0 2.518 1.114 3.63 3.655 3.634.742 0 1.487.014 2.23 0 1.925-.042 3.16-1.259 3.168-3.192.02-4.29 0-8.58 0-12.869 0-3.076 1.835-4.903 4.92-4.903h15.505c5.35 0 9.19 3.84 9.225 9.185v2.748c.81.076 1.623.08 2.432.011.161-.85.07-1.692.076-2.525.038-5.572 3.89-9.406 9.448-9.426 1.593 0 3.167.03 4.68.642a9.201 9.201 0 0 1 5.555 10.284 9.026 9.026 0 0 1-8.833 7.33c-1.482.014-2.967 0-4.458 0 .063 1.487 1.115 2.675 2.61 2.762 1.43.082 2.915.323 4.26-.479a.61.61 0 0 1 .668 0 2693.5 2693.5 0 0 1 5.057 2.971c.05.03.065.113.141.258a8.5 8.5 0 0 1-5.116 3.297c-2.22.476-4.518.48-6.742.013-4-.849-6.85-4.179-7.235-8.247-.015-.162.034-.34-.158-.523h-2.378c-.477 3.27-2.044 5.844-4.89 7.54-2.846 1.696-5.813 1.767-9.027.71v12.193c-.4.19-.59 0-.782-.107-1.61-.92-3.216-1.857-4.828-2.775-.372-.212-.615-.426-.615-.928.018-8.309.024-16.618.018-24.929.018-.139.047-.277.087-.412" fill="#164286"/><g transform="translate(73.87 .158)"><mask id="b" fill="#fff"><use xlink:href="#a"/></mask><path d="M5.604 4.694a.313.313 0 0 0 .11.085c2.097.668 2.752 1.513 2.674 3.461-.072 1.741-1.199 3.047-3.056 3.392-1.654.308-3.229.038-4.616-.985-.746-.55-.909-1.217-.49-1.821.446-.653 1.132-.722 1.93-.136a3.707 3.707 0 0 0 2.053.767c.918.042 1.605-.49 1.691-1.259.087-.769-.445-1.382-1.406-1.538-.363-.058-.74-.04-1.114-.069-.502-.036-.92-.223-1.115-.725a1.115 1.115 0 0 1 .33-1.288c.747-.715 1.518-1.409 2.28-2.108l-.167-.268H1.724C.848 2.191.311 1.756.32 1.088.33.419.87.007 1.753 0h5.063c.61 0 1.171.105 1.436.724.265.62 0 1.115-.404 1.561-.73.809-1.47 1.582-2.244 2.409" fill="#15AED2" mask="url(#b)"/></g><g transform="translate(67.373)"><mask id="d" fill="#fff"><use xlink:href="#c"/></mask><path d="M2.443 2.612a8.844 8.844 0 0 1-1.204.26 1.052 1.052 0 0 1-1.174-.757C-.115 1.529.078 1 .662.778A11.398 11.398 0 0 1 3.488.01c.854-.094 1.436.417 1.442 1.302.027 3.037.023 6.075 0 9.113 0 .865-.552 1.398-1.29 1.37-.738-.026-1.19-.561-1.197-1.463-.01-2.363 0-4.725 0-7.088v-.633Z" fill="#15AED2" mask="url(#d)"/></g><path d="M53.791 17.17c0-1.155-.047-2.195.011-3.23a2.674 2.674 0 0 1 2.41-2.45 13.414 13.414 0 0 1 2.32 0 2.806 2.806 0 0 1 2.512 2.818 2.84 2.84 0 0 1-2.588 2.86c-.2.018-.403.013-.606.013l-4.059-.01Z" fill="#FDFDFE"/><path fill="#164286" d="M35.065 42.94h1.943v.338h-2.312V39.65h2.25v.338h-1.88v1.236h1.757v.338h-1.758zM37.936 40.88c.007.064.01.128.013.191.002.064.002.128.002.193h.01a.781.781 0 0 1 .144-.18.952.952 0 0 1 .195-.14c.072-.04.148-.07.228-.093a.9.9 0 0 1 .239-.033c.307 0 .534.081.68.243.148.162.222.394.222.695v1.522h-.34v-1.327c0-.267-.045-.47-.137-.613-.092-.142-.263-.213-.513-.213a1.25 1.25 0 0 0-.143.021.618.618 0 0 0-.25.112.818.818 0 0 0-.232.277c-.068.123-.103.294-.103.513v1.23h-.338v-1.87a10.102 10.102 0 0 0-.026-.528h.349ZM41.704 41.187h-.692v1.415c0 .09.008.161.026.218a.32.32 0 0 0 .07.131c.032.03.069.052.112.064a.554.554 0 0 0 .14.018.794.794 0 0 0 .348-.093l.017.313a1.093 1.093 0 0 1-.66.061.476.476 0 0 1-.192-.097.532.532 0 0 1-.143-.195.774.774 0 0 1-.056-.323v-1.512h-.508v-.308h.508v-.676h.338v.676h.692v.308ZM42.2 41.628c0-.106-.002-.214-.008-.323a15.483 15.483 0 0 1-.011-.426h.333v.446h.01a.78.78 0 0 1 .483-.463.844.844 0 0 1 .285-.044c.096 0 .18.01.252.031l-.066.333a.575.575 0 0 0-.196-.026.688.688 0 0 0-.563.264.825.825 0 0 0-.18.505v1.354H42.2v-1.651ZM45.64 41.895a.766.766 0 0 0-.205-.556c-.137-.142-.328-.213-.574-.213a.817.817 0 0 0-.318.064.865.865 0 0 0-.454.418.635.635 0 0 0-.07.286h1.62Zm-1.63.276c.01.12.039.233.087.339a.89.89 0 0 0 .462.456.815.815 0 0 0 .333.066.854.854 0 0 0 .469-.125.946.946 0 0 0 .3-.29l.26.216a1.307 1.307 0 0 1-.473.39 1.336 1.336 0 0 1-.556.117 1.28 1.28 0 0 1-.495-.095 1.163 1.163 0 0 1-.392-.264 1.237 1.237 0 0 1-.26-.4 1.312 1.312 0 0 1-.094-.502c0-.181.03-.349.092-.502a1.18 1.18 0 0 1 1.118-.759c.18 0 .343.032.487.098a1.077 1.077 0 0 1 .584.638c.05.145.077.3.077.463v.154h-2Z"/><g transform="translate(46.624 40.818)"><mask id="f" fill="#fff"><use xlink:href="#e"/></mask><path d="M2.189 1.261c0-.133-.021-.258-.064-.374a.859.859 0 0 0-.467-.505.905.905 0 0 0-.376-.074.961.961 0 0 0-.687.276.91.91 0 0 0-.2.303.97.97 0 0 0-.072.374.97.97 0 0 0 .072.374.92.92 0 0 0 .502.505c.116.05.244.074.385.074.14 0 .265-.024.376-.074a.859.859 0 0 0 .467-.505c.043-.116.064-.241.064-.374ZM0 .061h.338v.4h.011a.865.865 0 0 1 .194-.21C.619.193.697.145.779.107A1.214 1.214 0 0 1 1.282 0c.187 0 .359.032.515.095a1.2 1.2 0 0 1 .666.664c.063.153.095.321.095.502s-.032.349-.095.502a1.202 1.202 0 0 1-.666.664 1.364 1.364 0 0 1-.764.069 1.208 1.208 0 0 1-.49-.225.865.865 0 0 1-.194-.21H.338v1.876H0V.061Z" fill="#164286" mask="url(#f)"/></g><path d="M49.794 41.628c0-.106-.002-.214-.008-.323a15.483 15.483 0 0 1-.012-.426h.333v.446h.01a.78.78 0 0 1 .484-.463.844.844 0 0 1 .285-.044c.096 0 .18.01.251.031l-.066.333a.575.575 0 0 0-.195-.026.688.688 0 0 0-.564.264.825.825 0 0 0-.18.505v1.354h-.338v-1.651ZM53.233 41.895a.766.766 0 0 0-.205-.556c-.137-.142-.328-.213-.574-.213a.817.817 0 0 0-.318.064.865.865 0 0 0-.454.418.635.635 0 0 0-.069.286h1.62Zm-1.63.276c.01.12.04.233.087.339a.89.89 0 0 0 .462.456.815.815 0 0 0 .333.066.854.854 0 0 0 .47-.125.946.946 0 0 0 .3-.29l.26.216a1.307 1.307 0 0 1-.474.39 1.336 1.336 0 0 1-.556.117 1.28 1.28 0 0 1-.495-.095 1.163 1.163 0 0 1-.392-.264 1.237 1.237 0 0 1-.259-.4 1.312 1.312 0 0 1-.095-.502c0-.181.031-.349.092-.502a1.18 1.18 0 0 1 1.118-.759c.181 0 .343.032.487.098a1.077 1.077 0 0 1 .584.638c.051.145.077.3.077.463v.154h-1.999ZM54.54 40.88c.008.064.012.128.014.191.002.064.002.128.002.193h.01a.781.781 0 0 1 .144-.18.952.952 0 0 1 .195-.14c.072-.04.148-.07.228-.093a.9.9 0 0 1 .239-.033c.307 0 .534.081.68.243.148.162.222.394.222.695v1.522h-.34v-1.327c0-.267-.045-.47-.137-.613-.092-.142-.263-.213-.513-.213a1.25 1.25 0 0 0-.143.021.618.618 0 0 0-.25.112.818.818 0 0 0-.232.277c-.068.123-.103.294-.103.513v1.23h-.338v-1.87a10.102 10.102 0 0 0-.026-.528h.349ZM57.273 42.08c0 .132.02.257.064.373a.854.854 0 0 0 .466.505.91.91 0 0 0 .377.074.967.967 0 0 0 .687-.276.92.92 0 0 0 .2-.303.97.97 0 0 0 .072-.374.97.97 0 0 0-.072-.374.91.91 0 0 0-.505-.505.967.967 0 0 0-.382-.074.91.91 0 0 0-.377.074.854.854 0 0 0-.466.505 1.069 1.069 0 0 0-.064.374Zm2.189 1.198h-.338v-.399h-.011a.865.865 0 0 1-.194.21 1.208 1.208 0 0 1-.49.225 1.36 1.36 0 0 1-.764-.069 1.2 1.2 0 0 1-.666-.664 1.29 1.29 0 0 1-.095-.502c0-.18.03-.349.095-.502a1.202 1.202 0 0 1 .666-.664 1.36 1.36 0 0 1 .764-.07c.087.018.172.045.254.082.082.038.16.086.236.144.075.058.14.128.194.21h.01v-1.876h.339v3.875ZM60.236 41.628c0-.106-.002-.214-.008-.323a15.483 15.483 0 0 1-.012-.426h.333v.446h.01a.78.78 0 0 1 .484-.463.844.844 0 0 1 .285-.044c.096 0 .18.01.251.031l-.066.333a.575.575 0 0 0-.195-.026.688.688 0 0 0-.564.264.825.825 0 0 0-.18.505v1.354h-.338v-1.651ZM63.675 41.895a.766.766 0 0 0-.205-.556c-.137-.142-.328-.213-.574-.213a.817.817 0 0 0-.318.064.865.865 0 0 0-.454.418.635.635 0 0 0-.069.286h1.62Zm-1.63.276c.01.12.04.233.087.339a.89.89 0 0 0 .462.456.815.815 0 0 0 .333.066.854.854 0 0 0 .47-.125.946.946 0 0 0 .3-.29l.26.216a1.307 1.307 0 0 1-.474.39 1.336 1.336 0 0 1-.556.117 1.28 1.28 0 0 1-.495-.095 1.163 1.163 0 0 1-.392-.264 1.237 1.237 0 0 1-.259-.4 1.312 1.312 0 0 1-.095-.502c0-.181.031-.349.092-.502a1.18 1.18 0 0 1 1.118-.759c.181 0 .343.032.487.098a1.077 1.077 0 0 1 .584.638c.051.145.077.3.077.463v.154h-1.999Z" fill="#164286"/><mask id="h" fill="#fff"><use xlink:href="#g"/></mask><path fill="#164286" mask="url(#h)" d="M66.162 43.279h.338v-3.875h-.338zM67.571 40.854h-.338l.343-1.205h.415zM70.011 42.084a4.67 4.67 0 0 0-.32.013 1.835 1.835 0 0 0-.369.061.83.83 0 0 0-.303.151.345.345 0 0 0-.125.282c0 .08.016.147.048.203a.412.412 0 0 0 .131.138.546.546 0 0 0 .182.077.866.866 0 0 0 .203.023c.122 0 .23-.02.32-.06a.658.658 0 0 0 .364-.413c.03-.095.043-.195.043-.3v-.175h-.174Zm.174-.277v-.06c0-.415-.205-.622-.615-.622-.28 0-.524.094-.733.282l-.205-.24c.226-.233.564-.349 1.015-.349.116 0 .228.017.336.051a.748.748 0 0 1 .47.42.917.917 0 0 1 .071.38v1.071c0 .092.004.19.013.29.008.101.017.184.028.248h-.328a2.29 2.29 0 0 1-.031-.389h-.01a.92.92 0 0 1-.35.346c-.137.07-.3.105-.496.105-.106 0-.209-.015-.308-.044a.782.782 0 0 1-.264-.133.645.645 0 0 1-.254-.525c0-.195.051-.348.152-.459a.923.923 0 0 1 .38-.249c.151-.054.314-.089.486-.102.172-.014.331-.02.474-.02h.17ZM72.364 43.279h-.379l-.974-2.4h.4l.768 2.02h.011l.763-2.02h.385zM75.645 41.895a.766.766 0 0 0-.205-.556c-.137-.142-.328-.213-.574-.213a.817.817 0 0 0-.318.064.865.865 0 0 0-.454.418.635.635 0 0 0-.069.286h1.62Zm-1.63.276c.01.12.04.233.087.339a.89.89 0 0 0 .462.456.815.815 0 0 0 .333.066.854.854 0 0 0 .47-.125.946.946 0 0 0 .3-.29l.26.216a1.307 1.307 0 0 1-.474.39 1.336 1.336 0 0 1-.556.117 1.28 1.28 0 0 1-.495-.095 1.163 1.163 0 0 1-.392-.264 1.237 1.237 0 0 1-.259-.4 1.312 1.312 0 0 1-.095-.502c0-.181.031-.349.092-.502a1.18 1.18 0 0 1 1.118-.759c.181 0 .343.032.487.098a1.077 1.077 0 0 1 .584.638c.051.145.077.3.077.463v.154h-1.999ZM76.952 40.88c.007.064.011.128.013.191.002.064.002.128.002.193h.011a.781.781 0 0 1 .143-.18.952.952 0 0 1 .195-.14c.072-.04.148-.07.228-.093a.9.9 0 0 1 .24-.033c.306 0 .533.081.68.243.147.162.221.394.221.695v1.522h-.339v-1.327c0-.267-.046-.47-.138-.613-.092-.142-.263-.213-.513-.213a1.25 1.25 0 0 0-.143.021.618.618 0 0 0-.249.112.818.818 0 0 0-.233.277c-.068.123-.103.294-.103.513v1.23h-.338v-1.87a10.102 10.102 0 0 0-.026-.528h.35ZM79.557 43.279h.338V40.88h-.338v2.399Zm.415-3.322c0 .071-.026.13-.077.177a.248.248 0 0 1-.169.069.246.246 0 0 1-.169-.069.228.228 0 0 1-.077-.177c0-.072.025-.131.077-.177a.246.246 0 0 1 .169-.069c.061 0 .118.023.169.069a.228.228 0 0 1 .077.177ZM80.746 41.628c0-.106-.002-.214-.008-.323a15.483 15.483 0 0 1-.012-.426h.333v.446h.01a.78.78 0 0 1 .484-.463.844.844 0 0 1 .285-.044c.096 0 .179.01.25.031l-.065.333a.575.575 0 0 0-.195-.026.688.688 0 0 0-.564.264.825.825 0 0 0-.18.505v1.354h-.338v-1.651Z"/></g></svg>