<svg width="159" height="52" xmlns="http://www.w3.org/2000/svg" xmlns:xlink="http://www.w3.org/1999/xlink"><defs><path id="a" d="M0 0h18v35H0z"/><path id="c" d="M0 0h18v35H0z"/></defs><g fill="none" fill-rule="evenodd"><path d="m77.515 13.095.246 1.864.019.193-.02.079a.14.14 0 0 1-.116.075c-.062 0-.153-.11-.272-.328-.957-1.689-2.251-2.534-3.882-2.536-1.295 0-2.321.406-3.08 1.217-.76.811-1.134 1.92-1.123 3.324 0 1.614.414 2.952 1.249 3.963a3.964 3.964 0 0 0 3.216 1.54 4.583 4.583 0 0 0 2.265-.624 3.536 3.536 0 0 0 1.537-1.51c.132-.275.236-.417.323-.42.088-.003.123.043.123.148v.082l-.032.174-.22.961-.032.141c-.02.135-.14.276-.36.42A7.003 7.003 0 0 1 73.474 23c-1.64 0-2.962-.493-3.967-1.48-1.005-.986-1.507-2.287-1.505-3.9a5.525 5.525 0 0 1 1.56-4.017 5.225 5.225 0 0 1 3.912-1.6 6.08 6.08 0 0 1 2.963.734l.324.165.12.052.129.05a.247.247 0 0 0 .117-.063.541.541 0 0 1 .23-.129c.067-.013.132.086.158.283M83.062 12.502a3.533 3.533 0 0 0-2.817 1.21c-.698.811-1.047 1.905-1.045 3.28a5.978 5.978 0 0 0 1.336 3.959 4.092 4.092 0 0 0 3.286 1.6 3.724 3.724 0 0 0 2.927-1.312 4.857 4.857 0 0 0 1.154-3.326 5.577 5.577 0 0 0-1.384-3.863 4.43 4.43 0 0 0-3.457-1.548Zm.491-.498a5.37 5.37 0 0 1 3.923 1.499 5.134 5.134 0 0 1 1.52 3.837 5.594 5.594 0 0 1-1.545 4.066 5.262 5.262 0 0 1-3.946 1.59c-1.65 0-2.976-.508-3.994-1.517C78.492 20.469 78 19.137 78 17.497a5.822 5.822 0 0 1 .405-2.122 5.122 5.122 0 0 1 1.077-1.755 5.083 5.083 0 0 1 1.82-1.18 6.032 6.032 0 0 1 2.251-.436ZM99.32 15.675c-.41.711-.681 1.21-.818 1.48l-.639 1.365-.739 1.498c-.037.088-.237.533-.609 1.345-.149.332-.276.605-.386.823-.067.124-.106.218-.13.27-.098.223-.195.335-.305.335-.11 0-.225-.118-.331-.35a11.576 11.576 0 0 0-.201-.394l-.143-.303-2.698-5.8-.168 3.542c0 .287-.02.872-.02 1.743 0 .872.303 1.305.893 1.396.305.045.438.115.438.212 0 .096-.07.163-.206.163-.09 0-.18-.005-.268-.018-.532-.046-.949-.07-1.238-.07a7.59 7.59 0 0 0-1.004.064c-.074.013-.15.022-.225.024-.143 0-.213-.051-.213-.157 0-.106.055-.128.173-.152.304-.048.57-.227.73-.487.173-.392.26-.816.253-1.244l.106-2.077c.071-1.503.107-2.454.107-2.851a4.042 4.042 0 0 0-.338-1.886 1.521 1.521 0 0 0-1.125-.757c-.143-.024-.216-.082-.216-.172 0-.091.06-.155.18-.155h.237c.162.013.324.018.486.015.393 0 .64 0 .745-.015.088-.014.176-.021.265-.024.207 0 .377.152.514.451l.08.163 2.999 6.43.365.739c.051.124.091.184.115.184.025 0 .064-.045.107-.133l.085-.194.067-.145 3.37-7.198c.043-.101.097-.197.161-.285a.277.277 0 0 1 .189-.048c.036 0 .146 0 .304.03h.237c.305 0 .542 0 .724-.024h.21c.095 0 .146.04.146.136a.167.167 0 0 1-.146.17l-.304.078a.696.696 0 0 0-.511.445 3.448 3.448 0 0 0-.149 1.187l.046 1.725.13 3.89.037.908c-.025.276.046.551.2.781.202.183.461.29.734.303.252.036.377.1.377.188 0 .087-.085.139-.262.139h-.182l-.557-.06a5.28 5.28 0 0 0-.608-.028c-.15 0-.38 0-.7.027-.496.024-.782.04-.86.04-.138 0-.208-.046-.208-.127 0-.082.061-.13.183-.161a.88.88 0 0 0 .563-.373c.118-.287.168-.598.146-.907l-.03-1.166-.165-4.528ZM105.412 14.237v6.701l.021.61c.053.58.271.913.66 1.016.198.06.401.095.607.107.146 0 .22.043.227.125.006.083-.078.183-.255.183-.084 0-.249 0-.492-.027-.155 0-.413-.015-.765-.015h-1.096a5.61 5.61 0 0 0-.653.027c-.138.02-.277.032-.417.036-.128 0-.19-.048-.19-.14 0-.091.08-.146.243-.17a.928.928 0 0 0 .781-.631 6.262 6.262 0 0 0 .209-1.97V15.72c0-1.008-.06-1.645-.184-1.91-.124-.265-.426-.424-.915-.478-.134 0-.199-.058-.193-.146.007-.089.1-.165.286-.165.127.004.253.014.377.034.253.037.51.058.766.064.31 0 .765-.028 1.365-.083a9.88 9.88 0 0 1 .757-.033 4.04 4.04 0 0 1 2.49.722c.617.437.975 1.143.958 1.888a2.557 2.557 0 0 1-1.173 2.22 3.254 3.254 0 0 1-1.867.61 3.358 3.358 0 0 1-.85-.101c-.258-.067-.383-.14-.37-.213.012-.073.055-.089.136-.089.05.004.1.01.15.022.178.041.361.059.545.052a2.455 2.455 0 0 0 1.692-.57c.426-.393.653-.95.623-1.522a2.284 2.284 0 0 0-.838-1.804 3.187 3.187 0 0 0-2.125-.713.576.576 0 0 0-.405.11.57.57 0 0 0-.108.411l.003.21ZM114.61 17.64l-1.188-3.04-.065-.163c-.06-.16-.125-.248-.196-.251-.07-.004-.074.042-.122.147l-1.478 3.323a.88.88 0 0 0-.1.284c0 .134.12.199.35.199H114.306c.254 0 .382-.062.382-.192a.67.67 0 0 0-.038-.173l-.039-.134Zm-.09 1.24h-2.747a1.556 1.556 0 0 0-.7.094 1.695 1.695 0 0 0-.364.62l-.5 1.136a3.325 3.325 0 0 0-.342 1.157.66.66 0 0 0 .18.522c.208.15.449.245.701.281.148.03.228.091.231.183.004.09-.064.127-.209.127h-.256l-.727-.046c-.241 0-.52-.016-.839-.016h-.321l-.427.043c-.135 0-.2-.05-.2-.144a.155.155 0 0 1 .126-.166l.282-.086a1.1 1.1 0 0 0 .409-.374c.166-.21.308-.44.424-.682l.218-.51 3.898-8.787c.065-.154.142-.232.222-.232.08 0 .151.075.209.225l3.265 8.481.17.415c.127.419.325.811.585 1.161.284.205.617.328.963.359.158.03.235.094.229.193-.007.097-.077.127-.216.127-.041 0-.137 0-.285-.017a19.58 19.58 0 0 0-1.405-.032c-.44-.012-.88.003-1.317.042a1.55 1.55 0 0 1-.238.03c-.132 0-.196-.056-.196-.164 0-.107.06-.133.19-.16l.234-.051a.466.466 0 0 0 .38-.526 5.853 5.853 0 0 0-.463-1.631l-.376-1.018a1.37 1.37 0 0 0-.254-.489 1.096 1.096 0 0 0-.534-.065ZM127.136 20.2v-1.737a.825.825 0 0 0-.192-.64 1.361 1.361 0 0 0-.764-.216c-.189-.02-.286-.088-.289-.2-.003-.111.076-.144.243-.144H126.966c.74 0 1.17 0 1.29-.017.333-.029.525-.042.576-.042.113 0 .168.049.168.145 0 .094-.07.15-.216.19-.362.085-.6.457-.546.852v2.727l.016.25-.046.114a.407.407 0 0 1-.207.059 1.95 1.95 0 0 0-.61.282l-.474.299a5.593 5.593 0 0 1-3.011.875c-2.615.1-4.81-2.102-4.903-4.918a5.416 5.416 0 0 1 0-.37c-.042-1.513.484-2.979 1.459-4.068.947-1.078 2.275-1.674 3.653-1.64a6.842 6.842 0 0 1 1.8.263c.537.13 1.051.351 1.523.655a.165.165 0 0 0 .259 0l.17-.137a.162.162 0 0 1 .103-.046c.086 0 .128.121.128.364.006.175.02.35.043.524l.073.728c.023.196.057.391.1.584.021.073.033.15.034.226 0 .124-.043.187-.14.193-.098.007-.113-.039-.158-.131a4.71 4.71 0 0 0-1.727-2.01 4.415 4.415 0 0 0-2.466-.77c-1.031-.028-2.014.464-2.659 1.331-.687.885-1.026 2.033-1.026 3.432a5.978 5.978 0 0 0 1.203 3.796c.706.97 1.791 1.533 2.935 1.522 1.008.05 1.977-.421 2.607-1.27.178-.316.255-.687.22-1.055M139.026 15.834v6.013c.011.328-.002.658-.04.984-.004.098-.094.174-.2.169h-.014a.277.277 0 0 1-.179-.065l-.172-.186-6.587-6.912-.076-.079a.155.155 0 0 0-.112-.043c-.097 0-.15.107-.15.323v5.17l.027.51c0 .24.093.472.261.654.245.156.53.247.827.265.172.018.258.082.258.185 0 .104-.053.143-.162.143a2.18 2.18 0 0 1-.235-.015c-.06 0-.285-.024-.678-.046l-.797-.036h-.37a5.019 5.019 0 0 0-.579.03 2.351 2.351 0 0 1-.284.025c-.139 0-.212-.043-.218-.134-.007-.091.066-.128.218-.173.355-.088.666-.284.883-.557.182-.35.262-.738.231-1.125v-4.866a3.807 3.807 0 0 0-.43-1.955c-.239-.445-.704-.751-1.24-.815-.142-.018-.208-.073-.208-.164 0-.091.056-.134.169-.134h.456l.52.015h.413c.156.015.298.09.39.207l7.189 7.472c.112.122.181.179.214.173.034-.006.084-.048.09-.137v-4.516l-.093-1.645a1.28 1.28 0 0 0-.386-.866 2.448 2.448 0 0 0-1.115-.378c-.152-.021-.228-.082-.228-.173 0-.091.076-.134.224-.134.07 0 .183 0 .332.018.356.034.842.049 1.445.049.258.004.517-.01.773-.042.126-.026.255-.04.384-.043.135 0 .208.052.221.152.014.1-.05.107-.159.137a.955.955 0 0 0-.631.356c-.125.299-.175.62-.15.94v.775l-.032.474Z" fill="#020303"/><path d="M142.466 15.192v5.384a4.42 4.42 0 0 0 .124 1.328c.067.204.194.385.364.52.208.12.44.194.68.217.245.03.366.088.366.177 0 .088-.075.17-.227.17a2.277 2.277 0 0 1-.28-.024 6.59 6.59 0 0 0-.779-.031h-1.065l-.866.046c-.146 0-.261.021-.358.021-.096 0-.195-.048-.195-.15 0-.1.075-.136.227-.16a.937.937 0 0 0 .723-.378 2.81 2.81 0 0 0 .162-1.197v-6.17a2.349 2.349 0 0 0-.208-1.2c-.23-.25-.552-.399-.895-.417-.155-.027-.232-.085-.239-.17-.006-.086.069-.156.215-.156a.978.978 0 0 1 .133 0c.475.044.951.064 1.429.058.363 0 .673 0 .93-.021l.492-.037h.183c.133 0 .202.043.202.134 0 .092-.066.15-.193.192l-.385.143c-.36.146-.54.71-.54 1.72M147.532 14.24v2.883a.732.732 0 0 0 .064.399c.04.045.171.07.384.07h1.155c.415.007.83-.022 1.24-.088a.99.99 0 0 0 .524-.206c.118-.184.193-.39.216-.605.026-.118.092-.175.194-.169.101.006.149.067.149.19v.157c-.038.464-.06.884-.06 1.265-.002.288.014.576.047.862v.206c0 .118-.048.178-.146.178a.175.175 0 0 1-.193-.153v-.004l-.052-.2a.93.93 0 0 0-.351-.65 1.798 1.798 0 0 0-.917-.172h-1.65a1.12 1.12 0 0 0-.493.072.295.295 0 0 0-.12.285V21.43c0 .405.076.657.228.756.153.1.54.152 1.155.152 1.965 0 3.222-.421 3.78-1.262a.263.263 0 0 1 .168-.13c.098 0 .146.058.146.184a1.85 1.85 0 0 1-.549 1.102 2.108 2.108 0 0 1-1.663.768c-.149 0-.34 0-.587-.027a27.858 27.858 0 0 0-2.37-.127 14.005 14.005 0 0 0-1.85.084c-.13.026-.26.042-.391.049-.162 0-.241-.052-.241-.157 0-.107.063-.137.194-.167l.285-.079c.358-.096.54-.432.54-1.004v-6.516c0-.68-.08-1.14-.235-1.376a1.033 1.033 0 0 0-.914-.354c-.146 0-.219-.045-.219-.132 0-.088.114-.194.336-.194.169.003.337.015.505.036.856.086 1.716.125 2.577.118.61 0 1.145 0 1.618-.027l1.063-.051c.295 0 .476-.018.54-.028.098-.015.198-.024.298-.027.165 0 .247.067.247.206a.895.895 0 0 1-.019.163c-.03.188-.052.379-.063.569l-.025.42c-.011.173-.036.345-.077.514a.181.181 0 0 1-.17.113c-.1 0-.147-.067-.147-.215v-.188c0-.15-.03-.298-.089-.436a.79.79 0 0 0-.577-.426 7.639 7.639 0 0 0-1.587-.109h-1.174a1.04 1.04 0 0 0-.6.112.638.638 0 0 0-.124.496M76.478 29.253v3.156c.019.13.158.194.416.194h.86l.862-.015c.34.025.678-.044.979-.2a.936.936 0 0 0 .387-.676c.019-.113.071-.17.149-.17.077 0 .136.073.127.219l-.05.709v.436c0 .555 0 .91.028 1.061v.2c0 .113-.04.173-.133.173s-.167-.118-.223-.351a1.56 1.56 0 0 0-.19-.516.551.551 0 0 0-.34-.193 6.517 6.517 0 0 0-1.438-.122c-.378-.008-.756.004-1.133.036-.174.025-.27.08-.289.164-.029.143-.042.288-.036.434v2.661c-.019.331.092.656.31.91.208.229.51.352.823.337.164 0 .251.045.254.14.003.093-.061.16-.22.16-.105 0-.254 0-.443-.03a6.096 6.096 0 0 0-.718-.03H75.39c-.167 0-.333.009-.499.026l-.375.022c-.14 0-.21-.037-.21-.125 0-.087.074-.13.226-.163a.913.913 0 0 0 .635-.386c.137-.31.196-.65.17-.988v-6.458a2.02 2.02 0 0 0-.226-1.042.831.831 0 0 0-.31-.328 1.846 1.846 0 0 0-.62-.124c-.114 0-.179-.052-.182-.125 0-.121.09-.181.294-.181.065 0 .214 0 .453.033.433.043 1.167.064 2.202.064.93 0 1.515 0 1.778-.021l1.017-.052c.286-.006.571-.027.855-.064.078-.017.158-.026.238-.027a.144.144 0 0 1 .161.164c-.003.08-.016.159-.037.236-.09.41-.131.83-.12 1.249 0 .218-.066.328-.196.328-.074 0-.12-.055-.127-.179-.019-.15-.045-.3-.08-.45a.859.859 0 0 0-.24-.466 1.425 1.425 0 0 0-.619-.145l-.861-.088c-.275-.022-.62-.037-1.038-.037a2.744 2.744 0 0 0-1.013.107c-.124.072-.189.248-.189.533M85.17 32.821h.868a2.314 2.314 0 0 0 1.588-.514c.398-.373.607-.885.577-1.41a2.148 2.148 0 0 0-.786-1.711 2.978 2.978 0 0 0-2.005-.669 1.04 1.04 0 0 0-.623.14.617.617 0 0 0-.173.501V32.308a.64.64 0 0 0 .094.426.74.74 0 0 0 .46.087Zm2.257.155 2.13 2.903.244.342c.653.893 1.258 1.356 1.817 1.388h.251c.091 0 .134.043.13.107-.002.063-.12.136-.345.196-.248.06-.503.09-.76.088a2.238 2.238 0 0 1-1.239-.354 4.297 4.297 0 0 1-1.122-1.153l-1.918-2.722-.108-.157a.666.666 0 0 0-.6-.302h-1.024l-.17.03c-.058.03-.09.109-.09.226v2.548c-.011.28.01.562.061.84a.77.77 0 0 0 .326.406c.305.187.66.292 1.024.302.187.018.281.07.288.157.006.088-.075.14-.251.14-.075 0-.225 0-.457-.03-.232-.031-.535-.031-.979-.031h-1.138a6.563 6.563 0 0 0-.633.033 4.814 4.814 0 0 1-.417.024c-.091 0-.192-.048-.192-.148 0-.1.065-.115.192-.14a1.01 1.01 0 0 0 .809-.516 4.47 4.47 0 0 0 .19-1.618v-5.886c0-.744-.28-1.159-.84-1.243l-.36-.05c-.164-.032-.246-.087-.246-.171 0-.085.088-.145.265-.145.038 0 .218 0 .535.024.185 0 .414.02.684.02.27 0 .653-.014 1.207-.047.414-.025.773-.037 1.086-.037 1.18 0 2.067.209 2.668.62.613.436.951 1.127.9 1.842-.01 1.089-.65 1.927-1.918 2.514ZM99.586 34.294v-4.048a2.8 2.8 0 0 0-.273-1.419 1.136 1.136 0 0 0-.924-.5c-.148 0-.218-.072-.218-.168 0-.096.051-.162.15-.159.163.013.325.034.485.063.227.032.457.046.687.043.56 0 .908 0 1.042-.023l.321-.02c.096 0 .144.047.144.14 0 .079-.054.138-.16.184-.265.09-.482.289-.6.55a4.311 4.311 0 0 0-.135 1.322v3.866c0 1.422-.276 2.517-.827 3.284-.39.517-.906.916-1.495 1.158a5.35 5.35 0 0 1-4.402-.083 3.32 3.32 0 0 1-1.508-1.4 5.66 5.66 0 0 1-.542-2.645v-4.411c.034-.4-.043-.8-.225-1.155a1.301 1.301 0 0 0-.9-.416c-.135-.02-.206-.076-.206-.162 0-.086.096-.185.289-.185.128 0 .301 0 .526.016.225.016.4.02.51.02h1.155c.064 0 .205 0 .43-.033.224-.034.32-.024.385-.024.064 0 .176.044.176.126 0 .083-.083.159-.247.189a.838.838 0 0 0-.59.396 2.704 2.704 0 0 0-.145 1.05v4.45c0 1.343.206 2.315.606 2.874.575.81 1.53 1.217 2.888 1.217 1.204 0 2.104-.34 2.7-1.018.601-.688.903-1.713.903-3.08M104.457 30.195v5.384c-.024.45.018.899.125 1.336.069.202.196.382.364.518.208.122.441.196.683.216.246.034.371.092.371.177 0 .086-.078.171-.23.171a2.29 2.29 0 0 1-.281-.021 6.582 6.582 0 0 0-.78-.031l-1.072-.015-.87.046a3.345 3.345 0 0 1-.34.024c-.134 0-.2-.049-.2-.146 0-.098.079-.14.231-.165a.978.978 0 0 0 .727-.375 2.91 2.91 0 0 0 .159-1.201v-6.165a2.333 2.333 0 0 0-.21-1.201 1.31 1.31 0 0 0-.9-.421c-.153-.027-.23-.082-.234-.17-.003-.089.066-.156.215-.156h.131c.476.045.956.066 1.434.061.365 0 .68 0 .935-.025l.5-.036h.18c.134 0 .2.042.2.134s-.063.15-.19.192l-.387.146c-.372.135-.56.709-.561 1.723M113.555 28.762h-2.026a.61.61 0 0 0-.4.086.695.695 0 0 0-.082.427v7.391a.998.998 0 0 0 .941 1.008c.168.031.253.083.253.163s-.067.163-.201.163a2.974 2.974 0 0 1-.352-.043 5.513 5.513 0 0 0-.65-.022h-1.091a4.969 4.969 0 0 0-.513.022 8.855 8.855 0 0 1-.483.043c-.143 0-.214-.055-.214-.163 0-.108.077-.123.236-.141.279-.007.546-.117.75-.308a1.36 1.36 0 0 0 .194-.845v-7.388a.49.49 0 0 0-.077-.332c-.049-.052-.168-.073-.351-.073h-1.906c-.3-.026-.6.057-.846.233a1.707 1.707 0 0 0-.41.894c-.043.188-.11.28-.196.274-.085-.006-.131-.07-.131-.197.013-.187.041-.373.086-.556a4.44 4.44 0 0 0 .104-.857.805.805 0 0 1 .079-.437c.05-.07.156-.104.321-.104h7.771c.26 0 .422.027.477.086.077.159.107.337.086.513-.006.206.005.411.033.615.021.162.037.282.043.356 0 .142-.046.218-.156.228-.11.009-.146-.071-.174-.225a1.062 1.062 0 0 0-.306-.67 1.425 1.425 0 0 0-.81-.141M118.463 30.196v5.386c-.026.448.016.899.124 1.335.07.204.196.384.367.519.205.122.437.197.676.216.246.034.37.092.37.177 0 .086-.075.171-.227.171a2.206 2.206 0 0 1-.282-.021 6.454 6.454 0 0 0-.78-.031l-1.062-.015-.87.046a3.29 3.29 0 0 1-.353.021c-.134 0-.199-.049-.199-.146 0-.098.078-.14.227-.165a.94.94 0 0 0 .723-.375c.143-.384.199-.794.165-1.202V29.95a2.33 2.33 0 0 0-.211-1.202 1.3 1.3 0 0 0-.895-.421c-.152-.027-.23-.082-.236-.17-.006-.089.069-.156.215-.156h.133c.473.045.95.066 1.426.061.366 0 .673 0 .93-.025L119.2 28h.183c.13 0 .199.042.199.134s-.066.15-.196.192l-.382.146c-.358.135-.538.71-.54 1.724M122.533 29.225v2.886a.715.715 0 0 0 .064.399c.117.06.252.083.384.066h1.14a7.04 7.04 0 0 0 1.24-.084.971.971 0 0 0 .525-.209c.12-.182.194-.39.216-.605.028-.121.091-.179.197-.172.104.006.149.07.149.193v.154c-.045.464-.064.884-.064 1.265 0 .302.02.575.044.862 0 .094.017.163.017.209 0 .118-.048.178-.146.178a.175.175 0 0 1-.194-.153v-.007l-.048-.197a.938.938 0 0 0-.355-.653 1.782 1.782 0 0 0-.915-.172h-1.65a1.134 1.134 0 0 0-.496.072.295.295 0 0 0-.117.303V36.43c0 .405.073.657.228.76.156.102.537.147 1.156.147 1.962 0 3.222-.42 3.78-1.26a.26.26 0 0 1 .172-.13c.092 0 .14.057.14.187-.05.414-.243.8-.55 1.098a2.098 2.098 0 0 1-1.663.768c-.149 0-.34 0-.587-.027a27.54 27.54 0 0 0-2.372-.124 14.329 14.329 0 0 0-1.85.081c-.13.027-.26.044-.391.052-.159 0-.241-.055-.241-.157 0-.103.066-.137.197-.173l.286-.075c.358-.094.54-.43.54-1.001V30.06c0-.684-.08-1.14-.236-1.376a1.024 1.024 0 0 0-.918-.357c-.145 0-.215-.043-.215-.13 0-.088.11-.197.336-.197.124 0 .292 0 .502.037.857.085 1.72.124 2.581.117.607 0 1.146 0 1.619-.03l1.06-.048c.299 0 .48-.018.54-.027a2.81 2.81 0 0 1 .317-.031c.165 0 .248.07.248.206a.735.735 0 0 1-.022.166 5.24 5.24 0 0 0-.057.569l-.032.42c-.01.175-.035.348-.076.517a.178.178 0 0 1-.168.11c-.099 0-.146-.067-.146-.215v-.188c-.001-.148-.031-.295-.09-.433a.786.786 0 0 0-.577-.43 7.725 7.725 0 0 0-1.588-.108h-1.174a1.073 1.073 0 0 0-.6.112.644.644 0 0 0-.14.481M132.18 32.821h.867a2.3 2.3 0 0 0 1.583-.514c.397-.373.607-.885.577-1.41a2.148 2.148 0 0 0-.782-1.711 2.973 2.973 0 0 0-2.004-.669c-.218-.02-.437.03-.622.14a.611.611 0 0 0-.176.501V32.308a.64.64 0 0 0 .094.426.74.74 0 0 0 .463.087m2.255.155 2.124 2.903.244.342c.652.893 1.258 1.356 1.819 1.388h.244c.094 0 .137.043.134.106-.003.064-.121.137-.343.197-.247.06-.502.09-.759.088a2.238 2.238 0 0 1-1.24-.354 4.361 4.361 0 0 1-1.122-1.153l-1.915-2.722-.108-.157a.665.665 0 0 0-.6-.302h-1.02l-.17.03c-.061.03-.09.109-.09.226v2.548c-.012.28.009.563.062.84.053.167.17.31.325.406.304.188.658.293 1.023.302.187.018.281.07.287.157.007.088-.075.14-.254.14-.071 0-.221 0-.456-.03-.234-.031-.537-.031-.978-.031H130.506a6.55 6.55 0 0 0-.633.033 4.748 4.748 0 0 1-.414.024c-.127 0-.191-.048-.191-.148 0-.1.06-.115.191-.14.348-.03.654-.225.808-.516.16-.526.225-1.073.19-1.618v-5.143l-.017-.743c0-.744-.278-1.159-.834-1.243l-.362-.05c-.163-.032-.244-.087-.244-.171 0-.085.088-.145.261-.145.039 0 .218 0 .537.024.186 0 .411.02.684.02.274 0 .653-.014 1.203-.047.414-.025.772-.037 1.088-.037 1.177 0 2.062.209 2.665.62.613.436.951 1.127.9 1.842-.003 1.089-.637 1.927-1.903 2.514" fill="#020303"/><path d="M140.544 29.222v2.887a.716.716 0 0 0 .064.4c.037.042.17.066.384.066h1.15c.416.008.831-.02 1.24-.085a.97.97 0 0 0 .524-.209c.12-.183.194-.39.22-.605.022-.12.088-.179.193-.172.104.006.146.07.146.19v.158c-.042.463-.064.884-.064 1.265 0 .288.016.575.048.862v.209c0 .114-.05.175-.149.175a.172.172 0 0 1-.19-.15v-.007l-.048-.197a.927.927 0 0 0-.355-.654 1.786 1.786 0 0 0-.914-.172h-1.65a1.09 1.09 0 0 0-.491.073.296.296 0 0 0-.124.302v2.872c0 .408.073.66.229.759.155.1.536.148 1.151.148 1.96 0 3.22-.42 3.778-1.258.057-.082.117-.127.174-.13.058-.003.14.057.14.187-.05.414-.242.8-.545 1.099a2.11 2.11 0 0 1-1.669.765c-.143 0-.336 0-.584-.024a27.494 27.494 0 0 0-2.366-.124c-.619-.015-1.238.013-1.853.082-.128.024-.259.04-.39.048-.158 0-.238-.052-.238-.154 0-.082.064-.137.194-.173l.285-.078c.359-.095.536-.427.536-.999v-6.517c0-.684-.079-1.141-.238-1.377a1.011 1.011 0 0 0-.913-.357c-.143 0-.219-.043-.219-.13 0-.088.115-.197.34-.197.127 0 .292 0 .5.037.856.085 1.716.124 2.576.117.61 0 1.149 0 1.618-.03l1.066-.048c.292 0 .473-.018.54-.027.098-.016.197-.026.297-.031.165 0 .248.07.248.206a.701.701 0 0 1-.022.166 5.822 5.822 0 0 0-.06.569l-.032.42a2.707 2.707 0 0 1-.073.518.181.181 0 0 1-.172.11c-.098 0-.15-.067-.15-.216v-.187a1.061 1.061 0 0 0-.088-.433.77.77 0 0 0-.574-.43 7.63 7.63 0 0 0-1.586-.108h-1.17a1.083 1.083 0 0 0-.603.111.646.646 0 0 0-.11.478" fill="#020303"/><path d="M51 26.5C51 35.613 43.613 43 34.5 43 25.388 43 18 35.613 18 26.5S25.388 10 34.5 10c9.11-.004 16.496 7.378 16.5 16.488v.012Z" fill="#E85C0C"/><g transform="translate(5 9)"><mask id="b" fill="#fff"><use xlink:href="#a"/></mask><path d="M17.464 0H5.776S0 5.993 0 16.205C0 26.418 5.106 35 5.106 35H18s-8.06-4.223-8.06-18.93c.002-1.634.737-9.191 7.524-16.07" fill="#E85C0C" mask="url(#b)"/></g><g transform="translate(46 9)"><mask id="d" fill="#fff"><use xlink:href="#c"/></mask><path d="M.52 0H12.21S18 5.993 18 16.205C18 26.418 12.897 35 12.897 35H0s8.06-4.223 8.06-18.93C8.046 14.436 7.308 6.88.52 0" fill="#E85C0C" mask="url(#d)"/></g></g></svg>