<svg width="127" height="96" xmlns="http://www.w3.org/2000/svg" xmlns:xlink="http://www.w3.org/1999/xlink"><defs><path id="a" d="M0 66h110V0H0z"/></defs><g transform="translate(8 16)" fill="none" fill-rule="evenodd"><path d="M33.023 48c-3.304 0-6 2.674-6.023 5.977 0 3.304 2.674 6 5.977 6.023 3.304 0 6-2.674 6.023-5.977v-.046A5.975 5.975 0 0 0 33.023 48Zm0 9.685A3.687 3.687 0 0 1 29.337 54a3.673 3.673 0 0 1 3.686-3.685A3.687 3.687 0 0 1 36.708 54c.022 2-1.596 3.663-3.596 3.685h-.09ZM32 62v4.898h.247V67h1.505v-.102H34V62h-2Zm.438.743h1.067v-.102h-1.067v.102Z" fill="#9AC331"/><mask id="b" fill="#fff"><use xlink:href="#a"/></mask><path fill="#89CCCB" mask="url(#b)" d="M0 60h17v-2H0z"/><path d="M74.954 58.892c0-.09-.661-7.892-8.028-7.892-4.06 0-6.067 2.306-7.093 4.477-1.094-1.47-2.873-2.306-4.72-2.238-4.54 0-5.953 3.912-6.067 5.97l-.046.7h2.372v-.565c0-.158.251-3.776 3.74-3.776 2.258 0 3.148 1.47 3.536 2.691.136.452.204.95.204 1.425v.293h2.372v-.249c0-.79.115-1.605.365-2.351.57-1.787 1.962-3.98 5.337-3.98 5.291 0 5.702 5.495 5.702 5.698l.046.905L75 59.955l-.046-1.063Z" fill="#EA5C2D" mask="url(#b)"/><path fill="#020303" mask="url(#b)" d="M16.476 21.805 11.305 17H10v12h1.836v-9.14l4.64 4.335 4.687-4.335V29H23V17h-1.305zM36 29v-7.29c0-2.602-2.238-4.71-5-4.71s-5 2.108-5 4.71V29h1.786v-5.204h6.452V29H36Zm-5-10.362a3.118 3.118 0 0 1 2.262.896c.619.561.953 1.324.953 2.131v.449h-6.453v-.449a2.78 2.78 0 0 1 .953-2.175A3.228 3.228 0 0 1 31 18.638ZM39 29h1.777v-5.194h1.493L47.767 29h1.232v-1.164l-4.218-3.985h.593c.971.023 1.895-.336 2.558-1.007.688-.627 1.09-1.5 1.067-2.418a3.1 3.1 0 0 0-1.067-2.418 3.554 3.554 0 0 0-2.558-1.007h-6.326L39 29Zm6.35-10.342c1.042 0 1.872.805 1.872 1.768.023.47-.19.895-.545 1.21-.332.335-.83.536-1.327.514H40.8v-3.492h4.55ZM61.93 23.167c-.664-.67-1.591-1.028-2.565-1.005h-2.731a1.69 1.69 0 0 1-1.283-.514 1.577 1.577 0 0 1-.546-1.207c0-.47.19-.916.546-1.251a1.69 1.69 0 0 1 1.283-.514h6.365V17h-6.365c-.974 0-1.9.358-2.565 1.005C53.38 18.654 53 19.503 53 20.42c0 1.877 1.639 3.396 3.634 3.418h2.731c1.045 0 1.877.805 1.877 1.765.024.47-.19.894-.546 1.207a1.797 1.797 0 0 1-1.33.514H53v1.676h6.365c.974.022 1.9-.335 2.565-1.005A3.249 3.249 0 0 0 63 25.58c.024-.916-.38-1.788-1.069-2.413M16.35 33H10v13h1.777v-5.606h4.597a3.333 3.333 0 0 0 2.559-1.087 3.554 3.554 0 0 0 1.066-2.61 3.467 3.467 0 0 0-1.066-2.61C18.27 33.387 17.322 33 16.35 33Zm-4.55 1.836h4.55c1.043 0 1.872.87 1.872 1.91.024.507-.19.966-.545 1.304-.331.363-.83.58-1.327.556H11.8v-3.77ZM28.374 40.394a3.333 3.333 0 0 0 2.56-1.087c1.421-1.45 1.398-3.77 0-5.22A3.744 3.744 0 0 0 28.397 33H22v13h1.778v-5.606h1.492L30.767 46H32v-1.257l-4.218-4.3h.592v-.05Zm-4.596-5.558h4.549c1.043 0 1.872.87 1.872 1.91.023.506-.19.966-.545 1.304-.332.362-.83.58-1.327.556h-4.55v-3.77ZM39.988 33c-2.78.022-4.988 2.146-4.988 4.738v2.571a4.58 4.58 0 0 0 1.449 3.33c1.97 1.833 5.154 1.81 7.102-.044.926-.894 1.448-2.079 1.448-3.33v-2.571a4.404 4.404 0 0 0-1.448-3.33A5.284 5.284 0 0 0 39.988 33m0 1.699a3.113 3.113 0 0 1 2.256.894 2.84 2.84 0 0 1 .95 2.123v2.57c0 1.654-1.425 3.018-3.206 3.018a3.287 3.287 0 0 1-2.257-.871 2.84 2.84 0 0 1-.95-2.124v-2.57c.024-1.699 1.449-3.04 3.207-3.04M53 43.052 48.038 33H46l6.473 13h1.078L60 33h-2.013zM62 46h7v-1.836h-5.267v-3.77H69v-1.788h-5.267v-3.77H69V33h-7zM84.17 42.907 74.3 33H73v13h1.83v-9.907L84.7 46H86V33h-1.83zM91.755 35.57c.594-.581 1.402-.894 2.257-.894a3.16 3.16 0 0 1 1.995.693c.57.425.998 1.006 1.164 1.677l.048.2H99l-.047-.313c-.167-1.117-.784-2.123-1.71-2.816A5.275 5.275 0 0 0 93.988 33C91.21 33.022 89 35.145 89 37.738v2.57a4.58 4.58 0 0 0 1.449 3.331c1.971 1.833 5.154 1.81 7.126-.044.713-.694 1.211-1.565 1.378-2.526l.047-.313h-1.781l-.048.2a2.847 2.847 0 0 1-1.164 1.677c-.57.425-1.283.67-1.995.693a3.11 3.11 0 0 1-2.257-.894 2.84 2.84 0 0 1-.95-2.123v-2.57a2.77 2.77 0 0 1 .95-2.169M11.762 7.394h6.453V13H20V5.099a5.14 5.14 0 0 0-1.452-3.6c-1.953-1.982-5.12-2.006-7.071-.025A5.16 5.16 0 0 0 10 5.1V13h1.762V7.394Zm3.214-5.557c1.763 0 3.215 1.45 3.215 3.262v.483h-6.429V5.1c-.024-.87.31-1.74.953-2.344a3.045 3.045 0 0 1 2.261-.918ZM30.286 12 34 8.286l-.381-.381-.69-.691L32.714 7l-.904.905-2.81 2.81v1.237zM41 12v-1.25L37.25 7l-.384.385-.65.649L36 8.25 39.75 12zM36.359 4.087l.693.697.216.216L41 1.25V0h-1.244L36.91 2.837 36 3.75zM33.087 4.615c.216-.216.384-.384.697-.649L34 3.75l-1.082-1.082L30.25 0H29v1.25L32.75 5l.337-.385ZM74 27.324h-5.262v-3.508H74v-1.677h-5.262v-3.463H74V17h-7v12h7zM77 19.877V29h2v-9.123L78.027 19zM90 27.215h-5.267v-10.31L83.866 16l-.866.905V29h7zM94.71 16.905 93.843 16l-.843.905V29h7v-1.786h-5.29zM103 46h7v-1.836h-5.29v-3.77H110v-1.788h-5.29v-3.77H110V33h-7zM110 18.676V17h-7v12h7v-1.676h-5.29v-3.508H110v-1.677h-5.29v-3.463zM77 17v1.943L79 19v-2zM23 2.853V12h2V2.9l-.973-.9zM23 2h2V0h-2zM0 42v.45l1.06 1.062L0 44.594V45h3v-.564H1.015l.902-.924-.902-.903H3V42zM2.413 37v1.333h-.609V37h-.609v1.333H.586V37H0v2h3v-2zM0 32v2h.587v-.684H3v-.683H.587V32zM1.85 28.018a1.513 1.513 0 0 0-.293-.688.798.798 0 0 0-.61-.302c-.248 0-.473.11-.653.357-.18.22-.271.496-.294.798V30h3v-.743H1.782v-.22L3 27.55V27h-.406l-.744 1.018Zm-.61 1.21H.632v-1.072c0-.193.135-.358.293-.358.068 0 .135.028.203.11.045.11.09.138.09.248v1.1l.022-.027ZM1.8 21h-.6c-.667 0-1.2.667-1.2 1.5S.533 24 1.2 24h.6c.667 0 1.2-.667 1.2-1.5S2.444 21 1.8 21m.423 1.972c-.112.139-.267.223-.445.195h-.6c-.156 0-.29-.084-.4-.195a.66.66 0 0 1-.155-.5c0-.194.066-.36.155-.5.11-.139.244-.222.4-.194h.6a.6.6 0 0 1 .445.195c.11.138.177.305.155.5a.77.77 0 0 1-.155.5M1.85 16.748c0-.206-.09-.393-.293-.542A1.107 1.107 0 0 0 .902 16c-.248 0-.473.075-.654.206a.74.74 0 0 0-.248.542V18h3v-.505H1.782v-.747h.068Zm-.61.747H.632v-.747c0-.131.135-.243.293-.243.158 0 .293.112.293.243v.747h.022ZM1.8 10h-.6c-.667 0-1.2.667-1.2 1.5S.533 13 1.2 13h.6c.667 0 1.2-.667 1.2-1.5S2.444 10 1.8 10m.423 2c-.112.139-.245.222-.4.195h-.645c-.156 0-.29-.084-.4-.195a.66.66 0 0 1-.155-.5c0-.194.066-.389.155-.555.11-.14.244-.223.4-.195h.6c.155 0 .288.055.4.195a.76.76 0 0 1 .155.555.584.584 0 0 1-.11.5M2.413 5v1.333H0V7h3V5zM2.413 0v1.333h-.609V0h-.609v1.333H.586V0H0v2h3V0z"/><path d="m107.54 54.78-.046.565c-.046.451-.298 1.829-1.77 1.829-.758.022-1.448-.452-1.655-1.174v-.09a6.271 6.271 0 0 1-.16-.7 6.468 6.468 0 0 0-.369-1.13c-.666-1.332-2.091-2.144-3.586-2.076-2.735 0-3.678 2.077-3.977 2.957a1.74 1.74 0 0 0-.115.497l-.046.316c0 .09-.046.203-.046.316v.09c0 .045-.046.113-.046.158a1.89 1.89 0 0 1-.207.497l-.046.09c-.299.52-.873.835-1.494.813a1.588 1.588 0 0 1-1.655-1.174v-.09a7.895 7.895 0 0 1-.161-.722 4.336 4.336 0 0 0-.3-.926c-.643-1.4-2.068-2.258-3.631-2.19-3.103 0-4.092 2.641-4.184 4.018l-.046.61h2.345l.046-.497c0-.203.16-1.829 1.77-1.829a1.608 1.608 0 0 1 1.655 1.22c.092.203.161.564.253.813.092.405.23.767.414 1.128.712 1.242 2.069 1.964 3.517 1.897a3.97 3.97 0 0 0 3.839-2.597c.092-.27.161-.542.207-.812.046-.249.115-.565.16-.768.162-.7.576-1.49 1.725-1.49a1.656 1.656 0 0 1 1.702 1.264c.114.271.206.564.252.858.07.316.16.61.299.903.667 1.332 2.092 2.145 3.586 2.077 3.104 0 4.092-2.641 4.184-4.019l.046-.7-2.46.069Z" fill="#2EAAE1" mask="url(#b)"/></g></svg>