<svg width="146" height="68" xmlns="http://www.w3.org/2000/svg" xmlns:xlink="http://www.w3.org/1999/xlink"><defs><path id="a" d="M0 0h42v31H0z"/></defs><g fill="none" fill-rule="evenodd"><path fill="#DBDBDB" d="M77 26h5v-5h-5zM77 39h5v-5h-5zM23 26h5v-5h-5zM45 26h5v-5h-5zM56 26h5v-5h-5zM23 39h5v-5h-5z"/><path fill="#2865AA" d="M17 48h6V21h-6z"/><path fill="#0A9FDA" d="M28 48h6V21h-6z"/><path fill="#0FAFAF" d="M39 48h6V21h-6z"/><path fill="#BDBD06" d="M50 48h6V21h-6z"/><path fill="#F9B40D" d="M60 48h6V21h-6z"/><path fill="#EE7D0A" d="M71 48h6V21h-6z"/><path fill="#E6512A" d="M82 39h6V22h-6z"/><g transform="translate(93 20)"><mask id="b" fill="#fff"><use xlink:href="#a"/></mask><path d="M39.248 2.415h-.726V1.44h.726V.27h1.457v1.17h.937v.975h-.937v3.768c0 .608.251.861.691.861h.582v.976h-.597c-.676 0-1.36-.2-1.77-.698a1.831 1.831 0 0 1-.37-1.209V2.41l.007.006ZM7.644.834h1.753V0H7.644v.834Zm8.423 21.395.924 4.845h.053l.924-4.845h1.518l-1.503 6.309H16.06l-1.526-6.31h1.533Zm2.795-5.14c0 .523.138.826.664.826.366 0 .65-.178.65-.751a.854.854 0 0 0-.485-.893l-1.322-.874a3.103 3.103 0 0 1-.436-.393c-.168-.182-.366-.435-.366-1.11 0-1.32.907-1.615 2.027-1.615 1.38 0 1.921.553 1.921 1.439v.6h-1.31v-.39a1.42 1.42 0 0 0-.066-.37.5.5 0 0 0-.536-.323c-.235 0-.595.04-.595.606 0 .185.017.433.47.728l1.458.959c.158.123.303.262.434.415.176.295.253.639.22.981 0 .408 0 .888-.25 1.27-.25.384-.772.667-1.822.667-1.692 0-2.041-.794-2.041-1.662v-.538h1.403v.423l-.018.005Zm16.042 1.629h1.468v-8.606h-1.468v8.606ZM2.722 13.41h-.683c-.521 0-.574.463-.574.818v4.505H0v-4.505c0-1.263.608-1.79 1.713-1.79H5.14c1.104 0 1.71.527 1.71 1.79v4.505H5.385v-4.505c0-.355-.05-.818-.574-.818h-.684v5.33H2.74v-5.35l-.018.02Zm-.954-8.245c-.338.212-.375.395-.375.973 0 .5.09.784.433.784h.929V4.687l-.987.478ZM.586 1.93c.317-.304.911-.477 1.685-.477.406-.01.809.07 1.18.234.461.187.76.638.751 1.135V7.89H1.295C.01 7.89.007 6.871.007 6.25c0-.572 0-.862.125-1.142.2-.336.506-.595.87-.74l1.753-.835v-.548a.552.552 0 0 0-.6-.595.542.542 0 0 0-.582.595v.5H.225c0-.933 0-1.218.354-1.548l.007-.007Zm28.017 16.785h1.472v-6.3h-1.472v6.3ZM14.126 2.76a.94.94 0 0 0-.073.297c-.01.092-.014.184-.013.276v4.542h-1.465v-4.53a1.847 1.847 0 0 1 .371-1.21c.411-.5 1.093-.697 1.773-.697h.531v.974h-.518a.598.598 0 0 0-.606.348Zm22.331 0a.914.914 0 0 0-.074.297 2.382 2.382 0 0 0 0 .276v4.542h-1.468v-4.53c-.022-.434.109-.863.37-1.21.41-.5 1.095-.697 1.773-.697h.459v.974h-.446a.595.595 0 0 0-.604.348h-.01Zm-27.28.25a.608.608 0 0 0-.659-.653.599.599 0 0 0-.641.653v1.121h1.3v-1.12ZM8.53 7.094a.598.598 0 0 0 .64-.653v-.538h1.368v.45c0 1.337-1.032 1.67-2.004 1.67-1.515 0-2.111-.736-2.111-2.002V3.3c0-.786.283-1.219.7-1.502.423-.249.906-.376 1.396-.365a2.38 2.38 0 0 1 1.601.548c.306.337.465.781.443 1.236v1.839H7.877v1.376a.608.608 0 0 0 .658.654l-.004.007Zm9.41-4.086v3.446a.589.589 0 0 0 .64.627.566.566 0 0 0 .61-.627V3.008a.584.584 0 0 0-.634-.629.571.571 0 0 0-.617.629Zm.648-1.567c1.821 0 2.039 1.044 2.039 1.807v2.97c0 .763-.218 1.804-2.04 1.804-1.82 0-2.09-1.045-2.09-1.803v-2.97c0-.752.265-1.808 2.09-1.808Zm11.597 1.567v3.446a.585.585 0 0 0 .638.627.566.566 0 0 0 .609-.627V3.008a.583.583 0 0 0-.634-.629.572.572 0 0 0-.613.629Zm.638-1.567c1.824 0 2.039 1.044 2.039 1.807v2.97c0 .763-.215 1.804-2.039 1.804-1.823 0-2.09-1.045-2.09-1.803v-2.97c0-.752.265-1.808 2.09-1.808Zm-6.76 1.564v3.446a.585.585 0 0 0 .639.628.566.566 0 0 0 .609-.628V3.008a.583.583 0 0 0-.637-.629.569.569 0 0 0-.613.629l.002-.003Zm-1.445.25c0-.75.265-1.806 2.091-1.806 1.827 0 2.04 1.043 2.04 1.806v2.97c0 .764-.216 1.808-2.04 1.808a1.507 1.507 0 0 1-.62-.125v2.447h-1.47v-7.1Zm-12.488 12.74c-.338.213-.375.395-.375.972 0 .5.09.785.433.785h.834v-2.234l-.892.478ZM8.848 12.76c.32-.303.912-.476 1.686-.476.405-.01.808.069 1.18.233.467.184.776.632.781 1.133v5.068H9.647c-1.282 0-1.287-1.016-1.287-1.639 0-.57 0-.863.126-1.144.125-.28.483-.515.878-.72l1.662-.85v-.549a.554.554 0 0 0-.6-.596.544.544 0 0 0-.583.596v.5h-1.35c0-.933 0-1.22.353-1.549l.002-.007Zm6.961.845a.964.964 0 0 0-.073.298 2.803 2.803 0 0 0 0 .273v4.545h-1.48v-4.53c-.023-.435.11-.864.374-1.211.408-.5 1.091-.696 1.77-.696h.479v.974h-.469a.593.593 0 0 0-.603.347h.002Zm16.005 5.113h1.468v-8.606h-1.468v8.606ZM1.472 23.65v3.448a.588.588 0 0 0 .64.63.569.569 0 0 0 .61-.63v-3.433a.585.585 0 0 0-.634-.628.573.573 0 0 0-.616.628v-.015ZM.03 23.9c0-.75.264-1.806 2.09-1.806 1.825 0 2.04 1.043 2.04 1.807v2.97c0 .763-.217 1.807-2.04 1.807a1.529 1.529 0 0 1-.62-.123V31H.03v-7.1Zm7.362-.485a.903.903 0 0 0-.075.3c-.005.091-.005.182 0 .273v4.543H5.848V24c-.022-.434.109-.862.37-1.21.412-.5 1.095-.697 1.774-.697h.551v.976h-.539a.593.593 0 0 0-.603.345h-.01Zm3.48.25v3.449a.588.588 0 0 0 .64.628.567.567 0 0 0 .609-.628v-3.449a.583.583 0 0 0-.634-.628.574.574 0 0 0-.616.628Zm.647-1.574c1.824 0 2.04 1.044 2.04 1.807v2.97c0 .763-.216 1.807-2.04 1.807-1.823 0-2.09-1.048-2.09-1.806v-2.964c0-.75.265-1.806 2.09-1.806v-.008Zm16.98 0c1.873 0 2.098 1.074 2.098 1.86v4.577H29.13v-4.845a.61.61 0 0 0-.664-.646.6.6 0 0 0-.651.646v4.852h-1.468v-4.584c0-.78.273-1.86 2.152-1.86Zm5.945.008c1.874 0 2.097 1.073 2.097 1.86v.542h-1.467v-.818a.61.61 0 0 0-.661-.646.602.602 0 0 0-.652.646v3.411a.6.6 0 0 0 .652.646.608.608 0 0 0 .66-.646v-.818h1.468v.542c0 .786-.223 1.86-2.097 1.86-1.873 0-2.15-1.079-2.15-1.86v-2.867c0-.78.272-1.86 2.15-1.86v.008Zm-8.798-8.243a.608.608 0 0 0-.659-.653.596.596 0 0 0-.639.653v1.12h1.298v-1.12Zm-.641 4.089a.596.596 0 0 0 .64-.654v-.537h1.368v.44c0 1.339-1.032 1.67-2.004 1.67-1.502 0-2.111-.737-2.111-2.003v-2.715c0-.786.283-1.218.701-1.501.423-.25.907-.376 1.398-.366a2.382 2.382 0 0 1 1.601.548c.306.337.466.782.443 1.237v1.839h-2.696v1.376a.611.611 0 0 0 .66.653v.013Zm-1.726 5.716a.608.608 0 0 0-.656-.657.596.596 0 0 0-.642.657v1.12h1.298v-1.12Zm-.637 4.095a.596.596 0 0 0 .642-.652v-.538h1.37v.45c0 1.339-1.032 1.671-2.004 1.671-1.515 0-2.108-.75-2.108-2V23.95c0-.783.28-1.216.698-1.502.423-.25.906-.377 1.398-.368a2.359 2.359 0 0 1 1.597.551c.31.335.47.781.447 1.236v1.84h-2.7v1.374a.606.606 0 0 0 .656.652l.004.022Zm17.956-13.888a.61.61 0 0 0-.658-.653.596.596 0 0 0-.642.653v1.121h1.3v-1.12Zm-.643 4.077a.598.598 0 0 0 .643-.654v-.537h1.361v.44c0 1.339-1.032 1.67-2.004 1.67-1.503 0-2.109-.737-2.109-2.003v-2.715c0-.786.283-1.218.699-1.501.422-.25.907-.376 1.398-.366a2.38 2.38 0 0 1 1.6.548c.307.337.466.782.444 1.237v1.839h-2.693v1.376a.609.609 0 0 0 .661.666Zm.638 5.732a.61.61 0 0 0-.658-.655.596.596 0 0 0-.641.655V24.8h1.3v-1.122Zm-.638 4.075a.598.598 0 0 0 .643-.654v-.537h1.361v.45c0 1.339-1.032 1.672-2.004 1.672-1.503 0-2.109-.751-2.109-2.002v-2.73c0-.783.283-1.216.699-1.502a2.636 2.636 0 0 1 1.41-.35 2.361 2.361 0 0 1 1.6.55c.307.337.467.782.444 1.237v1.839h-2.705v1.373a.605.605 0 0 0 .656.654h.005ZM28.593 11.583h1.472v-1.47h-1.472v1.47Z" fill="#020303" mask="url(#b)"/></g></g></svg>