<svg width="260" height="102" xmlns="http://www.w3.org/2000/svg" xmlns:xlink="http://www.w3.org/1999/xlink"><defs><path id="a" d="M0 87h197V0H0z"/></defs><g fill="none" fill-rule="evenodd"><path fill="#1E1E1C" d="M36 7v2.746h10.87L46.867 37h3.268V9.746H61V7z"/><g transform="translate(31 7)"><path d="M66.701 15.411c0-7.23-5.42-12.555-12.705-12.555S41.201 8.18 41.201 15.41s5.467 12.556 12.795 12.556c7.33 0 12.705-5.325 12.705-12.556m-28.665 0c0-8.832 6.765-15.41 15.96-15.41C63.101 0 69.91 6.535 69.91 15.41c0 8.876-6.809 15.416-15.914 15.416-9.195 0-15.96-6.574-15.96-15.416M103.314 10.65c0-4.848-3.209-7.619-9.277-7.619h-8.081v15.154h8.068c6.069 0 9.277-2.774 9.277-7.536h.013Zm3.208 0c0 6.44-4.679 10.348-12.4 10.348h-8.17v9.567h-3.21V.258h11.364c7.724 0 12.416 3.899 12.416 10.391ZM154.562 27.795v2.77h-21.293v-2.207l12.618-12.341c3.44-3.375 4.077-5.41 4.077-7.49 0-3.507-2.472-5.672-7.113-5.672-3.552 0-6.288 1.082-8.284 3.38l-2.21-1.907C134.7 1.558 138.473 0 143.109 0c6.159 0 10.06 3.118 10.06 8.16 0 2.901-.912 5.5-4.985 9.484l-10.322 10.13 16.7.021ZM184.96 15.411c0-8.094-3.643-12.555-8.932-12.555-5.29 0-8.933 4.461-8.933 12.555 0 8.095 3.642 12.556 8.933 12.556 5.289 0 8.932-4.457 8.932-12.556m-21.03 0c0-9.653 5.074-15.41 12.098-15.41 7.022 0 12.14 5.757 12.14 15.41s-5.113 15.416-12.14 15.416c-7.028 0-12.099-5.758-12.099-15.416" fill="#1E1E1C"/><mask id="b" fill="#fff"><use xlink:href="#a"/></mask><path fill="#D12A33" mask="url(#b)" d="M1.424 69.533h195.05V43.22H1.423z"/><path stroke="#D12A33" stroke-width="1.68" mask="url(#b)" d="M1.424 69.533h195.05V43.22H1.423z"/><path fill="#FEFEFE" mask="url(#b)" d="M54.435 50.811h1.72v10.615h6.577v1.507h-8.297zM77.023 61.426v1.508H68.21V50.812h8.568v1.507h-6.813v3.71h6.09v1.473h-6.09v3.911zM90.446 56.888c0-3.586 2.744-6.205 6.451-6.205a6.024 6.024 0 0 1 4.615 1.89l-1.127 1.09a4.506 4.506 0 0 0-3.42-1.44c-2.739 0-4.769 1.976-4.769 4.665 0 2.688 2.03 4.659 4.77 4.659a4.522 4.522 0 0 0 3.419-1.456l1.127 1.09a6.028 6.028 0 0 1-4.632 1.907c-3.69-.013-6.434-2.628-6.434-6.2M107.447 50.811h1.72v10.615h6.572v1.507h-8.292zM120.908 57.703v-6.87h1.72v6.823c0 2.684 1.235 3.899 3.42 3.899 2.185 0 3.44-1.215 3.44-3.899v-6.845h1.682v6.871c0 3.517-1.927 5.372-5.135 5.372-3.208 0-5.127-1.834-5.127-5.35M146.894 59.511c0-1.404-1.041-2.027-2.968-2.027h-3.987v4.037h4c1.914.013 2.955-.597 2.955-1.997v-.013Zm-6.955-7.3v3.865h3.57c1.767 0 2.774-.657 2.774-1.941s-1.007-1.941-2.774-1.941l-3.57.017Zm8.73 7.45c0 2.079-1.581 3.273-4.648 3.273h-5.82V50.81h5.45c2.791 0 4.352 1.177 4.352 3.135a2.871 2.871 0 0 1-1.63 2.701c1.4.31 2.37 1.585 2.297 3.015Z"/><path d="m5.681 84.262-1.823-4.07-1.82 4.07h3.643Zm.293.649H1.746l-.912 2.035H0l3.466-7.575h.792l3.47 7.575h-.86l-.894-2.035ZM11.156 86.946h.8v-7.588h-.8zM21.366 86.946l-2.451-3.333-2.447 3.333h-.92l2.88-3.895-2.7-3.68h.907l2.289 3.096 2.275-3.096h.86l-2.693 3.659 2.895 3.916zM38.767 79.358v7.588h-.77v-6.072l-2.98 5.097h-.378l-2.98-5.067v6.012h-.77v-7.558h.657l3.3 5.617 3.26-5.617zM47.876 84.262l-1.823-4.07-1.82 4.07h3.643Zm.293.649H43.94l-.912 2.035h-.834l3.466-7.575h.792l3.47 7.575h-.86l-.894-2.035ZM58.49 81.97c0-1.216-.803-1.908-2.321-1.908h-2.017v3.8h2.017c1.518-.012 2.322-.716 2.322-1.906v.013Zm.044 4.976-1.72-2.435a5.44 5.44 0 0 1-.607.035H54.17v2.4h-.8v-7.588h2.834c1.931 0 3.1.975 3.1 2.598a2.345 2.345 0 0 1-1.72 2.38l1.854 2.597-.903.013ZM62.654 86.014l.314-.619c.69.608 1.583.937 2.503.924 1.42 0 2.038-.597 2.038-1.344 0-2.079-4.674-.799-4.674-3.603 0-1.116.86-2.078 2.8-2.078a4.308 4.308 0 0 1 2.352.67l-.27.64a3.905 3.905 0 0 0-2.083-.632c-1.389 0-2.008.619-2.008 1.378 0 2.08 4.675.82 4.675 3.582 0 1.117-.89 2.065-2.83 2.065a4.11 4.11 0 0 1-2.817-.983M77.56 86.242v.704h-5.367v-7.588h5.204v.692h-4.42v2.696h3.926v.683h-3.927v2.813zM81.612 79.358h.826v7.588h-.805zM87.057 79.358h.8v6.87h4.249v.718h-5.05zM95.611 79.358h.8v6.87h4.25v.718h-5.05zM109.533 86.242v.704h-5.367v-7.588h5.203v.692h-4.404v2.696h3.927v.683h-3.927v2.813zM123.734 81.956c0-1.215-.804-1.906-2.322-1.906h-2.014v3.787h2.014c1.518 0 2.313-.691 2.313-1.88h.009Zm.8 0c0 1.61-1.17 2.577-3.101 2.577h-2.035v2.413h-.804v-7.588h2.839c1.93 0 3.101.975 3.101 2.598ZM133.574 81.97c0-1.216-.804-1.908-2.322-1.908h-2.013v3.8h2.013c1.505-.012 2.327-.716 2.327-1.906l-.005.013Zm.043 4.976-1.72-2.435a5.44 5.44 0 0 1-.606.035h-2.035v2.4h-.8v-7.588h2.838c1.932 0 3.102.975 3.102 2.598a2.346 2.346 0 0 1-1.72 2.38l1.853 2.597-.912.013ZM144.941 83.146a3.188 3.188 0 0 0-3.143-3.233 3.189 3.189 0 0 0-3.239 3.138 3.189 3.189 0 0 0 3.144 3.233h.06a3.072 3.072 0 0 0 3.178-3.138Zm-7.17 0c0-2.208 1.695-3.865 3.992-3.865a3.87 3.87 0 0 1 4.173 3.537 3.867 3.867 0 0 1-4.173 4.167c-2.297.012-3.991-1.632-3.991-3.84ZM155.792 79.358l-3.363 7.588h-.792l-3.358-7.575h.86l2.903 6.579 2.929-6.579zM164.42 86.242v.704h-5.364v-7.588h5.204v.692h-4.408v2.696h3.927v.683h-3.927v2.813zM174.819 79.358v7.588h-.663l-4.877-6.145v6.145h-.804v-7.588h.662l4.908 6.15v-6.15zM178.776 83.146c0-2.22 1.69-3.865 3.978-3.865a3.665 3.665 0 0 1 2.774 1.103l-.508.507a3.014 3.014 0 0 0-2.245-.897 3.142 3.142 0 0 0-3.146 3.136 3.14 3.14 0 0 0 3.141 3.141h.005a2.98 2.98 0 0 0 2.245-.91l.508.512a3.694 3.694 0 0 1-2.787 1.112 3.804 3.804 0 0 1-3.962-3.638c-.003-.067-.004-.134-.003-.201M194.787 86.242v.704h-5.363v-7.588h5.2v.692h-4.4v2.696h3.927v.683h-3.927v2.813z" fill="#1E1E1C" mask="url(#b)"/></g></g></svg>