<svg width="69" height="89" xmlns="http://www.w3.org/2000/svg" xmlns:xlink="http://www.w3.org/1999/xlink"><defs><path id="a" d="M0 0h55.24v56.53H0z"/></defs><g fill="none" fill-rule="evenodd"><g transform="translate(6 17)"><mask id="b" fill="#fff"><use xlink:href="#a"/></mask><path d="M12.506 24.035c.427-.156.798-.23 1.091-.423.142-.093.139-.407.201-.622-.198-.038-.424-.157-.589-.099-.433.153-.816.156-1.231-.065-.141-.075-.498-.038-.538.048-.077.168-.08.51.029.596.312.241.694.387 1.037.565Zm-2.271-4.996c-.437.182-.939.324-1.357.597-.166.108-.233.523-.184.766.064.315.387.266.652.211.508-.104 1.019-.187 1.521-.314.166-.041.43-.186.433-.288.004-.218-.073-.507-.226-.643-.187-.165-.487-.201-.839-.329Zm5.462 0c-.321.115-.666.175-.925.357-.155.111-.234.413-.23.628.002.101.267.247.432.287.548.132 1.11.209 1.657.342.377.09.517-.115.578-.405.076-.368-.075-.687-.407-.844-.337-.158-.71-.238-1.105-.365Zm7.854-.452c-.391.113-.711.146-.954.298-.148.093-.274.397-.232.561.04.157.316.364.481.358.717-.027 1.343.193 1.961.526.151.081.477.086.561-.012.134-.156.215-.452.162-.645a.94.94 0 0 0-.465-.527c-.504-.23-1.039-.389-1.514-.559Zm5.101 1.095c-.443.112-.797.158-1.113.293-.307.131-.454.425-.352.764.108.358.388.317.708.31a8.19 8.19 0 0 1 1.713.134c.342.065.645.181.827-.2.174-.367-.043-.658-.346-.795-.48-.218-.993-.355-1.437-.506ZM13.543 44.857l.08-.07c-.183-.206-.329-.498-.557-.594-.225-.095-.654-.104-.785.039-.45.494-.842 1.051-1.192 1.624-.22.36.032.738.429.756.568.025 1.962-1.152 2.022-1.71.002-.014.002-.029.003-.045Zm-1.242-17.816c.733-.036 1.425-.216 2.001-.686.128-.105.236-.422.169-.529-.096-.157-.348-.246-.552-.299-.109-.027-.252.088-.381.132-1.041.357-2.039.365-2.941-.379-.251-.207-.53-.28-.772-.005-.234.265-.096.512.105.73.638.694 1.446 1 2.371 1.036Zm14.026-.72c.341-.094.989-.255 1.624-.458.279-.089.486-.31.359-.638-.123-.317-.39-.403-.716-.325-.283.067-.564.147-.851.187-1.218.167-2.359.067-3.221-.967-.066-.079-.166-.179-.254-.181-.198-.007-.448-.021-.579.087-.1.082-.123.383-.052.523.141.28.336.553.569.761.791.706 1.76.953 3.121 1.011Zm19.646 12.611c-.04-.847-.065-1.658-.129-2.467-.018-.244-.074-.569-.238-.701-.528-.424-1.26-.128-1.291.539-.075 1.633-.102 3.27-.106 4.905-.001.566.212.689.846.681.595-.007.753-.131.795-.7.056-.761.085-1.526.123-2.257Zm-.197 8.592c-.061-.936-.109-1.869-.188-2.799-.04-.464-.221-.551-.856-.574-.41-.015-.64.129-.652.561-.048 1.682-.13 3.365-.137 5.047-.004.738.131.799.861.797l.23-.001c.34-.004.549-.141.571-.511.051-.84.114-1.68.171-2.52Zm3.109 1.782c0-.173.003-.324 0-.474-.034-1.349-.051-2.697-.114-4.044-.024-.527-.284-.661-.938-.665-.445-.003-.596.259-.605.635-.043 1.713-.092 3.426-.1 5.139-.003.566.137.655.709.658 1.072.007 2.146.004 3.22.001.509-.001.708-.253.486-.712-.091-.188-.376-.367-.593-.395-.666-.087-1.341-.099-2.065-.143Zm-7.109-12.45c.504-.034 1.006-.077 1.508-.102.365-.018.423-.279.412-.544-.01-.26.007-.589-.404-.594-1.454-.014-2.908-.027-4.362-.038-.351-.002-.569.106-.578.525-.008.404.142.607.532.643l1.417.128c-.011.129-.023.235-.029.34-.074 1.33-.154 2.66-.215 3.989-.008.169.061.476.137.491.406.077.83.129 1.239.096.346-.028.296-.37.311-.625.013-.214.031-.428.031-.642.002-1.208.001-2.416.001-3.667Zm-13.987 8.605c-.011.152-.022.288-.03.424-.077 1.3-.156 2.598-.228 3.897-.015.268.008.516.326.635.841.316 1.391-.02 1.395-.9a107.04 107.04 0 0 0-.04-3.583c-.011-.381.063-.573.494-.543.348.025.703-.024 1.054-.046.403-.026.445-.32.432-.626-.012-.296-.102-.538-.48-.538-1.439 0-2.878-.003-4.316-.018-.379-.004-.553.134-.572.53-.018.377.114.59.489.63.482.052.967.091 1.476.138ZM47.89 40.63l-.005-.04c-.168 0-.337.004-.505-.001-.284-.01-.567-.033-.624.358-.055.373.079.655.439.754 1.137.31 2.275.342 3.367-.166.701-.327.956-.899.847-1.66-.091-.648-.499-1.031-1.034-1.315-.486-.258-.998-.469-1.468-.754-.163-.099-.318-.361-.309-.542.006-.118.301-.294.483-.318a9.696 9.696 0 0 1 1.465-.079c.383.007.532-.173.547-.514.014-.325-.1-.623-.459-.622-.837.001-1.683-.013-2.506.111-.68.102-1.213.519-1.331 1.279-.112.733.304 1.194.863 1.54.519.322 1.081.575 1.603.894.16.098.367.341.339.471-.037.174-.26.388-.443.435-.411.104-.845.118-1.269.169Zm-18.492-1.655c.541 0 1.044.011 1.546-.003.302-.008.728.102.748-.374.02-.47-.411-.406-.714-.449-.18-.026-.367-.009-.55-.011-.333-.001-.664 0-1.021 0v-1.502c.27.023.509.061.75.06.502 0 1.01.017 1.505-.045.361-.046.417-.385.373-.685-.017-.123-.184-.32-.285-.321a92.337 92.337 0 0 0-3.491.015c-.393.011-.584.262-.581.677.01 1.546-.003 3.093.009 4.64.005.595.238.82.848.828 1.012.013 2.024-.004 3.035.01.273.003.386-.123.444-.358.122-.491-.074-.759-.597-.77-.669-.012-1.337-.003-2.019-.003v-1.709Zm-11.377 1.053c.403-.022.799-.025 1.189-.068 1.185-.13 1.826-.795 1.917-1.96.089-1.137-.465-2.012-1.612-2.207-.905-.154-1.851-.079-2.777-.062-.123.003-.342.268-.345.416a151.729 151.729 0 0 0-.062 4.865c.005.745.113.804.888.799.077 0 .154-.001.23-.003.418-.012.605-.214.577-.643-.025-.378-.005-.758-.005-1.137Zm-5.429-.002c.414-.022.809-.021 1.2-.067 1.207-.142 1.878-.849 1.927-2.007.05-1.172-.576-2.038-1.758-2.204-.838-.118-1.704-.039-2.557-.047-.333-.003-.454.18-.455.494-.005 1.698-.013 3.397-.026 5.096-.002.326.166.481.467.505.228.018.46.02.688.005.359-.025.555-.186.521-.592-.033-.389-.007-.783-.007-1.183Zm20.927 5.168c.312.024.584.062.855.065.458.003.917.009 1.372-.031.449-.038.498-.395.484-.749-.015-.385-.321-.355-.574-.352-.966.004-1.931.026-2.897.033-.927.007-1.063.127-1.062 1.064.002 1.44.024 2.88.035 4.32.005.779.217.995 1.013 1 .966.005 1.933-.014 2.898.008.409.009.54-.182.567-.544.028-.392-.115-.627-.529-.629-.716-.005-1.433-.001-2.17-.001v-1.752c.149-.007.238-.014.329-.015.536-.009 1.076.013 1.608-.043.16-.016.298-.245.447-.376-.143-.139-.27-.305-.437-.404-.105-.062-.27-.029-.407-.029-.502-.002-1.003-.001-1.532-.001v-1.564Zm-23.84-3.377c.133 0 .257.011.378-.002.464-.048.55-.221.355-.636-.792-1.688-1.568-3.383-2.377-5.063a1.05 1.05 0 0 0-.572-.496.732.732 0 0 0-.877.338c-.946 1.593-1.837 3.215-2.375 5-.076.25-.093.688.046.789.201.147.573.105.863.067.152-.02.315-.178.418-.315.145-.193.28-.413.349-.642.124-.416.37-.473.761-.409.373.06.776.1 1.139.02.457-.101.625.078.767.456.191.52.43 1.015 1.125.893Zm7.331 7.241c.086.194.165.376.247.557.397.872.546.958 1.479.86.478-.05.561-.228.359-.669a585.165 585.165 0 0 1-2.313-5.102c-.143-.319-.254-.618-.68-.637-.433-.018-.733.149-.926.536-.593 1.193-1.215 2.37-1.776 3.577-.257.55-.428 1.146-.586 1.735-.119.442.065.628.521.639.452.012.804-.138 1.003-.575.151-.33.322-.651.458-.922l2.214.001Zm25.536-3.26c0-.352-.012-.706.003-1.057.015-.349-.173-.509-.484-.548a2.829 2.829 0 0 0-.596-.012c-.499.046-.59.176-.568.683.023.519.08 1.047.023 1.559-.086.77-.225 1.539-.41 2.291-.105.423-.428.721-.916.688-.473-.031-.693-.382-.798-.78-.11-.411-.2-.841-.201-1.263-.003-.902.075-1.805.077-2.708 0-.182-.144-.458-.296-.529-.5-.235-1.047.055-1.181.594-.276 1.109-.403 2.234-.186 3.368.213 1.114.692 2.047 1.891 2.367 1.423.38 2.605-.236 3.178-1.635.396-.965.495-1.984.464-3.018Zm-19.174-.012c0 .337.05.684-.01 1.01-.131.716-.269 1.441-.513 2.123-.08.224-.498.46-.754.451-.253-.01-.577-.271-.724-.51-.176-.285-.266-.665-.271-1.006-.015-1.024.04-2.048.041-3.072 0-.203-.05-.485-.187-.596-.391-.32-1.122-.086-1.256.397-.381 1.38-.505 2.777-.057 4.166.28.866.833 1.496 1.76 1.713 1.447.34 2.606-.265 3.156-1.686.515-1.33.56-2.723.425-4.123-.015-.158-.219-.388-.374-.425a2.089 2.089 0 0 0-.904.003c-.134.029-.298.255-.316.407-.045.378-.014.765-.016 1.148Zm2.297-6.424c.301-.354.667-.641.845-1.019.529-1.126-.148-2.403-1.425-2.599-.852-.131-1.735-.056-2.606-.077-.519-.012-.672.268-.669.748.01 1.577-.004 3.154-.005 4.733 0 .528.114.642.645.66.184.006.369.008.551-.011.319-.031.492-.182.477-.539-.022-.53-.006-1.061-.006-1.584.509-.08.504-.078.729.294.261.432.512.872.8 1.285.384.551.793.678 1.437.5.503-.139.585-.308.309-.746-.364-.582-.753-1.148-1.082-1.645ZM4.684 48.173h-.081v1.562c.002.54.097.683.653.719a12.34 12.34 0 0 0 1.874.001c2.084-.179 3.22-1.687 2.877-3.754-.163-.979-.576-1.777-1.525-2.194-1.11-.487-2.272-.391-3.432-.256-.27.031-.374.199-.372.48.013 1.147.006 2.294.006 3.442ZM36.2 39.015c-.211-.384-.362-.665-.519-.943-.396-.708-.786-1.42-1.197-2.12-.242-.411-.656-.439-1.052-.323-.158.046-.369.27-.374.417-.058 1.715-.081 3.43-.115 5.146-.008.396.093.699.566.725.474.027.765-.172.843-.646.059-.36.077-.73.089-1.096.015-.461.004-.922.004-1.383.19.207.294.427.423.632.44.698.876 1.402 1.34 2.085.241.356.64.378.993.245.166-.061.352-.316.364-.494a163.3 163.3 0 0 0 .28-5.137c.006-.16-.197-.421-.359-.478-.617-.219-1.032.063-1.102.751-.084.831-.119 1.668-.184 2.619Zm8.395-23.314c-.765.114-1.102.471-1.272 1.201a104.977 104.977 0 0 1-1.633 6.073c-.384 1.294-.937 2.531-1.815 3.586-1.092 1.308-2.524 1.485-3.915.496-.837-.595-1.4-1.411-1.812-2.333a.925.925 0 0 1-.015-.667c.897-2.114 1.198-4.309.833-6.569-.11-.683-.388-1.349-.666-1.99-.168-.392-.484-.727-.989-.704-.49.022-.711.394-.89.767a5.36 5.36 0 0 0-.388 1.076c-.591 2.501-.429 4.987.182 7.463.046.186.046.441-.047.593-.772 1.256-1.751 2.326-2.984 3.146-.868.578-1.813.961-2.859 1.052-1.834.159-3.127-.736-4.043-2.212-1.569-2.53-1.884-5.255-.975-8.079.647-2.012 2.05-3.331 4.109-3.841.867-.215 1.786-.215 2.68-.334.329-.043.801.063.871-.372.02-.129-.469-.444-.759-.502-2.532-.507-4.817.009-6.726 1.804-.513.483-.911 1.09-1.373 1.656-.68-1.431-1.826-2.317-3.329-2.682.095-.527.235-.99.25-1.457.021-.645-.378-.892-1.006-.741-.182.044-.39-.025-.586-.027-.176-.002-.368-.027-.527.031-.225.082-.424.23-.636.351-.52-.383-.75-.384-1.255.039-.412.344-.82.695-1.202 1.07a4.286 4.286 0 0 0-.656.821c-.078.129-.082.41.006.504.107.114.366.173.527.13.303-.081.582-.252.882-.389.127.377.132.861.674.916.59.059.876-.352 1.127-.789.119-.207.217-.426.356-.702.376.866 1.094 1.243 1.846 1.559 1.691.713 2.464 2.041 2.436 3.806-.062 3.841-1.854 6.831-4.785 9.17-1.341 1.071-2.494 1.038-3.864-.011-2.573-1.974-3.96-4.573-3.8-7.859.076-1.591.499-3.085 1.874-4.129.448-.341.787-.784.607-1.402.365-.017.716.024 1.029-.067.215-.063.375-.311.56-.475-.193-.17-.367-.453-.582-.489-.461-.077-.944-.049-1.415-.023-.884.049-1.034.282-.738 1.084-1.056.081-1.126.175-.769 1.058-1.034.695-1.593 1.716-1.896 2.887-.091.35-.264.533-.582.672-.729.32-1.235.845-1.356 1.669-.196 1.343.5 2.397 1.91 2.841a.794.794 0 0 1 .546.483c.717 1.602 1.703 3.012 3.046 4.158 2.111 1.803 4.186 1.923 6.467.351 1.725-1.19 3.019-2.77 4.034-4.589.076-.136.156-.268.267-.463.368 1.224.864 2.292 1.609 3.225 1.376 1.722 3.071 2.832 5.385 2.559 1.762-.208 3.252-1.046 4.591-2.17.652-.547 1.283-1.12 1.886-1.648.236.329.547.844.934 1.291 1.694 1.96 4.418 2.117 6.337.377.904-.821 1.479-1.87 1.956-2.975.867-2.009 1.331-4.134 1.749-6.27.192-.988.38-1.976.579-3.005Zm10.645-5.389V56.53H0V0h55.24v8.194c-.748.349-1.499.692-2.243 1.048-1.254.6-2.505 1.209-3.788 1.83-.047-.238-.09-.428-.123-.621-.43-2.567-.847-5.138-1.306-7.701-.048-.269-.294-.59-.537-.72-.714-.381-1.374.06-1.497.911a717.67 717.67 0 0 1-.991 6.685c-.165 1.07-.368 2.135-.556 3.216.693-.148 1.139-.464 1.106-1.227-.012-.272.062-.548.094-.821l.679-5.624c.049.133.079.187.088.244.325 2.105.64 4.211.978 6.313.05.313-.105.398-.324.505-1.781.858-3.558 1.72-5.335 2.585-.164.08-.335.162-.472.28-.246.21-.329.483-.158.781.159.277.409.356.71.261.145-.046.288-.102.429-.162l4.946-2.104c.148-.063.3-.112.463-.172.04.109.07.163.078.221.746 4.862 1.489 9.724 2.239 14.584.097.635.194 1.274.364 1.89.145.52.598.814 1.056.815.473.001.942-.3 1.085-.776.081-.269.099-.579.055-.857-.332-2.072-.688-4.141-1.037-6.211-.566-3.369-1.127-6.738-1.706-10.104-.064-.371.03-.529.381-.674 1.783-.742 3.55-1.516 5.322-2.277Z" fill="#B91733" mask="url(#b)"/></g><path d="M61.24 27.312c-1.773.762-3.538 1.535-5.32 2.276-.352.146-.446.303-.382.674.58 3.366 1.14 6.735 1.707 10.104.348 2.07.703 4.139 1.037 6.21.044.278.025.589-.055.858-.143.476-.612.777-1.085.776a1.098 1.098 0 0 1-1.056-.815c-.172-.616-.267-1.256-.365-1.89-.75-4.86-1.492-9.722-2.238-14.584-.01-.058-.04-.113-.078-.221-.163.06-.316.109-.464.172-1.649.7-3.297 1.403-4.947 2.104-.14.059-.282.116-.428.163-.302.095-.553.016-.71-.262-.172-.297-.087-.571.157-.781.139-.117.309-.2.473-.28 1.777-.865 3.555-1.727 5.335-2.585.22-.106.375-.192.325-.504-.34-2.103-.654-4.21-.979-6.314-.009-.057-.038-.111-.087-.244l-.68 5.624c-.032.274-.105.55-.093.82.032.764-.413 1.08-1.108 1.228.19-1.08.394-2.144.558-3.216.342-2.226.668-4.455.99-6.684.123-.852.784-1.293 1.496-.912.243.13.49.45.538.72.459 2.563.877 5.134 1.306 7.7.032.193.075.384.123.622 1.283-.621 2.535-1.23 3.788-1.83.745-.356 1.497-.698 2.244-1.048-.002.707-.002 1.412-.002 2.119" fill="#FEFEFE"/><path d="M10.912 37.868c-.723.714-.607 1.746.191 2.165l-.191-2.165m28.502-4.172c-.45 1.749-.464 3.5-.113 5.258.438-1.746.55-3.498.112-5.258m11.181-.994c-.197 1.027-.386 2.016-.58 3.004-.419 2.136-.883 4.26-1.75 6.27-.477 1.105-1.052 2.154-1.956 2.975-1.919 1.74-4.644 1.583-6.337-.376-.386-.448-.698-.963-.932-1.292-.602.528-1.234 1.1-1.888 1.648-1.339 1.124-2.828 1.962-4.59 2.17-2.314.274-4.01-.837-5.386-2.56-.745-.931-1.24-2-1.608-3.223-.111.193-.192.326-.268.462-1.014 1.82-2.308 3.399-4.034 4.589-2.279 1.573-4.355 1.452-6.466-.351-1.343-1.146-2.328-2.555-3.046-4.157-.117-.261-.268-.396-.546-.484-1.409-.443-2.107-1.497-1.91-2.841.12-.823.627-1.35 1.355-1.67.319-.138.492-.321.583-.671.303-1.171.864-2.192 1.896-2.887-.357-.884-.288-.977.768-1.057-.295-.802-.146-1.036.739-1.085.472-.025.954-.053 1.415.023.214.036.388.319.581.49-.184.165-.346.41-.56.474-.312.092-.663.05-1.029.067.18.619-.159 1.062-.605 1.402-1.376 1.045-1.798 2.54-1.876 4.13-.159 3.286 1.227 5.885 3.802 7.858 1.369 1.05 2.52 1.082 3.863.012 2.93-2.34 4.724-5.331 4.785-9.171.027-1.764-.745-3.093-2.436-3.805-.752-.316-1.47-.694-1.846-1.56-.14.277-.237.496-.355.702-.253.437-.54.848-1.128.789-.543-.054-.549-.54-.674-.916-.3.139-.58.309-.882.39-.162.043-.42-.017-.527-.13-.088-.093-.084-.376-.006-.505.18-.297.406-.576.655-.821.382-.375.79-.726 1.202-1.07.505-.423.737-.422 1.256-.038.21-.12.41-.27.636-.35.159-.058.35-.034.528-.032.195.003.402.07.584.027.63-.151 1.027.097 1.006.742-.015.467-.155.93-.25 1.456 1.503.365 2.65 1.252 3.33 2.683.462-.565.86-1.173 1.373-1.657 1.909-1.795 4.194-2.31 6.726-1.804.288.059.777.374.758.503-.07.434-.541.329-.87.372-.893.117-1.813.118-2.68.333-2.06.51-3.462 1.83-4.11 3.842-.909 2.824-.593 5.548.976 8.079.915 1.477 2.208 2.372 4.043 2.212 1.044-.091 1.99-.475 2.858-1.052 1.234-.821 2.214-1.89 2.985-3.147.093-.152.094-.408.047-.592-.611-2.476-.774-4.961-.182-7.464.087-.37.224-.733.388-1.076.178-.374.4-.746.89-.767.506-.022.82.313.99.704.276.642.554 1.308.666 1.99.363 2.262.063 4.455-.835 6.57a.93.93 0 0 0 .015.667c.411.92.974 1.737 1.813 2.332 1.392.99 2.825.813 3.915-.496.879-1.054 1.43-2.292 1.815-3.586a105.142 105.142 0 0 0 1.633-6.073c.172-.731.51-1.088 1.273-1.201M42.2 56.015c.065-.951.1-1.788.185-2.62.07-.688.484-.97 1.102-.751.16.058.365.319.359.478a166.204 166.204 0 0 1-.28 5.137c-.013.178-.2.433-.364.494-.353.133-.753.11-.994-.245-.464-.683-.9-1.385-1.34-2.085-.13-.205-.232-.425-.423-.632 0 .46.012.923-.004 1.383a8.524 8.524 0 0 1-.09 1.096c-.077.475-.368.673-.842.646-.473-.027-.573-.33-.566-.725.034-1.716.057-3.431.115-5.146.005-.148.218-.37.375-.417.396-.117.81-.088 1.05.323.413.699.8 1.412 1.199 2.12.157.279.308.56.518.944M12.206 66.348c.86.01 1.537-.301 2.007-.994.466-.686.47-1.427.035-2.117-.457-.728-1.19-.945-2.043-.93l.001 4.04Zm-1.523-1.175c0-1.147.007-2.294-.004-3.442-.003-.281.102-.448.372-.48 1.16-.135 2.322-.231 3.432.256.948.416 1.362 1.216 1.525 2.194.343 2.068-.794 3.577-2.877 3.755-.62.053-1.252.039-1.875-.001-.555-.037-.65-.18-.652-.72v-1.562h.08ZM29.447 53.566v2.106c.593.027 1.189.052 1.466-.487.154-.302.148-.808 0-1.118-.282-.587-.908-.494-1.466-.501m2.222 2.797c.328.496.719 1.062 1.085 1.644.275.438.194.607-.31.746-.643.179-1.052.053-1.436-.5-.288-.413-.54-.853-.801-1.285-.224-.372-.221-.374-.73-.294 0 .523-.015 1.054.007 1.584.015.357-.16.508-.476.54a4.223 4.223 0 0 1-.551.01c-.531-.017-.647-.131-.645-.66 0-1.577.016-3.156.004-4.733-.003-.481.149-.76.67-.747.869.02 1.754-.056 2.606.076 1.277.198 1.953 1.474 1.425 2.599-.18.378-.547.665-.848 1.02M29.373 62.786c0-.384-.03-.77.015-1.148.02-.153.183-.378.316-.407.291-.063.616-.07.905-.004.154.036.36.267.374.426.136 1.4.09 2.793-.425 4.122-.552 1.422-1.709 2.026-3.155 1.687-.928-.217-1.48-.846-1.76-1.713-.45-1.389-.325-2.786.056-4.166.134-.483.865-.717 1.255-.397.136.111.188.392.188.596-.002 1.024-.055 2.05-.04 3.072.003.34.095.72.27 1.005.148.24.47.501.724.51.256.01.674-.227.755-.45.242-.683.38-1.407.512-2.123.06-.325.01-.673.01-1.01M48.546 62.798c.03 1.033-.067 2.051-.465 3.018-.574 1.399-1.755 2.015-3.178 1.635-1.2-.32-1.678-1.253-1.891-2.367-.216-1.134-.09-2.259.186-3.368.135-.539.683-.829 1.18-.594.155.072.299.347.298.529-.003.903-.081 1.805-.078 2.708 0 .422.09.853.2 1.263.106.397.326.749.799.78.488.033.812-.265.916-.688.185-.752.324-1.521.41-2.291.059-.512.002-1.04-.023-1.559-.023-.507.069-.637.569-.683a2.82 2.82 0 0 1 .595.012c.31.039.498.197.484.548-.014.353-.002.705-.002 1.057M22.573 65.038l-.607-1.755-.781 1.755h1.388Zm.437 1.02h-2.214c-.136.27-.307.592-.458.922-.2.437-.551.587-1.003.576-.456-.012-.64-.198-.521-.64.158-.59.329-1.185.586-1.735.562-1.207 1.183-2.384 1.776-3.576.193-.39.492-.556.926-.536.426.018.537.316.68.637a556.614 556.614 0 0 0 2.313 5.1c.202.443.119.62-.36.67-.932.098-1.081.01-1.477-.86-.082-.182-.161-.363-.248-.558ZM13.284 54.736l-.795 1.72h1.395l-.6-1.72m2.396 4.081c-.696.122-.935-.374-1.128-.893-.141-.379-.31-.558-.767-.457-.362.081-.766.042-1.14-.019-.39-.064-.635-.007-.76.41a2.13 2.13 0 0 1-.35.64c-.103.138-.264.296-.418.315-.29.038-.661.081-.862-.066-.138-.1-.121-.539-.046-.789.538-1.785 1.429-3.407 2.375-5 .2-.336.547-.44.877-.339.224.07.469.283.572.497.81 1.68 1.585 3.375 2.376 5.063.196.416.11.588-.354.636-.12.012-.242.002-.375.002M39.52 62.194v1.564c.528 0 1.03-.001 1.531.002.138 0 .302-.033.407.029.166.098.293.265.437.403-.149.13-.287.36-.448.377-.53.054-1.07.033-1.607.043-.09 0-.18.008-.329.015v1.75c.737 0 1.454-.002 2.17.002.414.004.557.239.53.629-.028.363-.159.554-.568.544-.966-.022-1.932-.003-2.898-.008-.796-.005-1.007-.221-1.014-1-.01-1.44-.033-2.88-.034-4.32-.002-.938.134-1.056 1.062-1.063.966-.008 1.93-.03 2.896-.034.254-.001.561-.033.575.352.013.355-.035.712-.484.75-.454.039-.915.034-1.373.03-.272-.002-.542-.04-.854-.065M18.548 56.073c.606-.013 1.17-.037 1.485-.585a1.214 1.214 0 0 0-.055-1.344c-.347-.497-.874-.539-1.431-.475v2.404m.045.953c0 .4-.025.795.007 1.183.035.406-.161.568-.521.592-.23.015-.46.013-.688-.005-.301-.023-.47-.178-.467-.505.013-1.698.02-3.398.026-5.096 0-.314.122-.497.455-.494.853.008 1.719-.071 2.557.047 1.184.166 1.808 1.032 1.758 2.205-.05 1.157-.72 1.864-1.927 2.006-.39.045-.786.045-1.2.067M23.968 56.078c.62-.022 1.199-.052 1.51-.636a1.198 1.198 0 0 0-.08-1.307c-.355-.493-.891-.523-1.43-.473v2.416Zm.053.95c0 .38-.02.76.005 1.136.028.429-.158.63-.576.643-.077.002-.154.004-.231.004-.775.004-.884-.055-.888-.8-.01-1.621.019-3.243.062-4.864.004-.148.222-.414.345-.416.927-.018 1.873-.092 2.777.06 1.147.196 1.7 1.072 1.612 2.208-.092 1.166-.733 1.83-1.917 1.96-.39.044-.785.048-1.19.07ZM35.398 55.975v1.71c.683 0 1.35-.01 2.019.003.523.011.719.28.597.77-.058.234-.171.361-.444.358-1.011-.014-2.023.003-3.034-.01-.611-.007-.844-.233-.85-.828-.01-1.546.002-3.093-.008-4.64-.003-.415.188-.667.58-.677a92.337 92.337 0 0 1 3.492-.015c.102.001.267.198.285.321.044.3-.013.64-.373.685-.496.061-1.003.045-1.505.045-.241 0-.48-.038-.75-.06v1.502h1.02c.184 0 .372-.016.552.011.302.043.733-.022.713.448-.021.477-.446.367-.748.375-.502.012-1.004.002-1.546.002M53.89 57.63c.424-.05.858-.065 1.268-.17.183-.049.406-.262.443-.436.028-.13-.179-.373-.339-.47-.521-.32-1.084-.572-1.603-.894-.559-.346-.975-.808-.863-1.54.118-.76.65-1.178 1.331-1.28.823-.123 1.669-.11 2.506-.11.359 0 .474.296.459.622-.015.34-.164.521-.547.513a9.696 9.696 0 0 0-1.465.08c-.182.024-.479.2-.483.318-.008.18.146.443.309.541.468.285.981.497 1.468.755.533.283.942.667 1.034 1.314.107.762-.146 1.335-.847 1.66-1.093.508-2.23.478-3.367.166-.361-.098-.494-.38-.44-.754.057-.39.342-.367.625-.358.168.006.337.001.505.001a.327.327 0 0 1 .006.042M33.79 62.461c-.51-.047-.995-.086-1.478-.136-.376-.04-.508-.252-.49-.63.02-.395.193-.533.572-.53 1.44.015 2.878.019 4.317.019.378 0 .468.241.48.538.013.304-.029.6-.432.625-.35.022-.706.07-1.055.047-.432-.031-.504.162-.494.542.034 1.194.046 2.389.041 3.584-.003.88-.554 1.216-1.396.899-.317-.119-.34-.367-.325-.634.072-1.3.151-2.599.228-3.897.008-.139.02-.275.031-.427M47.776 53.856v3.666c0 .214-.02.428-.033.642-.015.254.035.597-.31.625-.41.032-.833-.019-1.239-.097-.077-.014-.144-.322-.137-.49.06-1.33.141-2.659.215-3.989.006-.106.02-.213.03-.34-.48-.044-.949-.084-1.418-.129-.392-.036-.54-.239-.532-.642.008-.42.226-.529.578-.526 1.454.012 2.908.025 4.362.04.411.002.395.332.404.593.011.265-.048.525-.412.544-.503.025-1.005.068-1.508.103M54.885 66.306c.725.044 1.399.056 2.064.142.218.028.502.207.593.395.222.459.023.71-.486.712-1.074.003-2.147.006-3.221-.001-.571-.003-.711-.092-.709-.658.009-1.713.057-3.426.1-5.14.01-.374.161-.636.606-.634.653.005.912.138.938.665.063 1.347.079 2.695.114 4.044.003.152.001.303.001.475M51.776 64.524c-.057.84-.12 1.68-.17 2.52-.022.37-.232.507-.57.511l-.231.001c-.73.002-.864-.059-.861-.797.007-1.683.09-3.365.137-5.047.013-.433.242-.576.652-.56.635.022.816.11.856.573.078.93.127 1.863.187 2.8M51.973 55.932c-.038.731-.067 1.496-.123 2.258-.04.568-.2.692-.795.7-.634.008-.848-.116-.846-.68.003-1.636.03-3.273.105-4.906.031-.667.764-.964 1.292-.539.164.132.22.457.238.701.064.807.088 1.62.13 2.466" fill="#FEFEFE"/><path d="M32.327 43.321c-1.362-.058-2.33-.305-3.12-1.01a2.634 2.634 0 0 1-.569-.763c-.071-.139-.048-.44.052-.523.13-.108.381-.094.579-.087.087.003.188.103.255.182.861 1.034 2.002 1.135 3.22.967.287-.04.569-.12.851-.187.326-.078.593.008.716.325.127.328-.08.55-.359.638-.636.202-1.283.363-1.625.458M18.301 44.04c-.925-.035-1.733-.341-2.37-1.033-.2-.22-.339-.465-.106-.73.243-.276.522-.203.773.004.902.743 1.898.736 2.941.379.13-.044.273-.16.381-.131.203.05.456.142.552.299.066.106-.042.424-.17.528-.575.469-1.269.649-2 .685M19.543 61.857l-.002.045c-.061.558-1.454 1.736-2.023 1.71-.396-.017-.648-.395-.43-.755.35-.572.742-1.13 1.193-1.624.13-.144.56-.135.785-.04.229.097.375.389.557.594a5.005 5.005 0 0 1-.08.07M34.652 36.682c.443.152.958.29 1.435.506.303.137.52.427.346.795-.182.381-.485.265-.827.2a8.185 8.185 0 0 0-1.713-.134c-.318.007-.6.048-.708-.31-.102-.339.045-.633.352-.764.319-.136.673-.18 1.115-.293M29.551 35.587c.475.17 1.011.328 1.514.558.2.092.407.32.465.526.054.193-.027.49-.16.646-.085.097-.41.092-.563.011-.617-.332-1.243-.552-1.96-.525-.165.006-.44-.2-.482-.358-.043-.163.085-.469.233-.562.242-.15.561-.183.953-.296M21.697 36.04c.393.127.768.206 1.105.366.332.157.483.476.407.843-.06.29-.201.495-.578.404-.549-.131-1.11-.208-1.657-.34-.167-.041-.43-.187-.431-.288-.005-.214.075-.517.23-.627.258-.185.603-.242.924-.358M16.235 36.04c.352.129.652.164.839.328.154.136.23.425.226.643-.003.102-.267.246-.433.288-.502.128-1.014.21-1.521.315-.265.054-.59.102-.652-.212-.05-.243.018-.659.185-.767.417-.273.92-.414 1.356-.595M18.506 41.035c-.343-.178-.725-.324-1.034-.565-.111-.085-.106-.428-.03-.596.04-.086.397-.122.539-.048.415.221.797.218 1.231.065.163-.058.39.061.589.099-.063.214-.059.529-.201.622-.297.193-.667.267-1.094.423" fill="#FEFEFE"/><path d="M39.413 33.696c.438 1.76.326 3.511-.111 5.257-.35-1.757-.335-3.509.111-5.257M10.912 37.868l.191 2.165c-.795-.42-.914-1.453-.191-2.165M12.206 66.348v-4.041c.853-.017 1.585.202 2.043.928.434.69.432 1.43-.035 2.118-.47.694-1.149 1.005-2.008.995M29.447 53.566c.559.007 1.186-.086 1.466.5.148.31.154.817 0 1.119-.277.539-.873.514-1.466.487v-2.106ZM22.573 65.038h-1.388c.258-.58.502-1.127.78-1.755.219.628.408 1.176.608 1.755M13.284 54.736l.6 1.72h-1.395l.795-1.72M18.548 56.073v-2.404c.557-.062 1.083-.022 1.43.475.293.417.308.907.057 1.344-.317.548-.881.572-1.487.585M23.968 56.078v-2.415c.539-.05 1.075-.02 1.43.473.287.4.313.874.08 1.307-.312.583-.89.613-1.51.635" fill="#B91733"/></g></svg>