<svg width="99" height="96" xmlns="http://www.w3.org/2000/svg"><g fill="none" fill-rule="evenodd"><path fill="#EB671C" d="M6 92h87V5H6z"/><g fill="#FEFEFE"><path d="M16.992 74.836c-2.371 0-2.816 2.105-2.816 3.626 0 1.52.431 3.63 2.816 3.63s2.819-2.115 2.819-3.63c0-1.515-.432-3.626-2.819-3.626m0 9.893c-3.15 0-5.992-1.967-5.992-6.267 0-4.3 2.842-6.27 5.992-6.27s5.99 1.97 5.99 6.27-2.837 6.267-5.99 6.267M25.169 72.508H28.2v1.395c.577-.755 2-1.64 3.335-1.64.138-.004.276.002.414.016v2.936h-.155c-1.387 0-2.903.212-3.392 1.27v7.9H25.17V72.507ZM35.954 80.848c0 .8.51 1.546 1.436 1.546 1 0 1.978-.406 2.952-1.252v-2.813c-2.978.361-4.388 1.114-4.388 2.519Zm4.463 2.502a7.234 7.234 0 0 1-4.004 1.18c-2.257 0-3.596-1.48-3.596-3.454 0-2.66 2.49-4.065 7.626-4.632v-.662c0-.863-.666-1.369-1.9-1.369a3.66 3.66 0 0 0-2.958 1.369L33.43 74.58c1.128-1.55 2.847-2.326 5.156-2.326 3.159 0 4.933 1.34 4.933 3.526v8.609H40.7l-.283-1.04v.001ZM46.045 72.823l2.64-.356.29 1.407c1.489-1.068 2.67-1.635 4.158-1.635 2.49 0 3.78 1.297 3.78 3.865v8.27h-3.19v-7.727c0-1.455-.383-2.115-1.537-2.115-.95 0-1.901.423-2.986 1.318v8.518h-3.155V72.823ZM70.396 72.463v11.249c0 1.982-.16 5.258-5.925 5.288-2.373.015-4.591-.92-5.031-2.961l3.144-.498c.129.584.498 1.164 2.278 1.164 1.652 0 2.446-.774 2.446-2.629v-1.383l-.04-.043c-.508.89-1.277 1.733-3.128 1.733-2.824 0-5.045-1.923-5.045-5.938 0-3.975 2.292-6.2 4.864-6.202 2.42 0 3.312 1.077 3.524 1.644h-.044l.265-1.422 2.692-.002Zm-5.684 9.369c2.415-.017 2.622-2.433 2.622-4.002 0-1.864-.925-3.37-2.643-3.37-1.146 0-2.424.82-2.424 3.498 0 1.462.105 3.894 2.445 3.874ZM80.407 76.865c0-1.587-.93-2.522-2.44-2.522-1.441 0-2.343.914-2.467 2.522h4.907ZM78.016 84.6c-3.569 0-5.697-2.254-5.697-6.16 0-3.953 2.156-6.202 5.647-6.202s5.57 2.183 5.57 6.043c0 .211-.026.41-.026.613h-8.062c.021 2.255.977 3.385 2.85 3.385 1.206 0 2.004-.478 2.751-1.52l2.332 1.268c-1.027 1.692-2.877 2.568-5.365 2.568v.005ZM81.62 68v.52h1.254v3.406h.664V68.52h1.255V68H81.62Zm7.37 0-1.172 2.978L86.624 68H85.6v3.926h.662V68.65h.017l1.314 3.276h.43l1.295-3.276h.021v3.276H90V68h-1.01Z"/></g></g></svg>