<svg width="133" height="68" xmlns="http://www.w3.org/2000/svg"><g fill="none" fill-rule="evenodd"><path fill="#1E1E1C" d="M32.565 39.846h.533V2.761h-.533zM21.587 20.062a4.661 4.661 0 0 1 .437 4.591 4.108 4.108 0 0 1-3.71 2.242 2.957 2.957 0 0 1-1.061-.193l-.201 1.134a4.103 4.103 0 0 1 1.43-.183c2.008 0 3.118 1.135 4.149 2.79a6.56 6.56 0 0 1-.172 6.625c-1.211 1.606-2.855 2.067-4.848 1.72a4.042 4.042 0 0 1-1.214-.368c-.381-.188-.09-3.518-.122-5.76-.047-3.674 0-5.749 0-9.423 0-1.855.069-4.77.069-4.77a5.758 5.758 0 0 1 4.056.53c.45.28.839.652 1.139 1.091l.048-.026Zm2.534-.048a4.71 4.71 0 0 1-.061 4.241c-.721 1.591-3.218 2.802-3.51 2.916a5.853 5.853 0 0 1 5.037 4.153 7.082 7.082 0 0 1-1.434 6.677c-1.326 1.394-2.916 2.06-5.778 2.006-1.91-.037-2.964-.193-4.851-.175-.82 0-1.376.06-1.376.06l-.08-.68c.552-.127 1.36.061 1.856-.739.218-.326.363-2.577.406-4.24.055-2.106.079-5.398.079-5.398s0-3.636-.08-6.006a8.294 8.294 0 0 0-.036-.959c-.053-1.06-.2-2.752-.2-2.752-.08-.424-.047-.776-.667-1.06a3.875 3.875 0 0 0-1.734-.265v-.564c1.906.16 3.82.173 5.728.037 2.916-.194 5.58.222 6.669 2.74l.032.008ZM26.45 7.392a.682.682 0 1 1 .684.68h-.005a.685.685 0 0 1-.687-.68h.008Zm.117-1.535a.679.679 0 1 1 .678.682.684.684 0 0 1-.686-.682h.008Zm-1.002-1.21a.686.686 0 0 1 1.365 0 .683.683 0 0 1 0 .063.686.686 0 1 1-1.37 0c.005-.022.005-.043.005-.064Zm-3.202 1.515a.678.678 0 1 1 1.356 0 .678.678 0 0 1-1.356 0Zm1.74-2.12a.68.68 0 1 1 1.361-.006.68.68 0 0 1-.679.684h-.002a.682.682 0 0 1-.68-.68v.002Zm-1.406.668a.679.679 0 1 1 .678.678.68.68 0 0 1-.678-.68v.002ZM21.69 3.594a.686.686 0 1 1 .689.684h-.003a.684.684 0 0 1-.686-.682v-.005.003Zm-1.517-.104a.681.681 0 1 1 .684.68h-.005a.685.685 0 0 1-.679-.682v.002Zm-1.7.358A1.167 1.167 0 0 1 17.3 2.83a3.359 3.359 0 0 1 2.346 0 1.158 1.158 0 0 1-1.174 1.005v.013Zm-5.689 9.895c0-.46 2.552-.838 5.698-.838 3.147 0 5.704.377 5.704.838 0 .461-2.549.824-5.704.824-3.154 0-5.698-.37-5.698-.83v.006ZM9.142 7.48a.683.683 0 1 1 .684.684.687.687 0 0 1-.695-.678v-.008l.011.002ZM9.02 5.93a.679.679 0 1 1 .68.678.683.683 0 0 1-.68-.678Zm.967-1.235a.687.687 0 1 1 .69.684h-.003a.688.688 0 0 1-.679-.684h-.008Zm1.442-.575a.681.681 0 1 1 .684.678h-.002a.684.684 0 0 1-.674-.678h-.008Zm1.413.636a.687.687 0 1 1 .69.684h-.003a.69.69 0 0 1-.687-.69v.006Zm.347 1.455a.682.682 0 1 1 .684.678h-.003a.684.684 0 0 1-.68-.678Zm.663-2.582a.678.678 0 1 1 .678.68.679.679 0 0 1-.678-.68Zm1.521-.116a.688.688 0 0 1 .728-.707.687.687 0 0 1 .643.707.685.685 0 0 1-1.363 0h-.008Z"/><path d="M18.472 6.417a1.952 1.952 0 0 0-.795.109 4.171 4.171 0 0 0-.859-2.746c-.029-.226.315-.353.315-.353a1.536 1.536 0 0 0 2.68 0c.265-.485.347.127.316.35a4.174 4.174 0 0 0-.859 2.746 1.956 1.956 0 0 0-.795-.109l-.003.003Zm1.17-4.008a1.215 1.215 0 0 0-.674-.837l-.32-.562.055-.069.53.265V.337l-.53.265-.072-.072.321-.53h-.97l.315.53-.072.08-.53-.265v.866l.53-.265.06.072-.322.57a1.218 1.218 0 0 0-.673.843c-.08.371.066-.189.837-.189v-.607c.202-.056.416-.056.618 0v.584c.795 0 .861.212.861.212l.035-.022ZM18.472 6.658a.964.964 0 0 1 .75.212c0 .34-.15.39-.265.512a.377.377 0 0 0-.087.241.383.383 0 0 0 .265.363.459.459 0 0 0 .41-.217c.067-.098.085-.218.207-.236.122-.019.231.193.265.363.035.17-.079 1.023-.432.957-.236-.048-.132-.332-.429-.443a.506.506 0 0 0-.43 0c-.225.098-.135.607 0 .936.064.19.197.348.374.442.658.284 1.082-1.06 1.148-1.26a.265.265 0 0 1 .09-.5c.133-.033.27.04.315.17a.264.264 0 0 1-.047.265.237.237 0 0 1-.178.093c-.048.29-.143 1.211.353 1.367.212.075.57-.193.758-.485.188-.29.405-.829.103-.909a.352.352 0 0 0-.37.061c-.213.188-.266.395-.473.321-.207-.074-.06-.374 0-.604.061-.23.17-.679.395-.687.225-.008.157.395.472.48.12.02.241-.032.31-.133a.469.469 0 0 0 .085-.357c0-.183-.159-.266-.154-.45 0-.515 1.214-.322 1.325.177.06.265-.699.43-.638.848 0 .146.212.114.365.066.265-.08.265-.284.491-.32.503-.067-.236 1.534-.517 1.211-.096-.12-.035-.279-.156-.374a.402.402 0 0 0-.146-.08c-.382-.127-.655.42-.607.811 0 .25.07.493.297.552.334.085.941-.369 1.346-1.09a.266.266 0 0 1 0-.315.265.265 0 0 1 .265-.127.23.23 0 0 1 .18.095.263.263 0 0 1 0 .33.248.248 0 0 1-.249.107c-.15.334-.575 1.214-.07 1.352.277.09.794-.315.89-.387.248-.23.702-.607.46-.747-.24-.14-.649.376-.885.122-.15-.15.043-.53.225-.81.11-.166.162-.33.358-.367.316-.058.194.56.501.65.607.177.173-.905.724-.958.241 0 .411 0 .514.207a.698.698 0 0 1 0 .363c-.949.89-1.77 1.906-2.44 3.02-.2-.557-2.522-.97-5.676-.97-3.154 0-5.497.4-5.699.956a11.763 11.763 0 0 0-2.425-2.987.698.698 0 0 1 0-.363c.103-.196.265-.23.53-.207.552.053.09 1.134.721.957.31-.09.188-.708.504-.65.193.038.25.202.358.366.18.28.376.66.23.811-.244.265-.559-.334-.89-.122-.332.212.212.53.466.748.077.071.604.477.885.387.501-.157.077-1.018-.074-1.352a.264.264 0 0 1-.249-.109.264.264 0 0 1 0-.328.252.252 0 0 1 .188-.096.264.264 0 0 1 .265.127c.07.094.07.222 0 .316.4.721 1.013 1.174 1.341 1.09.33-.086.28-.303.297-.552.037-.392-.244-.938-.607-.81a.496.496 0 0 0-.15.078c-.123.096-.056.265-.16.374-.278.334-1.018-1.267-.514-1.21.231.036.225.24.498.32.146.047.34.08.358-.067.058-.419-.697-.607-.607-.848.122-.498 1.278-.692 1.304-.177 0 .188-.154.265-.154.45a.51.51 0 0 0 .085.358.32.32 0 0 0 .316.132c.31-.084.206-.49.47-.479.261.01.33.381.396.686.067.305.112.562 0 .605-.11.042-.265-.133-.466-.32a.347.347 0 0 0-.368-.062c-.31.08-.09.607.103.91.193.301.546.558.75.484.504-.175.4-1.079.353-1.368a.22.22 0 0 1-.17-.092.243.243 0 0 1-.048-.265.265.265 0 0 1 .308-.17.265.265 0 0 1 .217.265.266.266 0 0 1-.125.231c.067.212.496 1.545 1.145 1.261a.797.797 0 0 0 .377-.442c.156-.329.246-.838 0-.936a.51.51 0 0 0-.432 0c-.297.111-.194.395-.43.443-.352.066-.479-.769-.429-.957.05-.188.095-.4.265-.363.17.037.141.137.207.235a.465.465 0 0 0 .413.218.379.379 0 0 0 .265-.36.37.37 0 0 0-.092-.244c-.114-.122-.265-.173-.265-.512a.961.961 0 0 1 .752-.212l-.005-.016Z" fill="#1E1E1C"/><path d="M18.475 10.867c3.152 0 5.715.315 5.614 1.018 0 .193.18.42.477.811-.138.14-.53.146-.49.53-.438-.443-3.382-.697-5.601-.697-2.22 0-5.166.265-5.598.705.05-.382-.355-.39-.49-.53.29-.395.474-.607.474-.814-.098-.702 2.46-1.018 5.614-1.018v-.005Zm-4.652 1.211-.673-.156-.466.716.432.217.72-.777h-.013Zm.74.287 1.778-.212v-.88l-1.778.193v.9Zm8.56-.287.693-.156.458.716-.43.217-.72-.777Zm-.738.287-1.771-.212v-.88l1.77.193v.9Zm-3.913-1.4-1.14.671 1.14.681 1.145-.687-1.145-.665ZM127.068 49.33c-.419 0-.909.358-1.103 1.21.261-.035.516-.099.764-.188.411-.137.758-.296.758-.683 0-.265-.212-.344-.419-.344v.005Zm-.109 1.394a6.227 6.227 0 0 1-1.06.265c-.01.088-.01.177 0 .265 0 .448.18.703.604.703.499-.04.969-.255 1.326-.605l.241.4a2.7 2.7 0 0 1-1.678.713c-.607 0-1.087-.265-1.087-1.15 0-1.163.607-2.425 1.856-2.425.53 0 .901.264.901.733 0 .47-.382.836-1.103 1.1Zm-1.948-1.041a.668.668 0 0 0-.442-.22c-.406 0-.872.53-1.164 1.54-.053.188-.236 1.388-.236 1.388h-.57c.066-.551.461-2.54.546-3.445h.607c-.046.337-.108.675-.188 1.007.315-.669.811-1.06 1.211-1.06a.607.607 0 0 1 .53.29l-.294.5Zm-4.042 2.731a1.172 1.172 0 0 1-.334-.029l.17-.95c-.131.197-.29.377-.472.53a1.812 1.812 0 0 1-1.153.478c-.376 0-.504-.235-.504-.606 0-.372.292-1.965.451-2.916h.575c-.193 1.133-.432 2.386-.432 2.733 0 .182 0 .25.196.25.57 0 1.31-.887 1.461-1.438.066-.264.265-1.544.265-1.544h.588s-.177.97-.265 1.59c-.188.993-.225 1.376-.225 1.376.212-.02.419-.08.607-.18l.18.373c-.325.223-.713.34-1.108.331v.002Zm-3.936-3.084c-.416 0-.909.358-1.103 1.21.261-.035.517-.099.764-.188.413-.137.758-.296.758-.683 0-.265-.212-.344-.419-.344v.005Zm-.109 1.394a6.227 6.227 0 0 1-1.06.265 1.466 1.466 0 0 0 0 .265c0 .448.183.703.607.703a2.12 2.12 0 0 0 1.325-.605l.242.4a2.701 2.701 0 0 1-1.678.713c-.607 0-1.087-.265-1.087-1.15 0-1.163.607-2.425 1.855-2.425.531 0 .904.264.904.733 0 .47-.387.836-1.108 1.1Zm-2.815 1.667h-.564l.898-5.596H115l-.891 5.596Zm-1.741 0h-.57l.899-5.596h.57l-.899 5.596Zm-1.325-4.487a.328.328 0 0 1-.326-.327v-.06c0-.247.196-.448.442-.454.226 0 .316.151.316.363a.442.442 0 0 1-.424.474l-.008.004Zm-.443 4.486h-.564l.559-3.444h.583l-.578 3.445Zm-2.12-3.06c-.419 0-.909.358-1.103 1.21.26-.035.516-.099.763-.188.406-.137.753-.296.753-.683 0-.265-.212-.344-.413-.344v.005Zm-.114 1.394c-.345.122-.7.21-1.06.265a1.068 1.068 0 0 0 0 .265c0 .448.18.703.604.703.5-.038.97-.252 1.325-.605l.249.4a2.697 2.697 0 0 1-1.678.713c-.607 0-1.092-.265-1.092-1.15 0-1.163.607-2.425 1.874-2.425.515 0 .902.264.902.733 0 .47-.398.836-1.124 1.1Zm-3.21 1.65a1.742 1.742 0 0 1-.382 0c.165-1.21.438-2.35.438-2.698 0-.18 0-.265-.189-.265-.607 0-1.341.984-1.449 1.352-.109.608-.231 1.248-.266 1.63h-.607c.165-1.21.451-2.385.451-2.727 0-.18 0-.264-.188-.264-.551 0-1.325.865-1.487 1.435-.053.212-.265 1.545-.265 1.545h-.57c.069-.55.485-2.703.607-3.444h.607a19.22 19.22 0 0 1-.201.993s.644-1.06 1.606-1.06c.384 0 .517.218.517.57 0 .113-.056.471-.056.471s.668-1.041 1.606-1.041c.377 0 .53.218.53.57s-.265 1.59-.392 2.425c.212-.02.417-.083.604-.182l.183.376a1.9 1.9 0 0 1-1.108.328l.011-.014Zm-7.827-3.848-.297-.265 1.37-1.21.395.306-1.468 1.17Zm.265.795c-.419 0-.909.358-1.103 1.212.261-.037.516-.1.764-.189.405-.138.752-.297.752-.684.019-.264-.212-.343-.413-.343v.005Zm-.114 1.395a5.77 5.77 0 0 1-1.06.264 1.068 1.068 0 0 0 0 .266c0 .447.18.703.607.703.5-.036.97-.25 1.325-.605l.249.4a2.7 2.7 0 0 1-1.678.714c-.607 0-1.092-.265-1.092-1.151 0-1.163.607-2.425 1.874-2.425.514 0 .904.265.904.733 0 .47-.406.843-1.132 1.108l.003-.008Zm-2.001-1.212h-1.026l-.22 1.255a5.306 5.306 0 0 0-.095.824c0 .278.132.358.32.358.278-.044.536-.17.74-.364v.504a1.647 1.647 0 0 1-1.013.362h-.047a.609.609 0 0 1-.607-.606c0-.266.114-.915.18-1.347.066-.431.159-.944.159-.944h-.53l.077-.468h.53l.281-.873h.434l-.145.88h1.023l-.061.42Zm-3.989-.97-.297-.264 1.37-1.213.395.308-1.468 1.17Zm.265.796c-.419 0-.909.358-1.103 1.21.26-.035.516-.099.763-.188.406-.137.758-.296.758-.683 0-.265-.22-.344-.418-.344v.005Zm-.114 1.394c-.345.122-.7.21-1.06.265a1.068 1.068 0 0 0 0 .265c0 .448.18.703.604.703a2.12 2.12 0 0 0 1.325-.605l.244.4a2.707 2.707 0 0 1-1.68.713c-.605 0-1.09-.265-1.09-1.15 0-1.163.604-2.425 1.871-2.425.517 0 .904.264.904.733 0 .47-.387.836-1.113 1.1h-.005Zm-2.386-2.82a.32.32 0 0 1-.32-.322V47.502a.448.448 0 0 1 .44-.448c.222 0 .315.15.315.363v.037a.44.44 0 0 1-.427.447l-.008.004Zm-.442 4.486h-.565l.557-3.444h.57l-.562 3.445Zm-1.214-2.8a1.689 1.689 0 0 0-.854-.237c-.875 0-1.214 1.121-1.214 1.892 0 .43.183.704.607.704a2.1 2.1 0 0 0 1.325-.607l.25.4a2.713 2.713 0 0 1-1.681.716c-.607 0-1.092-.265-1.092-1.151 0-1.215.607-2.425 1.856-2.425.321-.006.638.064.927.204l-.124.504Zm-4.795-.242c-.509 0-1.182.425-1.182 1.607a.828.828 0 0 0 0 .122c.004.51.42.92.93.919h.026c.57 0 1.151-.53 1.151-1.617-.008-.736-.419-1.033-.912-1.033l-.013.003Zm-.265 3.104h-.12a1.387 1.387 0 0 1-1.38-1.383V50.76a1.87 1.87 0 0 1 1.826-1.855c.689 0 1.46.264 1.46 1.526-.01 1.041-.647 2.017-1.773 2.017l-.013.003Zm-2.068-2.94a1.63 1.63 0 0 0-.776-.17c-.406 0-.636.157-.636.43s.188.406.607.684c.265.164.744.474.744.988 0 .706-.503 1.031-1.277 1.031a1.898 1.898 0 0 1-1.026-.31l.08-.562c.293.231.65.368 1.023.392.45 0 .607-.131.607-.41 0-.279-.207-.467-.607-.71-.401-.245-.732-.547-.732-.995 0-.678.53-.998 1.211-.998.273-.014.545.037.796.146l-.014.485Zm-5.28-.182c-.418 0-.909.358-1.102 1.21.26-.035.516-.099.763-.188.411-.137.758-.296.758-.683-.018-.265-.212-.344-.419-.344v.005Zm-.108 1.394c-.345.119-.7.207-1.06.265a1.466 1.466 0 0 0 0 .265c0 .448.174.703.604.703a2.12 2.12 0 0 0 1.325-.605l.244.4a2.707 2.707 0 0 1-1.68.713c-.605 0-1.085-.265-1.085-1.15 0-1.163.607-2.425 1.856-2.425.53 0 .904.264.904.733 0 .47-.387.836-1.108 1.1Zm-3.226 1.667a1.742 1.742 0 0 1-.382 0c.165-1.212.438-2.352.438-2.698 0-.18 0-.265-.189-.265-.551 0-1.325.867-1.479 1.437-.055.212-.28 1.544-.28 1.544h-.562c.061-.55.477-2.703.604-3.445h.618a16.96 16.96 0 0 1-.194.994s.618-1.06 1.59-1.06c.377 0 .53.216.53.57 0 .351-.265 1.59-.394 2.424.212-.02.418-.083.606-.183l.183.377a1.915 1.915 0 0 1-1.089.303v.002Zm-4.074.023a1.207 1.207 0 0 1-.339-.029l.175-.95c-.131.197-.29.377-.472.53a1.812 1.812 0 0 1-1.153.478c-.382 0-.504-.234-.504-.606s.292-1.965.451-2.916h.604c-.198 1.133-.434 2.386-.434 2.733 0 .182 0 .25.198.25.565 0 1.304-.887 1.456-1.438.074-.264.278-1.544.278-1.544h.564s-.169.97-.265 1.59c-.188.993-.23 1.376-.23 1.376.212-.02.419-.08.607-.18l.175.373a1.86 1.86 0 0 1-1.111.331v.002Zm-4.241-2.732a.684.684 0 0 0-.44-.22c-.413 0-.874.53-1.166 1.54-.053.188-.236 1.389-.236 1.389h-.57c.061-.551.456-2.54.546-3.445h.607c-.05.404-.188 1.007-.188 1.007.315-.669.811-1.06 1.211-1.06a.607.607 0 0 1 .53.29l-.294.5ZM59.5 52.414a1.175 1.175 0 0 1-.334-.029l.17-.95c-.131.197-.29.377-.472.53a1.812 1.812 0 0 1-1.153.478c-.376 0-.504-.234-.504-.606s.292-1.965.451-2.916h.575c-.193 1.133-.432 2.386-.432 2.733 0 .182 0 .25.196.25.57 0 1.31-.887 1.461-1.438.066-.264.265-1.544.265-1.544h.57s-.178.97-.279 1.59a8.646 8.646 0 0 0-.201 1.422c.213-.017.419-.078.607-.18l.18.378a1.9 1.9 0 0 1-1.092.28l-.008.002Zm-4.53-3.066c-.509 0-1.211.425-1.211 1.607a.828.828 0 0 0 0 .122.924.924 0 0 0 .92.922h.058c.57 0 1.15-.53 1.15-1.617 0-.74-.41-1.036-.901-1.036l-.016.003Zm-.265 3.104h-.119a1.388 1.388 0 0 1-1.381-1.383 1.164 1.164 0 0 1 0-.168v-.173a1.871 1.871 0 0 1 1.826-1.855c.692 0 1.466.266 1.466 1.53-.008 1.07-.652 2.047-1.792 2.047v.002Zm-3.231-3.02c-.562 0-1.211.642-1.418 1.432l-.156.952c.226.148.493.222.763.212.83 0 1.278-.849 1.278-1.855 0-.513-.175-.759-.467-.759v.018Zm-.896 3.03c-.256 0-.51-.043-.752-.127l-.358 2.264h-.552s.292-1.752.475-2.881c.183-1.13.424-2.77.424-2.77h.57l-.135.81a1.822 1.822 0 0 1 1.389-.852c.53 0 .903.395.903 1.21.011 1.035-.527 2.343-1.964 2.343v.003Zm-4.431-3.133c-.419 0-.904.358-1.103 1.212.26-.035.516-.098.763-.188.411-.139.758-.297.758-.684 0-.265-.212-.344-.418-.344v.005Zm-.109 1.395a5.77 5.77 0 0 1-1.06.265 1.068 1.068 0 0 0 0 .265c0 .448.18.703.604.703.5-.038.97-.252 1.325-.605l.242.4a2.686 2.686 0 0 1-1.673.713c-.607 0-1.092-.265-1.092-1.15 0-1.163.607-2.425 1.869-2.425.53 0 .909.264.909.733 0 .47-.392.836-1.124 1.1Zm-2.82 1.667h-.565l.899-5.596h.567l-.901 5.596ZM40.97 49.42c-.607 0-1.214.654-1.439 1.444l-.17.928a1.5 1.5 0 0 0 .795.222c.862 0 1.267-.777 1.267-1.855 0-.508-.169-.752-.453-.752v.013Zm-.904 3.032a2.208 2.208 0 0 1-1.275-.404l.894-5.26h.569l-.53 2.945a1.824 1.824 0 0 1 1.4-.872c.53 0 .898.395.898 1.214.003 1.3-.609 2.374-1.956 2.374v.003Zm-2.915-.061c-.13.014-.26.014-.39 0 .17-1.212.443-2.352.443-2.698 0-.18 0-.265-.189-.265-.604 0-1.325.983-1.447 1.352-.116.606-.23 1.248-.281 1.63h-.604c.162-1.211.448-2.386.448-2.727 0-.181 0-.267-.188-.267-.552 0-1.326.867-1.485 1.438-.055.212-.265 1.544-.265 1.544h-.577c.061-.55.477-2.703.604-3.445h.607a16.96 16.96 0 0 1-.194.994s.637-1.06 1.591-1.06c.376 0 .514.218.514.57 0 .114-.061.471-.061.471s.673-1.041 1.59-1.041c.382 0 .53.218.53.57s-.249 1.59-.392 2.425c.211-.023.416-.085.604-.182l.178.375a1.89 1.89 0 0 1-1.036.313v.003Zm-6.046-3.061c-.419 0-.909.358-1.103 1.21.26-.035.516-.099.763-.188.406-.137.753-.296.753-.683 0-.265-.183-.344-.413-.344v.005Zm-.114 1.394c-.345.122-.7.21-1.06.265a1.068 1.068 0 0 0 0 .265c0 .448.18.703.604.703.5-.038.97-.252 1.325-.605l.249.4a2.696 2.696 0 0 1-1.677.713c-.607 0-1.093-.265-1.093-1.15 0-1.163.607-2.425 1.856-2.425.53 0 .909.264.909.733 0 .47-.387.836-1.113 1.1Zm-2.232-1.211a1.612 1.612 0 0 0-.769-.17c-.413 0-.607.156-.607.43 0 .272.189.404.607.682.265.166.75.476.75.99 0 .705-.503 1.03-1.285 1.03a1.897 1.897 0 0 1-1.023-.31l.077-.562c.294.231.652.368 1.025.392.448 0 .637-.131.637-.41 0-.279-.207-.467-.607-.71-.401-.245-.732-.547-.732-.995 0-.678.546-.998 1.211-.998.273-.014.545.037.796.146l-.08.485Zm-3.915 2.878c-.129.014-.26.014-.389 0 .164-1.212.442-2.352.442-2.698 0-.18 0-.265-.188-.265-.551 0-1.325.867-1.484 1.437-.056.212-.265 1.544-.265 1.544h-.576c.067-.55.485-2.703.607-3.445h.605c-.067.407-.199.994-.199.994s.631-1.06 1.59-1.06c.382 0 .53.216.53.57 0 .351-.249 1.59-.395 2.424.213-.02.419-.083.607-.183l.183.377a1.862 1.862 0 0 1-1.068.303v.002Zm-3.992-3.061c-.416 0-.909.358-1.102 1.21.26-.035.516-.099.763-.188.414-.137.758-.296.758-.683 0-.265-.212-.344-.419-.344v.005Zm-.108 1.394a6.25 6.25 0 0 1-1.06.265 1.466 1.466 0 0 0 0 .265c0 .448.174.703.607.703a2.12 2.12 0 0 0 1.346-.623l.241.4a2.708 2.708 0 0 1-1.68.715c-.605 0-1.084-.264-1.084-1.152 0-1.164.607-2.426 1.868-2.426.53 0 .901.265.901.734 0 .47-.416.854-1.139 1.119Zm-3.486-1.044a.668.668 0 0 0-.442-.22c-.406 0-.872.53-1.164 1.54-.053.188-.236 1.389-.236 1.389h-.57c.067-.553.461-2.54.546-3.447h.607c-.05.407-.193 1.008-.193 1.008.313-.669.811-1.06 1.211-1.06a.606.606 0 0 1 .53.291l-.289.498Zm-3.146-1.78a.323.323 0 0 1-.323-.32.076.076 0 0 1 0-.03.45.45 0 0 1 .445-.49c.217 0 .315.151.315.363v.035a.439.439 0 0 1-.432.443h-.005Zm-.435 4.489h-.569l.556-3.447h.57l-.557 3.447Zm-2.425-3.076a.951.951 0 0 0-.686.323 3.028 3.028 0 0 0-.605 1.856c0 .358.133.406.284.406.341-.044.652-.218.867-.486.269-.262.477-.584.607-.938l.212-.974a1.042 1.042 0 0 0-.679-.19v.003Zm.983 1.22a5.98 5.98 0 0 0-.22 1.526c0 .189.038.608.038.778a1.615 1.615 0 0 1-.491 1.37c-.366.294-.83.44-1.299.405a2.315 2.315 0 0 1-1.473-.515l.183-.517c.386.323.868.509 1.37.532a1.14 1.14 0 0 0 .975-.358c.157-.267.223-.578.189-.886 0-.366-.03-.607-.03-.796a1.224 1.224 0 0 1 .085-.607 2.19 2.19 0 0 1-1.606.984c-.4 0-.578-.352-.578-.898a3.093 3.093 0 0 1 .994-2.364 1.55 1.55 0 0 1 .946-.279c.269-.01.534.063.758.212l.141-.212h.376s-.172.782-.347 1.62l-.011.005Zm-5.301-2.386-.922 1.819h1.325l-.403-1.819Zm.957 4.242-.429-1.93H5.739l-.981 1.921h-.662l2.783-5.3h.466l1.211 5.3-.665.008Zm95.285-12.552v-3.133a.422.422 0 0 0 0-.087.917.917 0 0 0-.915-.913.897.897 0 0 0-.127 0 1.737 1.737 0 0 0-1.132.38v3.745h-.903v-4.77h.903v.498a2.743 2.743 0 0 1 1.564-.607h.106c.779.003 1.41.633 1.413 1.412v.088c.042.73 0 3.371 0 3.371l-.909.017Zm-6.298 0h.909v-4.77h-.909v4.77Zm.438-6.164a.606.606 0 1 1 .604-.61v.005a.607.607 0 0 1-.594.605h-.01Zm-3.632 6.164v-.47a2.784 2.784 0 0 1-1.571.53h-.12a1.379 1.379 0 0 1-1.37-1.371v-.109c-.042-.735 0-3.352 0-3.352h.909V38.2c.048.654.31.98 1.007.98a1.68 1.68 0 0 0 1.145-.416v-3.71h.904v4.77l-.904.014Zm-7.291-4.2c-.984 0-1.493.776-1.493 1.705 0 1.025.504 1.925 1.638 1.925.981 0 1.418-.78 1.418-1.72-.023-1.101-.612-1.91-1.59-1.91h.027Zm0 4.298a2.486 2.486 0 0 1 .042-4.964h.122a2.322 2.322 0 0 1 2.311 2.31v.315a2.356 2.356 0 0 1-2.345 2.346l-.13-.007Zm-5.142-4.05a1.701 1.701 0 0 0-.971-.264c-.763 0-1.558.405-1.558 1.819 0 1.147.53 1.82 1.558 1.82.358-.008.702-.14.971-.377v-2.998Zm0 3.953v-.434c-.396.337-.903.52-1.424.508-1.214 0-2.043-.947-2.043-2.335v-.182a2.436 2.436 0 0 1 2.425-2.427h.069a2.63 2.63 0 0 1 .981.165v-3.03h.909v7.734h-.917Zm-6.176 0v-.471a2.787 2.787 0 0 1-1.572.53h-.119a1.376 1.376 0 0 1-1.371-1.371v-.109c-.042-.735 0-3.352 0-3.352h.904V38.2c.043.654.302.98.999.98a1.68 1.68 0 0 0 1.146-.416v-3.71h.909v4.77l-.896.014Zm-6.992-2.153c-.459.122-.843.384-.843.795v.017a.795.795 0 0 0 .782.782h.061c.313-.022.604-.168.808-.406v-1.325c-.272.02-.542.066-.806.137h-.002Zm1.548 2.227c-.493 0-.687-.545-.687-.545a1.914 1.914 0 0 1-1.235.569h-.077a1.275 1.275 0 0 1-1.27-1.267 1.46 1.46 0 0 1 1.214-1.383 7.223 7.223 0 0 1 1.365-.266v-.345a1.06 1.06 0 0 0-.153-.733.936.936 0 0 0-.75-.266 2.117 2.117 0 0 0-1.389.557l-.146-.683a3.716 3.716 0 0 1 1.818-.607c.989 0 1.474.53 1.474 1.17 0 .944-.048 1.856-.048 2.334 0 .563.104.781.43.781.166 0 .329-.037.479-.108v.485c-.317.17-.665.274-1.023.308h-.002Zm-6.47-3.286a2.743 2.743 0 0 0-1.503-.308H60.9v2.757c.375.055.755.078 1.134.066.938 0 1.739-.381 1.739-1.405.004-.45-.228-.87-.612-1.105v-.005Zm-1.419-3.486H60.9v2.475h.795c1.171 0 1.558-.607 1.558-1.325s-.556-1.15-1.508-1.15h-.003Zm.266 6.712h-2.086V32.49h1.956c1.394 0 2.425.46 2.425 1.74a1.89 1.89 0 0 1-1.06 1.636c-.631.306 1.611.316 1.611 1.777-.01 1.614-1.333 2.212-2.836 2.212l-.01-.005Zm-8.082-.014h.904v-4.772h-.904v4.771Zm.448-6.165a.607.607 0 1 1 .604-.61v.005a.606.606 0 0 1-.604.605Zm-4.662 1.963a1.53 1.53 0 0 0-1.509 1.522 1.862 1.862 0 0 0 0 .184c0 1.025.504 1.925 1.636 1.925.983 0 1.421-.78 1.421-1.72-.027-1.101-.613-1.91-1.591-1.91h.043Zm0 4.3a2.489 2.489 0 1 1 .021-4.978h.151a2.313 2.313 0 0 1 2.303 2.303v.335a2.356 2.356 0 0 1-2.345 2.346l-.13-.007ZM43.25 33.51a2.028 2.028 0 0 0-1.294-.372h-.795v3.033c.29.033.581.05.872.053h.159a1.517 1.517 0 0 0 1.511-1.508v-.16a1.357 1.357 0 0 0-.453-1.046Zm2.963 6.297c-.18.047-.366.069-.551.066a1.152 1.152 0 0 1-.745-.23 9.326 9.326 0 0 1-1.27-1.21 37.443 37.443 0 0 1-1.272-1.54h-1.211v3.029h-.97V32.5h1.818a3.587 3.587 0 0 1 1.746.335c.609.314.98.953.952 1.638a2.251 2.251 0 0 1-1.413 2.102c-.858.34.57.71 1.212 1.388.317.355.66.684 1.025.989.454.375.74.296.74.296l-.061.56Zm40.455-14.53v-3.121c-.05-.655-.339-.997-1.036-.997a1.745 1.745 0 0 0-1.14.384v3.735h-.904v-4.771h.904v.498c.449-.35.995-.553 1.564-.579h.106c.779.003 1.41.634 1.413 1.413v.088c.042.729 0 3.371 0 3.371l-.907-.02Zm-7.366-4.2c-.983 0-1.492.776-1.492 1.704 0 1.023.504 1.927 1.638 1.927.981 0 1.418-.782 1.418-1.724-.024-1.101-.612-1.907-1.59-1.907h.026Zm0 4.299a2.486 2.486 0 0 1 .043-4.967h.122a2.322 2.322 0 0 1 2.311 2.31v.317a2.358 2.358 0 0 1-2.346 2.345l-.13-.006Zm-5.118-.098h.904v-4.771h-.904v4.77Zm.445-6.166a.606.606 0 1 1 .607-.607.608.608 0 0 1-.601.617h-.013l.007-.01Zm-3.445 6.264a.957.957 0 0 1-.981-.607 4.314 4.314 0 0 1-.122-1.4v-2.068h-.753v-.668h.796l.286-1.163h.607v1.177h1.413v.605h-1.456s0 .904-.031 1.777c-.023.405-.001.811.066 1.212a.461.461 0 0 0 .493.352c.357-.027.694-.175.957-.419l.108.607c-.38.352-.867.564-1.383.605v-.01Zm-5.11-2.25c-.456.122-.838.38-.838.795v.031a.796.796 0 0 0 .782.782h.056c.314-.02.607-.168.811-.409v-1.325a4.29 4.29 0 0 0-.812.136l.001-.01Zm1.553 2.223c-.493 0-.687-.544-.687-.544a1.952 1.952 0 0 1-1.248.57h-.074a1.272 1.272 0 0 1-1.267-1.267 1.456 1.456 0 0 1 1.214-1.384 7.01 7.01 0 0 1 1.362-.265v-.344a1.037 1.037 0 0 0-.151-.733.932.932 0 0 0-.75-.265 2.118 2.118 0 0 0-1.389.556l-.164-.668a3.709 3.709 0 0 1 1.818-.605c.989 0 1.468.53 1.468 1.17 0 .945-.042 1.854-.042 2.334 0 .563.103.796.429.796.166-.003.329-.04.48-.11v.485a2.667 2.667 0 0 1-.999.284v-.01Zm-5.938-4.024a1.671 1.671 0 0 0-.97-.265c-.763 0-1.563.405-1.563 1.819 0 1.145.53 1.818 1.563 1.818.358-.008.702-.14.97-.377v-2.995Zm0 3.953v-.438a2.09 2.09 0 0 1-1.428.508c-1.177 0-2.038-.942-2.038-2.332v-.183a2.435 2.435 0 0 1 2.425-2.424h.069c.334-.006.666.05.98.163v-3.018h.904v7.724h-.912Zm-6.141 0v-3.21a.919.919 0 0 0-.914-.918.911.911 0 0 0-.128 0 1.72 1.72 0 0 0-1.131.384v3.744h-.907v-4.771h.912v.498c.435-.358.97-.57 1.532-.608h.111a1.414 1.414 0 0 1 1.408 1.409v.095c.042.726 0 3.368 0 3.368l-.883.009Zm-7.371-4.192a1.53 1.53 0 0 0-1.508 1.523 1.397 1.397 0 0 0 0 .183c0 1.023.503 1.927 1.638 1.927.981 0 1.418-.782 1.418-1.723-.019-1.104-.607-1.91-1.577-1.91h.029Zm0 4.3a2.489 2.489 0 0 1 .021-4.978h.146a2.32 2.32 0 0 1 2.309 2.309v.329a2.36 2.36 0 0 1-2.349 2.345l-.127-.005Zm-7.013-3.372v3.264h-.97v-7.337h4.19v.83h-3.22v2.425h3.22v.819h-3.22ZM4 39.855h.53V2.762H4v37.093Z" fill="#1E1E1C"/><path d="M100.865 61.326H100.538s0-.027.022-.085c.02-.058.037-.175.056-.246l.19-.883-.386.095-.178.605c-.048.159-.09.318-.114.42 0 .022-.013.094-.013.094h-.649a.828.828 0 0 0-.122 0s.15-.188.249-.337l1.06-1.563h-.504l-1.312 1.95-.066.332h1.113c.05.004.099.004.149 0 0 0-.021.077-.032.132l-.12.552.467-.08.088-.443c.018-.092.026-.161.026-.161a.828.828 0 0 0 .122 0h.209l.072-.382Z" fill="#020303"/><text font-family="Arial-ItalicMT, Arial" font-size="4.241" font-style="italic" fill="#020303" transform="translate(4)">
                        <tspan x=".172" y="61.497">P</tspan>
                    </text><text font-family="Arial-ItalicMT, Arial" font-size="4.241" font-style="italic" fill="#020303" transform="translate(4)">
                        <tspan x="2.638" y="61.497">R</tspan>
                    </text><text font-family="Arial-ItalicMT, Arial" font-size="4.241" font-style="italic" fill="#020303" transform="translate(4)">
                        <tspan x="5.093" y="61.497">O</tspan>
                    </text><text font-family="Arial-ItalicMT, Arial" font-size="4.241" font-style="italic" fill="#020303" transform="translate(4)">
                        <tspan x="8.076" y="61.497">J</tspan>
                    </text><text font-family="Arial-ItalicMT, Arial" font-size="4.241" font-style="italic" fill="#020303" transform="translate(4)">
                        <tspan x="9.346" y="61.497">E</tspan>
                    </text><text font-family="Arial-ItalicMT, Arial" font-size="4.241" font-style="italic" fill="#020303" transform="translate(4)">
                        <tspan x="11.528" y="61.497">T</tspan>
                    </text><text font-family="Arial-ItalicMT, Arial" font-size="4.241" font-style="italic" fill="#020303" transform="translate(4)">
                        <tspan x="14.587" y="61.497">R</tspan>
                    </text><text font-family="Arial-ItalicMT, Arial" font-size="4.241" font-style="italic" fill="#020303" transform="translate(4)">
                        <tspan x="17.04" y="61.497">É</tspan>
                    </text><text font-family="Arial-ItalicMT, Arial" font-size="4.241" font-style="italic" fill="#020303" transform="translate(4)">
                        <tspan x="19.226" y="61.497">A</tspan>
                    </text><text font-family="Arial-ItalicMT, Arial" font-size="4.241" font-style="italic" fill="#020303" transform="translate(4)">
                        <tspan x="21.741" y="61.497">L</tspan>
                    </text><text font-family="Arial-ItalicMT, Arial" font-size="4.241" font-style="italic" fill="#020303" transform="translate(4)">
                        <tspan x="23.779" y="61.497">I</tspan>
                    </text><text font-family="Arial-ItalicMT, Arial" font-size="4.241" font-style="italic" fill="#020303" transform="translate(4)">
                        <tspan x="25.043" y="61.497">S</tspan>
                    </text><text font-family="Arial-ItalicMT, Arial" font-size="4.241" font-style="italic" fill="#020303" transform="translate(4)">
                        <tspan x="27.596" y="61.497">É</tspan>
                    </text><text font-family="Arial-ItalicMT, Arial" font-size="4.241" font-style="italic" fill="#020303" transform="translate(4)">
                        <tspan x="30.734" y="61.497">A</tspan>
                    </text><text font-family="Arial-ItalicMT, Arial" font-size="4.241" font-style="italic" fill="#020303" transform="translate(4)">
                        <tspan x="33.08" y="61.497">V</tspan>
                    </text><text font-family="Arial-ItalicMT, Arial" font-size="4.241" font-style="italic" fill="#020303" transform="translate(4)">
                        <tspan x="35.621" y="61.497">E</tspan>
                    </text><text font-family="Arial-ItalicMT, Arial" font-size="4.241" font-style="italic" fill="#020303" transform="translate(4)">
                        <tspan x="37.72" y="61.497">C</tspan>
                    </text><text font-family="Arial-ItalicMT, Arial" font-size="4.241" font-style="italic" fill="#020303" transform="translate(4)">
                        <tspan x="41.068" y="61.497">L</tspan>
                    </text><text font-family="Arial-ItalicMT, Arial" font-size="4.241" font-style="italic" fill="#020303" transform="translate(4)">
                        <tspan x="43.107" y="61.497">E</tspan>
                    </text><text font-family="Arial-ItalicMT, Arial" font-size="4.241" font-style="italic" fill="#020303" transform="translate(4)">
                        <tspan x="46.244" y="61.497">S</tspan>
                    </text><text font-family="Arial-ItalicMT, Arial" font-size="4.241" font-style="italic" fill="#020303" transform="translate(4)">
                        <tspan x="48.755" y="61.497">O</tspan>
                    </text><text font-family="Arial-ItalicMT, Arial" font-size="4.241" font-style="italic" fill="#020303" transform="translate(4)">
                        <tspan x="51.739" y="61.497">U</tspan>
                    </text><text font-family="Arial-ItalicMT, Arial" font-size="4.241" font-style="italic" fill="#020303" transform="translate(4)">
                        <tspan x="54.425" y="61.497">T</tspan>
                    </text><text font-family="Arial-ItalicMT, Arial" font-size="4.241" font-style="italic" fill="#020303" transform="translate(4)">
                        <tspan x="56.526" y="61.497">I</tspan>
                    </text><text font-family="Arial-ItalicMT, Arial" font-size="4.241" font-style="italic" fill="#020303" transform="translate(4)">
                        <tspan x="57.791" y="61.497">E</tspan>
                    </text><text font-family="Arial-ItalicMT, Arial" font-size="4.241" font-style="italic" fill="#020303" transform="translate(4)">
                        <tspan x="59.975" y="61.497">N</tspan>
                    </text><text font-family="Arial-ItalicMT, Arial" font-size="4.241" font-style="italic" fill="#020303" transform="translate(4)">
                        <tspan x="63.699" y="61.497">D</tspan>
                    </text><text font-family="Arial-ItalicMT, Arial" font-size="4.241" font-style="italic" fill="#020303" transform="translate(4)">
                        <tspan x="66.428" y="61.497">U</tspan>
                    </text><text font-family="Arial-ItalicMT, Arial" font-size="4.241" font-style="italic" fill="#020303" transform="translate(4)">
                        <tspan x="70.154" y="61.497">F</tspan>
                    </text><text font-family="Arial-ItalicMT, Arial" font-size="4.241" font-style="italic" fill="#020303" transform="translate(4)">
                        <tspan x="72.064" y="61.497">O</tspan>
                    </text><text font-family="Arial-ItalicMT, Arial" font-size="4.241" font-style="italic" fill="#020303" transform="translate(4)">
                        <tspan x="75.048" y="61.497">N</tspan>
                    </text><text font-family="Arial-ItalicMT, Arial" font-size="4.241" font-style="italic" fill="#020303" transform="translate(4)">
                        <tspan x="77.819" y="61.497">D</tspan>
                    </text><text font-family="Arial-ItalicMT, Arial" font-size="4.241" font-style="italic" fill="#020303" transform="translate(4)">
                        <tspan x="80.463" y="61.497">S</tspan>
                    </text><text font-family="Arial-ItalicMT, Arial" font-size="4.241" font-style="italic" fill="#020303" transform="translate(4)">
                        <tspan x="83.97" y="61.497">R</tspan>
                    </text><text font-family="Arial-ItalicMT, Arial" font-size="4.241" font-style="italic" fill="#020303" transform="translate(4)">
                        <tspan x="86.406" y="61.497">&amp;</tspan>
                    </text><text font-family="Arial-ItalicMT, Arial" font-size="4.241" font-style="italic" fill="#020303" transform="translate(4)">
                        <tspan x="89.404" y="61.497">C</tspan>
                    </text><text font-family="Arial-ItalicMT, Arial" font-size="4.241" font-style="italic" fill="#020303" transform="translate(4)">
                        <tspan x="91.709" y="61.497">O</tspan>
                    </text><text font-family="Arial-ItalicMT, Arial" font-size="4.241" font-style="italic" fill="#020303" transform="translate(4)">
                        <tspan x="96.992" y="61.497">G</tspan>
                    </text><text font-family="Arial-ItalicMT, Arial" font-size="4.241" font-style="italic" fill="#020303" transform="translate(4)">
                        <tspan x="99.825" y="61.497">E</tspan>
                    </text><text font-family="Arial-ItalicMT, Arial" font-size="4.241" font-style="italic" fill="#020303" transform="translate(4)">
                        <tspan x="102.009" y="61.497">N</tspan>
                    </text><text font-family="Arial-ItalicMT, Arial" font-size="4.241" font-style="italic" fill="#020303" transform="translate(4)">
                        <tspan x="104.777" y="61.497">E</tspan>
                    </text><text font-family="Arial-ItalicMT, Arial" font-size="4.241" font-style="italic" fill="#020303" transform="translate(4)">
                        <tspan x="106.96" y="61.497">R</tspan>
                    </text><text font-family="Arial-ItalicMT, Arial" font-size="4.241" font-style="italic" fill="#020303" transform="translate(4)">
                        <tspan x="109.418" y="61.497">A</tspan>
                    </text><text font-family="Arial-ItalicMT, Arial" font-size="4.241" font-style="italic" fill="#020303" transform="translate(4)">
                        <tspan x="111.677" y="61.497">T</tspan>
                    </text><text font-family="Arial-ItalicMT, Arial" font-size="4.241" font-style="italic" fill="#020303" transform="translate(4)">
                        <tspan x="113.781" y="61.497">I</tspan>
                    </text><text font-family="Arial-ItalicMT, Arial" font-size="4.241" font-style="italic" fill="#020303" transform="translate(4)">
                        <tspan x="115.042" y="61.497">O</tspan>
                    </text><text font-family="Arial-ItalicMT, Arial" font-size="4.241" font-style="italic" fill="#020303" transform="translate(4)">
                        <tspan x="118.029" y="61.497">N</tspan>
                    </text><text font-family="Arial-ItalicMT, Arial" font-size="4.241" font-style="italic" fill="#020303" transform="translate(4)">
                        <tspan x="120.776" y="61.497">S</tspan>
                    </text><text font-family="Arial-ItalicMT, Arial" font-size="4.241" font-style="italic" fill="#020303" transform="translate(4)">
                        <tspan x="123.306" y="61.497">,</tspan>
                    </text><text font-family="Arial-ItalicMT, Arial" font-size="4.241" font-style="italic" fill="#020303" transform="translate(4)">
                        <tspan x="24.858" y="67.175">G</tspan>
                    </text><text font-family="Arial-ItalicMT, Arial" font-size="4.241" font-style="italic" fill="#020303" transform="translate(4)">
                        <tspan x="27.688" y="67.175">É</tspan>
                    </text><text font-family="Arial-ItalicMT, Arial" font-size="4.241" font-style="italic" fill="#020303" transform="translate(4)">
                        <tspan x="29.872" y="67.175">R</tspan>
                    </text><text font-family="Arial-ItalicMT, Arial" font-size="4.241" font-style="italic" fill="#020303" transform="translate(4)">
                        <tspan x="32.326" y="67.175">É</tspan>
                    </text><text font-family="Arial-ItalicMT, Arial" font-size="4.241" font-style="italic" fill="#020303" transform="translate(4)">
                        <tspan x="35.466" y="67.175">P</tspan>
                    </text><text font-family="Arial-ItalicMT, Arial" font-size="4.241" font-style="italic" fill="#020303" transform="translate(4)">
                        <tspan x="37.76" y="67.175">A</tspan>
                    </text><text font-family="Arial-ItalicMT, Arial" font-size="4.241" font-style="italic" fill="#020303" transform="translate(4)">
                        <tspan x="40.273" y="67.175">R</tspan>
                    </text><text font-family="Arial-ItalicMT, Arial" font-size="4.241" font-style="italic" fill="#020303" transform="translate(4)">
                        <tspan x="43.685" y="67.175">L</tspan>
                    </text><text font-family="Arial-ItalicMT, Arial" font-size="4.241" font-style="italic" fill="#020303" transform="translate(4)">
                        <tspan x="45.723" y="67.175">A</tspan>
                    </text><text font-family="Arial-ItalicMT, Arial" font-size="4.241" font-style="italic" fill="#020303" transform="translate(4)">
                        <tspan x="49.194" y="67.175">F</tspan>
                    </text><text font-family="Arial-ItalicMT, Arial" font-size="4.241" font-style="italic" fill="#020303" transform="translate(4)">
                        <tspan x="51.103" y="67.175">O</tspan>
                    </text><text font-family="Arial-ItalicMT, Arial" font-size="4.241" font-style="italic" fill="#020303" transform="translate(4)">
                        <tspan x="54.09" y="67.175">N</tspan>
                    </text><text font-family="Arial-ItalicMT, Arial" font-size="4.241" font-style="italic" fill="#020303" transform="translate(4)">
                        <tspan x="56.857" y="67.175">D</tspan>
                    </text><text font-family="Arial-ItalicMT, Arial" font-size="4.241" font-style="italic" fill="#020303" transform="translate(4)">
                        <tspan x="59.546" y="67.175">A</tspan>
                    </text><text font-family="Arial-ItalicMT, Arial" font-size="4.241" font-style="italic" fill="#020303" transform="translate(4)">
                        <tspan x="61.807" y="67.175">T</tspan>
                    </text><text font-family="Arial-ItalicMT, Arial" font-size="4.241" font-style="italic" fill="#020303" transform="translate(4)">
                        <tspan x="63.911" y="67.175">I</tspan>
                    </text><text font-family="Arial-ItalicMT, Arial" font-size="4.241" font-style="italic" fill="#020303" transform="translate(4)">
                        <tspan x="65.173" y="67.175">O</tspan>
                    </text><text font-family="Arial-ItalicMT, Arial" font-size="4.241" font-style="italic" fill="#020303" transform="translate(4)">
                        <tspan x="68.159" y="67.175">N</tspan>
                    </text><text font-family="Arial-ItalicMT, Arial" font-size="4.241" font-style="italic" fill="#020303" transform="translate(4)">
                        <tspan x="71.881" y="67.175">R</tspan>
                    </text><text font-family="Arial-ItalicMT, Arial" font-size="4.241" font-style="italic" fill="#020303" transform="translate(4)">
                        <tspan x="74.338" y="67.175">O</tspan>
                    </text><text font-family="Arial-ItalicMT, Arial" font-size="4.241" font-style="italic" fill="#020303" transform="translate(4)">
                        <tspan x="77.323" y="67.175">I</tspan>
                    </text><text font-family="Arial-ItalicMT, Arial" font-size="4.241" font-style="italic" fill="#020303" transform="translate(4)">
                        <tspan x="79.541" y="67.175">B</tspan>
                    </text><text font-family="Arial-ItalicMT, Arial" font-size="4.241" font-style="italic" fill="#020303" transform="translate(4)">
                        <tspan x="82.125" y="67.175">A</tspan>
                    </text><text font-family="Arial-ItalicMT, Arial" font-size="4.241" font-style="italic" fill="#020303" transform="translate(4)">
                        <tspan x="84.598" y="67.175">U</tspan>
                    </text><text font-family="Arial-ItalicMT, Arial" font-size="4.241" font-style="italic" fill="#020303" transform="translate(4)">
                        <tspan x="87.368" y="67.175">D</tspan>
                    </text><text font-family="Arial-ItalicMT, Arial" font-size="4.241" font-style="italic" fill="#020303" transform="translate(4)">
                        <tspan x="90.099" y="67.175">O</tspan>
                    </text><text font-family="Arial-ItalicMT, Arial" font-size="4.241" font-style="italic" fill="#020303" transform="translate(4)">
                        <tspan x="93.082" y="67.175">U</tspan>
                    </text><text font-family="Arial-ItalicMT, Arial" font-size="4.241" font-style="italic" fill="#020303" transform="translate(4)">
                        <tspan x="95.853" y="67.175">I</tspan>
                    </text><text font-family="Arial-ItalicMT, Arial" font-size="4.241" font-style="italic" fill="#020303" transform="translate(4)">
                        <tspan x="97.117" y="67.175">N</tspan>
                    </text></g></svg>