<svg width="119" height="68" xmlns="http://www.w3.org/2000/svg" xmlns:xlink="http://www.w3.org/1999/xlink"><defs><path id="a" d="M0 29.309h101.732V0H0z"/></defs><g transform="translate(8 21)" fill="none" fill-rule="evenodd"><path d="M43.975 5.554h-1.76c-2.423.046-4.183 2.171-3.794 4.525.297 1.806 1.988 3.177 3.908 3.155 1.897-.023 3.612-1.44 3.772-3.269.137-1.371.068-2.743.09-4.114 0-.274-.16-.297-.365-.297h-1.851m4.25-5.531v14.628h-1.713v-1.235c-.251.206-.411.343-.594.48-2.834 2.126-7.406 1.463-9.028-2.125-1.555-3.429.662-7.451 4.388-7.863 1.44-.16 2.926-.068 4.388-.091.572 0 .572 0 .572-.571V.457c0-.297.068-.434.41-.434h1.578M57.986 12.914c0-.023 0 .023 0 0H59.7c.616 0 .616 0 .616-.64V9.188c-.023-2.491-2.194-4.296-4.662-3.885-1.646.297-3.017 1.76-3.154 3.314-.206 2.217 1.212 3.748 2.697 4.09.914.207 1.874.116 2.788.207m2.607-7.862V3.817h1.736V14.65c-.16 0-.297.023-.434.023h-5.645c-2.767-.023-4.983-1.737-5.623-4.366-.731-3.085 1.28-6.216 4.434-6.788 1.965-.343 3.794 0 5.325 1.372.047.068.092.09.207.16M47.06 27.221v-.549c-.023-1.394.023-2.788-.069-4.159-.16-2.057-1.988-3.772-4.045-3.909-2.217-.137-4.206 1.303-4.686 3.383-.685 2.903 1.418 5.531 4.412 5.531 1.371 0 2.765 0 4.182.092-.41.297-.823.64-1.257.868-3.702 2.08-8.41-.16-9.119-4.32a3.738 3.738 0 0 1-.092-.73v-6.195c0-.114.023-.229.023-.366.137-.023.23-.023.343-.023 1.943 0 3.908-.022 5.851 0 2.857.023 5.348 1.99 5.988 4.754.457 1.99.046 3.795-1.234 5.394-.068.07-.137.138-.206.206-.022.046-.068.046-.09.023M11.336 9.028c-.183 2.103 1.486 4.046 3.657 4.205 1.92.138 4.091-1.234 4.205-3.885.093-1.988-1.348-3.954-3.702-4.114-2.171-.16-4.069 1.554-4.16 3.794m3.886 6.011c-3.314-.023-5.896-2.583-5.896-5.828.022-3.246 2.673-5.806 5.987-5.783 3.315.023 5.897 2.606 5.874 5.851 0 3.223-2.65 5.783-5.966 5.76M82.853 13.256c2.148.023 4-1.783 4-4 0-2.263-1.714-3.977-3.91-4.022-2.17-.046-3.976 1.782-3.998 4-.046 2.125 1.76 3.976 3.908 4.022m.046-9.828c3.29 0 5.919 2.56 5.919 5.76 0 3.291-2.582 5.851-5.92 5.851-3.313 0-5.92-2.56-5.965-5.783-.023-3.2 2.72-5.897 5.966-5.828M23.519 3.794h1.714v1.28c.183-.137.252-.206.343-.274.89-.846 1.989-1.28 3.223-1.349 1.097-.068 2.17.07 3.154.64 1.463.87 2.103 2.24 2.148 3.886.046 2.148.023 4.297.023 6.445 0 .07-.023.137-.023.251H32.09c0-.114-.023-.25-.023-.365-.023-2.034.023-4.069-.046-6.103-.045-1.645-1.508-2.925-3.177-2.925-1.737 0-3.154 1.257-3.222 2.925-.07 1.897-.046 3.817-.07 5.714 0 .892.115.777-.776.777-.32 0-.64.023-.937-.023-.114-.022-.274-.182-.297-.297-.046-.228-.023-.457-.023-.685v-9.28c-.023-.206 0-.388 0-.617M92.864 3.817V5.05c.16-.137.25-.183.32-.251 1.737-1.692 4.89-1.897 6.834-.412 1.21.937 1.69 2.217 1.69 3.68.024 2.057 0 4.137.024 6.194 0 .32-.091.434-.411.412a11.456 11.456 0 0 0-1.257 0c-.366.022-.435-.138-.435-.458 0-1.988.023-3.954-.022-5.942-.023-1.714-1.418-3.017-3.155-3.063-1.76-.023-3.222 1.234-3.268 2.97-.07 1.944-.046 3.887-.046 5.853 0 .617 0 .617-.594.617h-1.371V3.794c.548.023 1.097.023 1.69.023M7.451 7.451v1.783H2.103c-.023.228-.046.411-.046.594 0 1.463-.023 2.926 0 4.388 0 .389-.114.503-.503.48a9.098 9.098 0 0 0-1.12 0c-.343.023-.434-.091-.434-.434.023-2.377.023-4.754 0-7.131 0-1.097.023-2.217.503-3.246C1.668 1.417 3.611.137 6.331.023c.731-.023 1.463 0 2.217 0v1.828c-.32 0-.64-.023-.937 0-.823.046-1.646-.023-2.423.16-1.851.457-3.062 2.217-3.131 4.252-.023 1.165-.023 1.165 1.12 1.165h3.748c.183 0 .366.023.526.023M65.07.023c.64 0 1.212-.023 1.807.023.068 0 .205.228.205.366.023.96.023 1.919 0 2.879-.023.435.137.526.526.526.914-.023 1.828 0 2.788 0V5.6H67.47c-.274 0-.412.068-.412.388.023 1.669 0 3.36.023 5.029.023 1.257.732 1.92 1.989 1.92h1.303c0 .548 0 1.05-.023 1.577 0 .068-.16.183-.252.183-.891-.023-1.805.022-2.697-.092-1.257-.16-2.08-1.051-2.24-2.308a13.145 13.145 0 0 1-.091-1.326V.023M53.78 24.022h1.029c.251 0 .365-.091.342-.343-.023-.434 0-.868 0-1.28 0-.868.092-.754-.754-.754-1.326 0-2.057.777-1.943 2.08 0 .114.183.274.297.297.343.023.686 0 1.029 0m1.394 3.45c0-.662-.023-1.28 0-1.896.023-.343-.091-.48-.457-.48-.64.023-1.257 0-1.897 0-.274 0-.388.092-.366.389.023.64 0 1.28 0 1.988-.411 0-.754.023-1.12-.023-.091 0-.251-.16-.251-.251 0-1.44-.069-2.903.046-4.343.091-1.28 1.44-2.331 2.834-2.377.754-.023 1.485 0 2.24-.023.251 0 .32.092.32.32 0 2.126 0 4.252-.023 6.354 0 .115-.16.298-.252.298-.32.068-.662.045-1.074.045" fill="#37609C"/><path d="M45.163 24.022c0 .434.023.89 0 1.326 0 .114-.16.297-.229.297-.982 0-1.965.068-2.902-.07-1.326-.182-2.103-1.393-2.012-2.81.092-1.166 1.143-2.194 2.355-2.286 1.28-.091 2.514.777 2.742 2.012.07.502.046 1.028.046 1.53.023 0-.023 0 0 0M72.636 3.817h2.011c0 .137.023.274.023.41 0 3.316 0 6.63.023 9.92 0 .458-.137.572-.57.549-.32-.022-.664-.045-.984 0-.412.046-.503-.137-.503-.525.023-2.172 0-4.366 0-6.537V3.817ZM92.635 23.519h-.594c-.823.023-1.417.617-1.44 1.417-.023.8.548 1.44 1.303 1.486.868.068 1.531-.457 1.622-1.303.023-.23.023-.457.023-.686 0-.914 0-.914-.914-.914m.914-1.19c0-.456.023-.89 0-1.324-.023-.39.07-.594.526-.526.274.046.526 0 .823 0v6.97H93.71c-.023-.16-.045-.32-.068-.456-.457.206-.892.48-1.349.572-1.37.25-2.697-.71-2.925-2.035-.252-1.44.594-2.788 1.965-3.062.594-.115 1.234-.07 1.83-.092.136-.023.227-.023.387-.046M77.482 25.416v-.594a1.521 1.521 0 0 0-1.486-1.44c-.754-.023-1.417.594-1.485 1.325-.07.732.457 1.418 1.234 1.555.274.045.57.045.846.045 1.05 0 .868.115.89-.891m.07-2.446c.022-.228.045-.388.09-.571h1.167c0 .137.022.297.022.457v6.01c0 .32-.091.48-.434.435-.274-.022-.571 0-.914 0v-1.805c-.32 0-.571.023-.846 0-.502-.046-1.028-.023-1.531-.16-1.257-.343-2.057-1.6-1.851-2.857.182-1.257 1.302-2.24 2.56-2.24.662-.046 1.234.229 1.737.73M100.338 24.456c-.183-.8-.777-1.19-1.6-1.12-.709.046-1.28.526-1.303 1.12h2.903Zm-2.971.869c.114.525.387.822.776 1.005.64.297 1.303.274 1.874-.137.297-.23.504-.23.778 0 .16.114.32.229.525.366-.411.525-.936.823-1.553.96-1.12.274-2.15.068-2.972-.755-.709-.708-.938-1.577-.663-2.56.32-1.028 1.028-1.645 2.057-1.896 1.783-.435 3.269.64 3.498 2.468.067.503 0 .57-.526.57-1.234-.021-2.47-.021-3.794-.021ZM85.321 22.376v5.074h-1.189c-.022-.16-.045-.32-.068-.549-.114.092-.229.16-.32.229-.709.526-1.486.663-2.309.274-.822-.388-1.234-1.074-1.234-1.988v-2.583c0-.137.023-.274.023-.434h1.326v2.103c0 .365 0 .754.068 1.097.115.548.64.914 1.166.868.594-.045 1.074-.457 1.12-1.051.046-.823.046-1.623.046-2.446 0-.617 0-.617.594-.617.274.023.526.023.777.023M66.488 27.473v-6.948c.069-.023.09-.046.137-.046 1.21-.068 1.21-.068 1.21 1.143v4.114c0 .548 0 .548.573.57h.937c.25 0 .343.07.366.344.045.823.045.823-.777.823h-2.446ZM61.14 22.399h1.189c.022.206.045.389.068.64.434-.503.89-.891 1.577-.8v1.097c-.068.023-.114.046-.16.046-.891.09-1.326.548-1.348 1.463-.023.708 0 1.439 0 2.148v.48h-1.303c-.023-1.691-.023-3.36-.023-5.074M58.214 27.473v-5.074h1.348c.023.114.046.229.046.343v4.32c0 .32-.09.434-.41.41-.32-.022-.64 0-.984 0" fill="#37609C"/><mask id="b" fill="#fff"><use xlink:href="#a"/></mask><path fill="#37609C" mask="url(#b)" d="M70.808 27.45h1.28v-5.051h-1.28zM86.853 22.376h1.303v5.097c-.367 0-.733.023-1.098 0-.069 0-.206-.137-.206-.206v-4.891M73.665 0c1.006 0 1.006 0 1.006.983 0 .845 0 .845-.87.845-1.165 0-1.165 0-1.165-1.165 0-.754-.022-.64.64-.663h.389ZM58.237 20.479h1.37c0 .32.024.617-.022.937 0 .069-.16.206-.251.206-.366.023-.708 0-1.097 0v-1.143ZM70.785 21.599h1.28v-1.097h-1.28zM88.155 21.622h-.983c-.228 0-.343-.07-.343-.32.023-.274 0-.526 0-.823h1.303c.023.389.023.754.023 1.143"/></g></svg>