<svg width="159" height="52" xmlns="http://www.w3.org/2000/svg" xmlns:xlink="http://www.w3.org/1999/xlink"><defs><path id="a" d="M0 0h10.019v12.663H0z"/><path id="c" d="M0 18h148V0H0z"/></defs><g fill="none" fill-rule="evenodd"><path fill="#1E1E1E" d="M51.07 24H53l-4.06 9h-1.88L43 24h1.98l3.07 7.082z"/><g transform="translate(6 18)"><path d="M53.142 5.006c3.504 0 5.182 2.191 5.182 4.773 0 2.581-1.727 4.773-5.182 4.773S47.96 12.36 47.96 9.78c0-2.582 1.727-4.773 5.182-4.773m0 1.412c-2.467 0-3.356 1.705-3.356 3.36 0 1.608.889 3.362 3.356 3.362 2.467 0 3.356-1.705 3.356-3.361.05-1.608-.839-3.36-3.356-3.36" fill="#1E1E1E"/><g transform="translate(58.892 5.337)"><mask id="b" fill="#fff"><use xlink:href="#a"/></mask><path d="M8.094 0h1.925L5.33 10.472c-.84 1.899-1.53 2.191-3.11 2.191-.443 0-.838-.049-1.282-.049v-1.412c.296 0 .592.049.987.049 1.036 0 1.333-.244 1.875-1.364l.346-.828L0 0h1.974l3.06 7.062L8.094 0Z" fill="#1E1E1E" mask="url(#b)"/></g><path d="M69.824 8.123c.246-2.24 1.777-3.117 4.441-3.117 1.826 0 4.097.438 4.097 2.533v4.821c0 .536.247.78.79.78.197 0 .444-.05.592-.05v1.17c-.395.048-.938.097-1.333.097-.839 0-1.431-.243-1.53-1.266-.69.925-2.37 1.46-3.8 1.46-2.961 0-3.652-1.509-3.652-2.678 0-1.656.987-2.484 3.85-2.776l1.924-.195c.938-.097 1.53-.292 1.53-1.072 0-1.217-1.184-1.46-2.566-1.46-1.48 0-2.715.389-2.764 1.753h-1.58Zm6.959 1.461c-.248.292-.74.39-1.678.536l-1.926.243c-1.332.146-2.023.536-2.023 1.461 0 .828.84 1.413 2.073 1.413 1.925 0 3.554-1.023 3.554-2.484V9.584ZM88.916 5.3h1.727v8.182c0 3.215-1.53 4.481-5.231 4.481-1.925 0-4.146-.292-4.491-2.776h1.727c.296 1.169 1.332 1.461 2.961 1.461 2.418 0 3.307-1.217 3.307-2.678v-1.315h-.05c-.937 1.363-2.32 1.656-3.454 1.656-2.37 0-4.886-1.316-4.886-4.58 0-3.31 2.517-4.626 4.886-4.626 1.48 0 2.813.487 3.504 1.51h.05l-.05-1.315Zm-3.307 1.218c-2.072 0-3.306 1.363-3.306 3.214s1.234 3.166 3.306 3.166c2.073 0 3.307-1.315 3.307-3.166 0-1.85-1.234-3.214-3.307-3.214ZM94.007 10.266c.148 1.85 1.777 2.825 3.307 2.825.987 0 2.32-.341 2.862-1.607h1.826c-.839 2.143-2.862 3.019-4.59 3.019-3.504 0-5.182-2.192-5.182-4.773 0-2.581 1.728-4.773 5.183-4.773 2.368 0 4.836 1.364 4.836 5.066v.243h-8.242Zm6.416-1.315c-.247-1.607-1.53-2.533-3.11-2.533-1.579 0-3.01.926-3.257 2.533h6.367ZM112.12 4.957c-1.925 0-3.159.828-3.75 1.754V5.25h-1.087v12.468h1.086V12.75c.493.682 1.628 1.802 3.75 1.802 2.814 0 4.837-1.948 4.837-4.773-.049-2.387-1.53-4.822-4.836-4.822m3.701 4.822c0 2.581-1.875 3.75-3.75 3.75-1.876 0-3.85-1.022-3.85-3.896 0-.634.197-3.702 3.948-3.702 2.22.05 3.652 1.559 3.652 3.848M123.126 4.957c-1.58 0-2.813.682-3.504 1.85V5.25h-1.086v9.01h1.086V9.389c0-1.607 1.036-3.36 3.257-3.36.493 0 .69.048.839.097l.197.097v-1.12l-.098-.048c-.247-.05-.445-.098-.691-.098" fill="#1E1E1E"/><mask id="d" fill="#fff"><use xlink:href="#c"/></mask><path fill="#1E1E1E" mask="url(#d)" d="M125.495 3.934h1.086V1.791h-1.086zM125.495 14.26h1.086V5.248h-1.086zM133.095 12.993l-3.75-7.744h-1.234l4.49 9.01h.988l4.442-9.01h-1.234zM146.717 11.191c-.296.73-.938 2.387-3.603 2.387-2.369 0-3.899-1.315-3.997-3.458H148v-.147c-.049-3.019-1.974-4.967-4.984-4.967-3.998 0-5.035 3.068-5.035 4.724 0 2.97 1.925 4.87 5.035 4.87 2.467 0 3.997-1.07 4.738-3.262l.049-.195-1.086.048Zm.099-2.094h-7.65c.395-1.997 1.777-3.117 3.85-3.117 2.072 0 3.454 1.12 3.8 3.117ZM143.854 1.889h1.58l-2.517 2.435h-1.037z"/><g mask="url(#d)" fill="#A5A5A5"><path d="M20.136 15.975c-1.48-2.191-9.623-14.319-9.82-14.61C9.623.486 8.784 0 7.797 0H0v.146s1.382.39 2.27 1.705c.346.536 9.427 14.417 9.723 14.757.987 1.316 2.32 1.316 2.468 1.316h8.538v-.05c-.05 0-1.826-.438-2.863-1.899M26.306.027c-.938 0-1.777.293-2.518 1.363-.345.488-3.06 4.53-3.898 5.7-.84 1.168-2.37 1.85-2.37 1.85v.098h7.799c.888 0 1.776-.341 2.516-1.51.988-1.413 3.603-5.163 3.95-5.65C32.82.417 34.054.125 34.054.125V.027h-7.75Z"/></g></g></g></svg>