<svg width="228" height="102" xmlns="http://www.w3.org/2000/svg" xmlns:xlink="http://www.w3.org/1999/xlink"><defs><path id="a" d="M0 0h91v21H0z"/><path id="c" d="M0 0h24v32H0z"/></defs><g fill="none" fill-rule="evenodd"><g transform="translate(47 61)"><mask id="b" fill="#fff"><use xlink:href="#a"/></mask><path d="M90.194 8.353C79.27 16.61 63.432 21 49.793 21 30.679 21 13.47 13.763.443 1.72-.582.774.33-.518 1.569.217 15.621 8.587 33 13.633 50.95 13.633a96.213 96.213 0 0 0 37.657-7.887c1.847-.808 3.398 1.239 1.588 2.607" fill="#F3991D" mask="url(#b)"/></g><path d="M141.889 65.087c-1.42-1.847-9.384-.875-12.97-.441-1.084.131-1.251-.83-.275-1.526 6.355-4.527 16.762-3.218 17.972-1.704 1.209 1.514-.317 12.125-6.272 17.183-.916.774-1.785.36-1.381-.666 1.347-3.412 4.345-11.018 2.926-12.846" fill="#F3991D"/><path d="M130.095 32.315v-4.238a1.05 1.05 0 0 1 1.025-1.076h19.202a1.06 1.06 0 0 1 1.1 1.07V31.7c0 .61-.523 1.405-1.44 2.668l-9.913 14.037c3.682-.086 7.573.462 10.917 2.325.61.333.996.964 1.014 1.655V56.9c0 .626-.687 1.345-1.409.969a22.21 22.21 0 0 0-20.222.037c-.665.354-1.36-.373-1.36-.98v-4.293a5.07 5.07 0 0 1 .71-2.91l11.488-16.344H131.2a1.06 1.06 0 0 1-1.103-1.013l-.001-.052M59 57.996h-5.939c-.554-.023-1.007-.436-1.061-.968V27.675c.012-.594.523-1.068 1.141-1.055H58.683c.567.017 1.03.44 1.077.985v3.83h.11C61.315 27.746 64.03 26 67.688 26c3.66 0 6.043 1.73 7.706 5.436 1.44-3.69 4.71-5.436 8.204-5.436 2.495 0 5.212.99 6.875 3.214 1.881 2.47 1.494 6.052 1.494 9.204V56.94c-.012.595-.523 1.068-1.141 1.056h-5.94c-.588-.026-1.054-.486-1.065-1.052V41.381c0-1.236.11-4.325-.17-5.498-.444-1.975-1.773-2.532-3.49-2.532-1.578.047-2.975.997-3.549 2.414-.609 1.476-.555 3.952-.555 5.62v15.559c-.01.593-.518 1.066-1.133 1.056h-5.941c-.589-.024-1.058-.485-1.07-1.052V41.38c0-3.273.557-8.092-3.658-8.092s-4.1 4.694-4.1 8.092v15.56c-.013.594-.524 1.067-1.142 1.055h-.012M166.946 32.064c-4.226 0-4.493 5.81-4.493 9.435 0 3.626-.055 11.373 4.438 11.373 4.492 0 4.656-6.246 4.656-10.058 0-2.502-.108-5.5-.855-7.875-.643-2.046-1.926-2.875-3.746-2.875M166.891 26C175.396 26 180 33.374 180 42.75c0 9.062-5.081 16.25-13.11 16.25-8.342 0-12.89-7.374-12.89-16.563C154 33.187 158.6 26 166.89 26" fill="#020304"/><g transform="translate(185 26)"><mask id="d" fill="#fff"><use xlink:href="#c"/></mask><path d="M6.856 32H1.048A1.085 1.085 0 0 1 0 30.947V1.58C.064 1.02.556.603 1.13.62h5.417c.493.023.915.356 1.04.823V5.93h.11C9.333 1.915 11.62 0 15.658 0c2.616 0 5.18.926 6.816 3.462C24 5.81 24 9.762 24 12.604v18.473c-.084.543-.57.94-1.13.922h-5.862a1.092 1.092 0 0 1-1.04-.922V15.136c0-3.211.376-7.906-3.654-7.906-1.416 0-2.725.927-3.392 2.348-.818 1.79-.927 3.58-.927 5.558v15.808A1.121 1.121 0 0 1 6.856 32" fill="#020304" mask="url(#d)"/></g><path d="M119.157 58.515c-.386.33-.94.383-1.383.134-1.946-1.591-2.293-2.329-3.355-3.846-3.215 3.228-5.494 4.197-9.654 4.197C99.835 59 96 56.018 96 49.998c0-4.69 2.573-7.88 6.245-9.442 3.178-1.376 7.614-1.625 11.01-2.002v-.745c0-1.376.11-2.982-.714-4.19-.71-1.062-2.082-1.491-3.287-1.491-2.233 0-4.216 1.118-4.704 3.47-.102.522-.487 1.036-1.016 1.062l-5.668-.607a1.02 1.02 0 0 1-.877-1.208C98.297 28.054 104.512 26 110.085 26c2.85 0 6.575.745 8.819 2.877 2.849 2.61 2.573 6.128 2.573 9.942v9.002c0 2.706 1.133 3.892 2.21 5.353.378.525.461 1.151-.018 1.532-1.195.991-3.322 2.81-4.49 3.84l-.022-.03Zm-5.902-14.068c0 2.237.053 4.127-1.096 6.129-.933 1.625-2.41 2.609-4.054 2.609-2.244 0-3.559-1.688-3.559-4.19 0-4.92 4.474-5.815 8.709-5.815v1.267ZM43.156 58.515a1.226 1.226 0 0 1-1.387.134c-1.942-1.591-2.293-2.329-3.355-3.846C35.2 58.03 32.924 59 28.761 59 23.831 59 20 56.018 20 49.998c0-4.69 2.573-7.88 6.241-9.442 3.178-1.376 7.613-1.625 11.01-2.002v-.745c0-1.376.11-2.982-.71-4.19-.714-1.062-2.083-1.491-3.287-1.491-2.234 0-4.22 1.118-4.708 3.47-.102.522-.484 1.036-1.017 1.062l-5.666-.607a1.017 1.017 0 0 1-.874-1.208C22.293 28.054 28.512 26 34.081 26c2.849 0 6.574.745 8.818 2.877 2.849 2.61 2.577 6.128 2.577 9.942v9.002c0 2.706 1.133 3.892 2.21 5.353.378.525.457 1.151 0 1.532-1.197.991-3.32 2.81-4.492 3.84l-.038-.03Zm-5.898-14.068c0 2.237.057 4.127-1.095 6.129-.93 1.625-2.411 2.609-4.054 2.609-2.245 0-3.56-1.688-3.56-4.19 0-4.92 4.474-5.815 8.69-5.815l.02 1.267Z" fill="#020304"/></g></svg>