<svg width="133" height="68" xmlns="http://www.w3.org/2000/svg" xmlns:xlink="http://www.w3.org/1999/xlink"><defs><path id="a" d="M0 0h8.615v10.887H0z"/></defs><g fill="none" fill-rule="evenodd"><path d="M45.022 32.5c.84-.75 1.337-1.19 1.49-1.323.362-.288.766-.52 1.198-.687a3.735 3.735 0 0 1 1.302-.24 3.064 3.064 0 0 1 1.864.573c.54.415.91 1.01 1.042 1.677a8.343 8.343 0 0 1 2.198-1.813 4.18 4.18 0 0 1 1.844-.427c.574-.01 1.14.138 1.635.427.527.333.932.826 1.157 1.407.22.671.314 1.377.281 2.083v4.542c-.04.466.006.936.135 1.385.108.188.272.337.47.428.353.142.734.202 1.114.177v.416h-5.688v-.375h.24c.402.023.802-.067 1.156-.26.206-.142.353-.352.417-.594.03-.37.03-.744 0-1.115v-4.583a3.566 3.566 0 0 0-.282-1.78 1.76 1.76 0 0 0-1.593-.783 3.264 3.264 0 0 0-1.344.302 7.279 7.279 0 0 0-1.636 1.136v5.667c-.032.456.014.914.136 1.354.112.2.288.358.5.448.414.161.858.232 1.302.208v.417h-5.886v-.417c.451.035.905-.036 1.323-.208.243-.133.423-.358.5-.625.06-.379.081-.763.063-1.146v-4.573a3.187 3.187 0 0 0-.417-1.854 1.835 1.835 0 0 0-1.552-.74 3.01 3.01 0 0 0-1.354.333 5.23 5.23 0 0 0-1.615 1.146v5.667c-.034.457.02.917.156 1.354.101.204.266.368.47.47.405.133.833.187 1.26.155v.417h-5.719v-.396a2.76 2.76 0 0 0 1.114-.156c.212-.107.381-.284.48-.5a3.51 3.51 0 0 0 .166-1.323v-4.073a13.483 13.483 0 0 0-.125-2.28.887.887 0 0 0-.28-.522.834.834 0 0 0-.522-.146 2.63 2.63 0 0 0-.844.177l-.187-.417 3.49-1.26h.541v2.25ZM67.971 39.584a19.144 19.144 0 0 1-2.229 1.448 3.695 3.695 0 0 1-1.448.292 2.72 2.72 0 0 1-1.979-.75 2.612 2.612 0 0 1-.77-1.907 2.331 2.331 0 0 1 .374-1.333 4.864 4.864 0 0 1 1.802-1.479 29.353 29.353 0 0 1 4.26-1.688v-.417a3.216 3.216 0 0 0-.552-2.166 2.08 2.08 0 0 0-1.593-.625 1.898 1.898 0 0 0-1.27.416 1.148 1.148 0 0 0-.48.896v.667a1.04 1.04 0 0 1-.303.823 1.045 1.045 0 0 1-.77.292 1.04 1.04 0 0 1-.76-.303 1.112 1.112 0 0 1-.303-.823 2.311 2.311 0 0 1 1.115-1.822 5.099 5.099 0 0 1 3.125-.834 5.837 5.837 0 0 1 2.521.469c.485.23.873.625 1.093 1.115.197.658.274 1.346.23 2.031v3.583c-.018.619.003 1.238.062 1.855a.752.752 0 0 0 .208.458.527.527 0 0 0 .334.115.739.739 0 0 0 .354-.084c.371-.25.72-.533 1.042-.844v.646a3.792 3.792 0 0 1-2.698 1.729 1.28 1.28 0 0 1-.99-.395 1.99 1.99 0 0 1-.375-1.334m0-.76v-4.021c-.836.284-1.656.611-2.458.979a4.158 4.158 0 0 0-1.428 1.042 1.93 1.93 0 0 0-.427 1.208c-.015.513.181 1.01.542 1.375.322.35.775.55 1.25.552a4.765 4.765 0 0 0 2.521-1.156M76.024 30.25v2.375c.965-1.583 1.945-2.375 2.938-2.375.416-.015.823.122 1.145.385.283.212.452.543.459.896.002.287-.115.563-.323.761-.208.204-.49.316-.781.312a1.752 1.752 0 0 1-1.042-.396 1.686 1.686 0 0 0-.813-.395.778.778 0 0 0-.49.23 5.546 5.546 0 0 0-1.176 1.551v5.073c-.025.454.057.907.239 1.323.135.231.339.413.584.521.379.157.788.228 1.198.208v.417h-5.844v-.386a2.63 2.63 0 0 0 1.312-.25c.212-.135.367-.342.438-.583.059-.368.08-.742.062-1.115v-4.146c.03-.747.005-1.495-.073-2.239a.843.843 0 0 0-.302-.51.908.908 0 0 0-.552-.167 2.707 2.707 0 0 0-.885.177l-.125-.417 3.489-1.292.542.042ZM84.17 32.417a4.674 4.674 0 0 1 3.625-2.083 4.165 4.165 0 0 1 3.125 1.385 5.277 5.277 0 0 1 1.323 3.802 5.638 5.638 0 0 1-2.083 4.532 5.935 5.935 0 0 1-3.907 1.396 6.672 6.672 0 0 1-2.083-.334 9.704 9.704 0 0 1-2.083-1.04V29.166a14.687 14.687 0 0 0-.094-2.219.95.95 0 0 0-.302-.562.82.82 0 0 0-.5-.146 2.8 2.8 0 0 0-.886.187l-.177-.406 3.469-1.292h.573v7.688Zm0 .708v6.324c.393.362.844.658 1.333.875.444.192.923.291 1.407.291a2.825 2.825 0 0 0 2.135-1.156 5.008 5.008 0 0 0 1.042-3.354 4.477 4.477 0 0 0-1.042-3.125 2.978 2.978 0 0 0-2.25-1.042 3.126 3.126 0 0 0-1.333.312c-.472.248-.906.56-1.292.927v-.052ZM99.306 30.25a5.396 5.396 0 0 1 5.563 5.396 6.247 6.247 0 0 1-.74 2.875 5.115 5.115 0 0 1-2.083 2.188 5.8 5.8 0 0 1-2.907.74 5.061 5.061 0 0 1-4.167-1.907 5.57 5.57 0 0 1-1.302-3.594 5.955 5.955 0 0 1 .792-2.885 5.118 5.118 0 0 1 2.083-2.084 5.708 5.708 0 0 1 2.73-.687M98.9 31a2.83 2.83 0 0 0-1.344.375c-.475.301-.84.746-1.042 1.271a5.666 5.666 0 0 0-.416 2.344 7.593 7.593 0 0 0 1.04 3.98 2.998 2.998 0 0 0 2.647 1.676 2.54 2.54 0 0 0 1.927-.937 4.895 4.895 0 0 0 .792-3.125 6.783 6.783 0 0 0-1.313-4.48A2.811 2.811 0 0 0 98.91 31M116.463 30.563v6.396c-.026.748.006 1.497.094 2.24a.98.98 0 0 0 .302.573c.14.106.313.16.489.156.305-.01.606-.077.886-.198l.177.406-3.458 1.302h-.573v-2.23a10.306 10.306 0 0 1-2.271 1.855 3.72 3.72 0 0 1-1.657.386 2.797 2.797 0 0 1-1.687-.511 2.666 2.666 0 0 1-1.042-1.323 7.385 7.385 0 0 1-.281-2.281v-4.72a2.144 2.144 0 0 0-.177-1.041 1.145 1.145 0 0 0-.521-.447 3.324 3.324 0 0 0-1.261-.146v-.417h4.053v7.063c-.095.696.11 1.4.562 1.937.383.308.863.47 1.354.459a3.041 3.041 0 0 0 1.23-.313 6.617 6.617 0 0 0 1.698-1.177v-5.99a1.595 1.595 0 0 0-.386-1.166 2.48 2.48 0 0 0-1.5-.344v-.47h3.969Z" fill="#2D2E81"/><g transform="translate(118.306 30.25)"><mask id="b" fill="#fff"><use xlink:href="#a"/></mask><path d="M4.042.001v2.375C4.98.793 5.969.001 7.011.001c.416-.015.824.122 1.146.385.282.212.452.543.458.896.002.287-.115.563-.323.761-.209.203-.49.315-.781.312a1.752 1.752 0 0 1-1.042-.396 1.696 1.696 0 0 0-.812-.395.779.779 0 0 0-.49.23A5.546 5.546 0 0 0 3.99 3.344v5.073a2.89 2.89 0 0 0 .24 1.323c.133.231.338.414.583.521.379.157.788.228 1.198.208v.417H.136v-.386a2.63 2.63 0 0 0 1.312-.25c.212-.135.367-.342.438-.583.059-.368.08-.742.062-1.115V4.407a15.67 15.67 0 0 0-.083-2.198.846.846 0 0 0-.302-.51.908.908 0 0 0-.552-.167 2.713 2.713 0 0 0-.886.177L0 1.293 3.49.001h.552Z" fill="#2D2E81" mask="url(#b)"/></g><path d="M20.886 22c8.886 0 15.23 6.167 15.23 12.5 0 7.178-7.511 12.501-14.959 12.501C9.813 47.001 5 40.105 5 34.282 5 28.459 10.938 22 20.886 22m-.667 4.792c-7.583 0-13.656 4.906-13.656 5.313 0 .593 3 2.458 3 2.458s-3.323 1.542-3 2.281c.052.125 5.208 5.396 14.771 5.396 7.584 0 12.938-5.208 12.938-5.458 0-.719-2.615-2.271-2.615-2.271s2.594-1.636 2.594-2.375c0-.188-4.667-5.344-14.042-5.344" fill="#2D2E81"/><path d="M20.511 38.417a15.852 15.852 0 0 0 8.334-2.083c.76-.594 1.718.135 1.114.833-2.271 1.781-5.854 2.656-9.469 2.635-3.583 0-7.136-.854-9.375-2.635-.594-.698.354-1.427 1.114-.833a15.628 15.628 0 0 0 8.334 2.083h-.052ZM20.511 30.334a15.852 15.852 0 0 1 8.334 2.083c.76.594 1.718-.135 1.114-.833-2.239-1.771-5.823-2.646-9.438-2.625-3.583 0-7.135.854-9.375 2.635-.594.698.354 1.428 1.115.834a15.623 15.623 0 0 1 8.333-2.084l-.083-.01Z" fill="#2D2E81"/><path d="M14.25 34.594c1.667-1.135 6.084-3.219 12.698-.198-4.979 2.74-11.229 1.396-12.698.198" fill="#2D2E81"/></g></svg>