<svg width="174" height="96" xmlns="http://www.w3.org/2000/svg" xmlns:xlink="http://www.w3.org/1999/xlink"><defs><path id="a" d="M0 0h5.733v3.874H0z"/><path id="c" d="M0 39h172V0H0z"/></defs><g fill="none" fill-rule="evenodd"><path fill="#FEFEFE" d="M8 69h36V33H8z"/><path fill="#0572B6" d="M9 67h35V32H9z"/><g transform="translate(1 30)"><path d="M10.09 15.897c-5.645.573-8.512 1.493-8.512 1.493s-.086 1.088-.323 2.61c0 0 3.786-.861 6.076-1.091l2.323-1.034.43-1.978h.006Z" fill="#14AADF"/><path d="M5.733 21.464c-3.268.574-5.015 1.034-5.015 1.034.285-1.35.544-2.527.544-2.527s3.785-.861 6.075-1.091L5.72 21.47l.014-.006Z" fill="#FEFEFE"/><g transform="translate(0 21.464)"><mask id="b" fill="#fff"><use xlink:href="#a"/></mask><path d="M5.733 0v2.64S1.32 3.5 0 3.874c.288-.946.517-1.895.718-2.84 0 0 1.747-.46 5.015-1.034" fill="#DE2C1C" mask="url(#b)"/></g><path d="M9.773 19.858s-3.882-.146-3.84-.648a.408.408 0 0 1 .172-.343c.258-.23 1.633-.862 4.244-1.895l-.576 2.9v-.014Z" fill="#FEFEFE"/><path d="M24.422 35.227c8.484 0 15.363-6.887 15.363-15.382 0-8.495-6.879-15.382-15.363-15.382-8.485 0-15.364 6.887-15.364 15.382v.003c0 8.494 6.877 15.379 15.36 15.379h.004Z" fill="#FEDE0D"/><path d="M5.59 21.578c.088.402.573.518 2.323.648 1.75.129 7.392.259 14.215-.201 8.026-.544 16.88-2.87 23.817-5.108-.172.46-.602 1.548-.774 2.037-.113.324-.2.632-.287.946-6.82 2.154-15.36 4.363-23.073 4.881a98.253 98.253 0 0 1-14.215-.058c-1.718-.143-2.235-.259-2.323-.648l.324-2.497H5.59Z" fill="#FEFEFE"/><path d="M5.904 19.08c.087.406.576.519 2.323.649 1.747.129 7.395 0 14.215-.431 8.456-.574 17.857-3.126 24.965-5.48-.547 1-1.026 2.035-1.433 3.099-6.965 2.238-15.82 4.564-23.846 5.108-6.823.46-12.497.343-14.215.2-1.718-.142-2.235-.258-2.323-.647l.323-2.497h-.009Z" fill="#14AADF"/><path d="M4.988 26.572c.085.402.573.515 2.323.648 4.722.495 9.476.603 14.215.324 7.538-.515 15.878-2.61 22.613-4.735.202-.971.46-1.93.774-2.87-6.82 2.154-15.36 4.363-23.073 4.878a97.717 97.717 0 0 1-14.215-.055c-1.72-.146-2.235-.26-2.323-.648l-.323 2.468.01-.01Z" fill="#DE2C1C"/><path d="M24.422 34.06c7.78.01 14.096-6.298 14.105-14.089.008-7.79-6.292-14.113-14.073-14.121-7.781-.01-14.096 6.299-14.105 14.089v.003c-.009 7.788 6.29 14.11 14.07 14.119h.003Z" fill="#FEDE0D"/><path d="M20.151 8.865a181.783 181.783 0 0 0 0 20.23l-3.985 1.008c-.285-4.622-.647-12.026 0-19.858l3.985-1.38ZM35.887 22.595s-2.41 5.856-12.183 10.364l-.686-4.21c5.386-2.553 8.087-6.254 8.087-6.254-1.691-.862-5.732-1.636-8.31-1.578v-3.644c4.183-1.577 6.146-4.505 6.146-4.505-1.233-.687-4.646-.917-6.881-.324l.058-3.932c3.727-.631 9.03.401 10.353 1.205 0 0 .776 3.903.776 3.99 0 0-1.721 2.44-3.986 3.845 0 0 3.385.46 6.047 1.924 0 .026.547 3.096.605 3.096M52.45 24.28v-9.245h4.817c2.265 0 4.07.49 4.07 2.326a2.381 2.381 0 0 1-1.32 2.008 2.079 2.079 0 0 1 1.663 2.125c0 2.066-1.718 2.782-4.328 2.782l-4.902.003Zm3.297-7.088v1.548h1.378c.647 0 1.116-.258 1.116-.803 0-.716-.646-.716-1.345-.716h-1.149v-.029Zm0 3.24v1.72h1.446c.802 0 1.433-.143 1.433-.86 0-.803-.773-.86-1.805-.86h-1.074ZM72.951 19.599c0 3.154-2.293 4.907-5.273 4.907-3.154 0-5.273-1.807-5.273-4.936 0-2.915 2.148-4.79 5.273-4.79 3.581.025 5.273 2.409 5.273 4.819m-7.256 0c0 1.176.401 2.64 1.976 2.64 1.434 0 1.977-1.118 1.977-2.64 0-1.263-.572-2.592-2.006-2.556-1.49 0-1.94 1.41-1.94 2.556M74.016 15.035h3.296v5.539c0 .92.2 1.694 1.546 1.694 1.175 0 1.55-.69 1.55-1.694v-5.539h3.294v5.225c0 2.953-1.489 4.246-4.853 4.246-3.125 0-4.853-1.092-4.853-4.275v-5.183l.02-.013ZM91.43 18.566c-.084-.946-.744-1.522-1.776-1.522-1.145 0-1.863.919-1.863 2.697 0 1.296.323 2.527 1.98 2.527 1.057 0 1.575-.69 1.688-1.578h3.183c-.288 2.38-2.15 3.816-4.817 3.816-3.322 0-5.331-1.866-5.331-4.878s2.21-4.859 5.018-4.859c3.067 0 4.784 1.406 5.043 3.758H91.43v.039ZM95.558 24.276v-9.24h3.297v3.128h3.096v-3.129h3.296v9.24h-3.296v-3.584h-3.096v3.585zM106.823 24.276v-9.24h8.198v2.153h-4.902v1.318h4.157v2.184h-4.157v1.434h5.102v2.15zM121.571 17.737a.792.792 0 0 0-.488-.632 2.217 2.217 0 0 0-.86-.172c-.715 0-1.059.2-1.059.515 0 1.38 5.788.518 5.788 3.887 0 2.15-1.94 3.184-4.7 3.184-2.666 0-4.384-1.435-4.442-3.1h3.173c.056.313.258.58.544.72a2.1 2.1 0 0 0 .944.226c.832 0 1.378-.227 1.378-.687 0-1.405-5.79-.43-5.79-3.961 0-1.943 1.834-2.954 4.358-2.954 2.779 0 4.07 1.319 4.296 2.915h-3.142v.059ZM52.27 37.102v-9.237h4.014c2.95 0 4.756 1.376 4.756 4.417 0 3.472-1.919 4.82-4.853 4.82h-3.918Zm2.982-2.15h.647c1.404 0 2.148-.749 2.148-2.498 0-1.923-.647-2.439-2.235-2.439h-.573l.03 4.936h-.017ZM61.997 27.865h3.009V33.4c0 .92.172 1.694 1.404 1.694 1.09 0 1.404-.687 1.404-1.694v-5.535h2.982v5.22c0 2.958-1.348 4.247-4.386 4.247-2.837 0-4.413-1.089-4.413-4.276v-5.192ZM79.337 33.889v3.213h-2.982v-9.237h4.299c3.038 0 4.04.828 4.04 2.639 0 1.06-.455 1.943-1.545 2.268.97.343 1.546.602 1.546 2.438 0 1.205-.026 1.62.323 1.62v.285h-3.044a6.019 6.019 0 0 1-.146-1.62c0-1.204-.2-1.62-1.617-1.62l-.874.014Zm0-2.037h1.175c.915 0 1.433-.23 1.433-.862 0-.631-.518-.946-1.204-.946h-1.404v1.808ZM86.128 37.102v-9.24h2.983v3.128h2.837v-3.128h3.009v9.24h-3.009v-3.585h-2.837v3.585zM105.739 32.425c0 3.158-2.09 4.907-4.785 4.907-2.866 0-4.788-1.807-4.788-4.936 0-2.896 1.941-4.79 4.788-4.79 3.235.028 4.785 2.38 4.785 4.819Zm-5.823-7.288h2.093l1.546 1.895h-1.863l-.715-.971-.718.971h-1.864l1.52-1.895Zm-.774 7.288c0 1.176.343 2.64 1.777 2.64 1.294 0 1.805-1.118 1.805-2.64 0-1.263-.515-2.592-1.835-2.552-1.32.039-1.747 1.405-1.747 2.552ZM112.956 32.914l-.113-2.096v-2.956h2.867v9.24h-2.812l-3.238-5.02.116 2.095v2.925h-2.866v-9.24h2.808zM117.369 37.102v-9.24h7.454v2.153h-4.442v1.322h3.752v2.15h-3.752v1.464h4.613v2.151zM52.166 8.991V2.708h2.116c.689 0 1.348.026 1.921.456.831.603 1.032 1.837 1.032 2.67 0 .832-.171 1.752-.744 2.383-.573.632-1.375.774-2.21.774h-2.115Zm.572-.498h1.404a2.909 2.909 0 0 0 1.463-.286c.831-.43 1.032-1.493 1.032-2.354 0-.917-.2-1.921-1.061-2.38a3.07 3.07 0 0 0-1.434-.23h-1.404v5.25ZM59.642 9.01V2.699h4.128v.515h-3.559V5.48h3.213v.516H60.21v2.497h3.614v.518h-4.183Zm1.433-6.772.948-1.205h.647l-1.174 1.205h-.421ZM66.18 8.991V2.708h2.265c1.617 0 2.035.803 2.035 1.75 0 1.405-1.233 1.751-2.378 1.751h-1.32v2.782h-.602Zm1.922-3.238c1.087 0 1.776-.23 1.776-1.296 0-.774-.489-1.205-1.618-1.205h-1.52v2.5h1.362ZM71.54 8.991l2.437-6.283h.647l2.378 6.283H76.4l-.715-1.978h-2.84l-.702 1.978h-.602Zm1.505-2.478h2.44l-1.207-3.3-1.233 3.3ZM79.71 6.054v2.915h-.573V2.685h2.435c1.347 0 2.12.486 2.12 1.636.07.681-.35 1.317-1.003 1.52.747.258.773 1.032.802 1.693.03.946.116 1.205.26 1.318v.058h-.632c-.23-.43-.172-1.619-.285-2.095-.145-.687-.63-.775-1.232-.775l-1.893.014Zm1.834-.402c.86 0 1.546-.372 1.546-1.234 0-.946-.715-1.176-1.518-1.176H79.71v2.41h1.835ZM85.442 2.727h4.529v.486h-1.98V8.98h-.573V3.213h-1.976zM92.09 8.982V2.728h4.128v.485h-3.556V5.48h3.213v.515h-3.213v2.497h3.644v.49zM98.596 8.982V2.728h.919l2.035 5.534 2.005-5.534h.89v6.254h-.602V3.385l-2.035 5.597h-.546l-2.064-5.597v5.597zM107.081 8.982V2.728h4.129v.485h-3.527V5.48h3.18v.515h-3.18v2.497h3.61v.49zM114.218 3.53v5.452h-.602V2.728h.66l3.581 5.48h.03v-5.48h.572v6.254h-.66zM120.581 2.727h4.53v.486h-1.98V8.98h-.573V3.213h-1.977z" fill="#0572B6"/><mask id="d" fill="#fff"><use xlink:href="#c"/></mask><path d="M126.887 21.348h1.061v-3.213h-1.061v3.213ZM74.119 34.031h-1.074v-3.213h1.061v3.213h.013ZM155.375 34.378c0 .887 1.12 2.753 1.32 2.87l.2.113c-.116-.087 0-.324 0-.716a6.163 6.163 0 0 0-.802-2.238c-.372-.518-.69-.972-.573-1.522.117-.55-.174-1.522-.4-1.979a3.677 3.677 0 0 1-.347-2.154c.058-.832 1.433-2.87 1.805-3.33a5.63 5.63 0 0 1 1.873-1.175c.346-.084 1.75-.084 2.094-.172.342-.087 1.119-.971 1.261-1.234.143-.262.916-1.636 1.204-1.836.288-.201 1.72.142 1.976.116.256-.026 1.32-1.179 1.634-1.464a19.754 19.754 0 0 1 2.265-1.836c-.425.11-.83.284-1.204.515-.915.69-1.776 1.464-2.636 2.238-.343.343-.89-.486-1.777-.43-.886.054-1.921 2.094-2.293 2.496-.372.402-1.35.745-1.834.833-.486.087-1.375.087-2.495.258-1.119.172-3.125 2.841-3.125 2.841.29-.895.484-1.82.576-2.756a7.455 7.455 0 0 0-.46-3.155 4.718 4.718 0 0 1-.323-2.354 2.203 2.203 0 0 1 .689-1.377c.23-.2 2.064-1.004 2.912-1.435a4.74 4.74 0 0 0 1.433-1.296c.544-.515.372-3.154.514-3.757.116-.46.631-1.033 1.55-1.807.401-.346-.2-2.413-.2-2.413s-.03 1.205 0 1.723c.028.519-.43.716-.92 1.004-.488.289-.714.972-.944 1.493-.23.522-.143 1.892-.288 2.724-.146.833-1.433 1.296-1.834 1.552-.401.255-1.747 1.405-2.588 1.665-.841.259-1.204.142-1.32.055-.116-.088-.344-1.347-.486-2.038-.2-1.033-.646-.745-1.002-.803-.356-.058-1.407-.945-1.809-1.435a6.729 6.729 0 0 1-1.003-2.15c-.084-.49-.23-3.158-.23-3.158s-.113.948-.17 2.037c-.06 1.089.057 2.413.487 3.158.43.745 1.721 1.778 2.589 2.21.867.43.747.918.747 1.463a13.28 13.28 0 0 0 .029 2.15c.113.632.857 2.614 1.145 3.502.177.685.196 1.401.058 2.095-.174.516-.287.545-.287.545s-.113-.716-.2-1.089a.295.295 0 0 0-.325-.262l-.019.003c-.03 0-.058 0-.058.03-.288-.03-.288-.95-.2-1.235.096-.48.057-.977-.114-1.434-.204-.72-2.323-1.322-2.84-1.465-.518-.142-2.55-.745-2.55-.745s-.647-1.15-.89-1.635c-.242-.486-.572-1.234-.714-1.322a8.135 8.135 0 0 0-1.404-.401c-.347-.088-2.695 0-3.067-.143-.372-.142-1.378-2.066-1.378-2.066.065.44.2.866.401 1.263.4.946.948 1.234 1.261 1.347.314.113 1.692-.058 2.436-.058a2.292 2.292 0 0 1 1.721.92c.43.489.945 2.095.945 2.095a5.58 5.58 0 0 0-1.002-.175 6.83 6.83 0 0 0-2.148.059c-.861.2-2.666 1.493-3.213 1.895-.547.401-2.235 2.915-2.235 2.915s.63-.548.918-.862c.288-.314.945-.89 1.233-1.176a29.53 29.53 0 0 1 2.349-1.924c.323-.171 1.52-.573 1.52-.573a8.203 8.203 0 0 1 2.235.03c.662.196 1.31.436 1.942.715.345.142 1.72.72 1.892.804.171.083.86 1.032 1.261 1.619a3.05 3.05 0 0 1 .49 1.635c-.03.325.97 2.841.714 3.388-.256.548-.372 2.67-.23 3.385.143.716.774 3.388.547 3.887-.226.499-1.261 2.384-1.808 2.986-.547.602-3.523.457-4.183.858-.66.402-2.378.43-3.236.69a5.17 5.17 0 0 1-2.206.143s3.44-.774 3.84-.803c.402-.03.803.087.916-.143.113-.23 1.349-.26 1.52-.288a1.86 1.86 0 0 1 .686-.026l.346-.2a.509.509 0 0 0 .373-.26c.342-.489.323-.259.744-.402.42-.142.97-.171 1.09-.324a2.11 2.11 0 0 0 .23-.946c.058-.43.058-.647.113-1.233.054-.587 1.148-3.184 1.148-3.184s.171 1.749.171 2.008c.03.861-.116.686-.43 1.519-.116.324-.543.804-.601 1.35a.863.863 0 0 1-.489.775c-.2.142-.2.402-.715.515-.349.06-.68.198-.97.401a3.8 3.8 0 0 0-.43.347 6.929 6.929 0 0 0-.69.285c.03-.172 0 .058 0 .087-.087.201-.543.23-.773.289-.23.058-.401.485-.489.686-.087.201-1.261.26-1.261.26.388.085.782.142 1.177.17.401 0 .744-.647 1.088-.831.343-.185 1.148-.23 1.578-.344a4 4 0 0 1 1.747.172 6.355 6.355 0 0 0 1.634.142c.69 0 1.776-.113 2.006-.142.23-.029 1.203.288 1.462.324.259.036.744-.324.86-.373.117-.048 1.175.172 1.835.26a5.436 5.436 0 0 0 1.575-.059 12.06 12.06 0 0 1-1.294-.143c.46-.2.969-.258 1.462-.17.736.169 1.483.283 2.236.342.518.03 3.727-.113 3.727-.113a11.764 11.764 0 0 0-2.035-.117 9.77 9.77 0 0 1-2.265-.2s-.488-.114-1.404-.373c-.915-.259-1.805.26-2.064.324a2.796 2.796 0 0 1-1.09-.2s-.945-.286-1.174-.574a5.558 5.558 0 0 1-.647-.832c-.201-.344-.343-1.436-.43-1.944-.088-.509-.648-.43-.803-.631-.155-.201.2-.774.03-1.377-.172-.602-.861-1.782-.803-1.982.058-.2.372-.373.744-.888.46-.632.517-.861.401-1.091a1.992 1.992 0 0 0-.572-.632c-.143-.084-1.262.142-1.262-.343 0-.289.43-1.62.346-1.865a1.18 1.18 0 0 1-.088-.46l-.2-.665-.03-.055.03.055c.07.138.146.273.23.402.258.431.323.347.4.748.09.408.204.81.344 1.205.058.201.488.084.89.544.144.285.259.583.342.89.03.28.002.564-.084.833-.087.23-.689 1.147-.718 1.464M159.79 5.752c-.145-.518-.087-1.894.372-2.591.324-.457.172-.832.344-1.004.165.373.263.772.287 1.18 0 .97-.688 1.978-1.002 2.41M160.334 6.313c.515-.114 1.721-.43 2.838-.172a5.68 5.68 0 0 1 1.433.632c-.419.054-.84.083-1.262.084a9.815 9.815 0 0 1-3.009-.544" fill="#0572B6" mask="url(#d)"/><path d="M159.422 6.313c-.401-.259-1.46-1.034-1.718-1.808-.172-.547-.258-.949-.323-1.175.34.155.65.368.918.628.647.648 1.003 1.837 1.117 2.355M161.25 5.795c-.343.288-.773.376-.945.175-.171-.201-.029-.603.343-.891.372-.288.777-.373.948-.172.171.201 0 .573-.346.888M155.12 7.372c.426.084 1.488 0 2.176 1.033.232.318.48.624.744.917a7.167 7.167 0 0 1-1.002-.26c-.715-.2-1.618-1.295-1.919-1.69M160.447 8.178c.49-.116 1.835-.401 2.64-.029.544.26.916.46 1.145.574-.23.058-.689-.201-1.232-.085a5.035 5.035 0 0 1-2.553-.46M149.642 9.898c-.371.03-.685-.084-.715-.285-.029-.2.26-.401.631-.43.372-.03.686.084.715.285.03.2-.255.375-.647.43M147.776 8.438c.346-.46 1.32-1.636 2.293-1.895a24.62 24.62 0 0 1 1.433-.344c-.262.337-.57.636-.915.888a8.812 8.812 0 0 1-2.811 1.35M147.294 6.572a5.863 5.863 0 0 1-.088-2.44 4.9 4.9 0 0 1 .46-1.12 6.9 6.9 0 0 1 .23 1.033c.113 1.063-.402 2.038-.602 2.527M149.157 5.079c-.288.23-.602.288-.747.113-.146-.175 0-.485.288-.716.287-.23.601-.288.744-.116.142.172 0 .489-.285.719M147.666 9.697c.371.059 1.404.289 1.834.803.214.25.415.509.602.778a8.36 8.36 0 0 1-.86-.2c-.574-.146-.858-.891-1.576-1.38M144.11 3.673c.43.285 1.58 1.004 2.01 2.352.2.648.455.777.572 1.033-.201-.143-.547-.373-1.003-.716-.647-.518-1.32-2.096-1.579-2.669M145.46 7.631c-.324-.2-.49-.515-.344-.716.146-.2.457-.142.774.059.317.2.485.515.342.716-.087.17-.459.17-.773-.059M143.195 9.04c.371-.259 1.203-.972 2.494-.648.514.113.773-.171 1.032-.171-.172.113-.46.323-.919.573-.63.373-2.064.285-2.607.26M159.503 7.43c-.324.117-1.233.431-1.692.201a4.585 4.585 0 0 1-.686-.402c.142-.054.401-.142.744-.284.488-.172 1.32.284 1.617.485M136 11.965c-.46-.055-.802-.343-.773-.603.029-.259.43-.401.89-.343.458.058.802.324.772.603-.029.278-.43.401-.89.343M157.669 6.627c-.372-.084-.648-.324-.573-.515.074-.191.372-.289.744-.201.372.087.63.324.573.515-.059.192-.373.288-.744.201M161.195 12.454c-.372-.324-1.404-1.121-1.492-2.066-.058-.69-.087-.972-.087-1.206.33.194.622.446.86.745.518.72.69 1.983.719 2.527M162.482 10.287c-.342-.026-1.258-.113-1.617-.515a7.501 7.501 0 0 1-.485-.632c.142 0 .4.03.773.059.514.055 1.09.803 1.316 1.088M161.509 11.259c-.259-.289-.343-.603-.201-.748.142-.147.46 0 .718.258.259.26.343.603.2.748-.142.147-.459.027-.717-.258M147.724 6.802c.285-.376 1.145-1.321 1.941-1.522.547-.143.948-.201 1.174-.26-.189.3-.42.57-.685.804-.774.602-1.375.43-2.436.972M157.581 10.287c-.255.23-.628.89-1.546.777a7.183 7.183 0 0 1-.774-.145c.114-.114.324-.286.648-.545.4-.343 1.345-.171 1.689-.087M157.009 10.044c-.372-.087-.631-.288-.602-.49.03-.2.372-.287.747-.2.375.087.628.288.602.49-.026.2-.376.255-.747.2M167.099 19.11c.459.087 1.517 0 2.264.971.252.32.52.625.803.917-.2-.03-.573-.114-1.061-.23-.715-.171-1.663-1.263-2.006-1.665M167.413 20.716c-.23-.285-.256-.628-.085-.745.172-.116.486 0 .687.289.2.288.258.631.086.745-.17.113-.488.029-.688-.289M166.84 19.398c.087.402.288 1.548-.113 2.066-.2.262-.416.511-.647.745-.058-.323-.117-.631-.172-.946-.288-.971.631-1.55.916-1.865M167.613 17.85c-.23-.347-.773-1.296-.773-2.012a8.166 8.166 0 0 1 .058-1.059c.253.256.482.534.686.83.324.576.058 1.781.03 2.24M167.04 18.077c-.323.116-1.203.43-1.691.2a7.897 7.897 0 0 1-.686-.401c.142-.055.401-.143.744-.256.518-.175 1.32.256 1.617.457M165.093 17.089c-.372-.085-.63-.324-.576-.515.055-.191.375-.288.748-.201.372.087.646.324.572.515-.074.191-.401.288-.744.2M170.71 18.135c-.373.087-.716 0-.745-.201-.029-.2.23-.43.602-.49.372-.057.686 0 .744.202.058.2-.23.404-.602.489M168.561 17.792a7.542 7.542 0 0 1 2.035-2.239 3.377 3.377 0 0 1 1.404-.46 2.41 2.41 0 0 1-.647.891 7.088 7.088 0 0 1-2.808 1.808M168.703 18.164c.43-.029 1.262-.259 1.941.716.259.375.631.288.748.46-.2 0-.518.029-.97.029-.648 0-1.434-.862-1.722-1.205M136.029 9.153c.343.23 1.294.344 1.433 1.665.059.351.145.696.259 1.033a17.978 17.978 0 0 1-.773-.573c-.518-.43-.832-1.635-.919-2.125M138.695 10.99c-.142.343-.402.544-.573.49-.171-.056-.23-.403-.116-.749.113-.347.4-.544.601-.486.2.058.23.402.088.745M138.18 11.88c.256-.2.97-.949 1.576-.777.284.058.576.058.86 0-.116.088-.323.26-.601.46-.46.324-1.463.346-1.835.324M136.317 12.282c.172-.087.686-.372.97-.259.201.087.343.143.43.172a.822.822 0 0 0-.4.23c-.43.489-.832-.058-1.003-.143M141.762 14.06c.258-.288.915-1.295 1.546-1.033.278.095.577.105.86.03-.113.142-.323.343-.572.631-.43.43-1.433.401-1.834.372M142.075 13.17c-.054.323-.255.547-.456.518-.2-.03-.259-.324-.2-.648.058-.324.255-.544.456-.515.2.03.288.344.2.648M140.157 12.512c.285.142 1.087.142 1.116 1.033.02.234.07.465.146.687-.117-.059-.346-.172-.647-.343-.402-.23-.573-1.063-.631-1.377M136.058 15.868c.323-.23.647-1.004 1.941-.888.353.026.708.026 1.061 0-.142.114-.4.285-.744.544-.517.344-1.776.373-2.264.344M137.805 14.09c.2-.03.776-.03 1.003.171.146.143.259.288.324.344a.891.891 0 0 0-.46.029c-.573.258-.715-.402-.86-.545M139.326 14.893c.285.142 1.09.142 1.115 1.033.035.233.084.463.146.69a5.381 5.381 0 0 1-.602-.347c-.43-.23-.6-1.062-.646-1.376M139.21 16.098c-.056.323-.256.544-.457.518-.2-.026-.26-.324-.2-.648.058-.324.255-.547.455-.518.201.03.288.347.201.648M162.427 20.172c-.43-.113-1.618-.43-2.206-1.033-.4-.401-.647-.687-.831-.888.394.016.787.063 1.174.143.715.23 1.517 1.376 1.863 1.778M161.797 18.679c-.059-.372.028-.686.23-.745.2-.058.4.23.455.603.056.372-.026.69-.226.745-.2.054-.401-.201-.46-.603M164.061 18.021c-.058.344-.2 1.296-.647 1.578-.23.142-.46.288-.689.401.029-.171.058-.43.116-.774.114-.547.916-1.033 1.233-1.205M158.413 14.09c.346.142 1.52.515 1.432 1.175 0 .29.069.575.201.833-.171-.059-.43-.201-.773-.373-.514-.288-.773-1.263-.86-1.636M158.814 13.918c.23-.201.575-.95 1.378-.603.221.083.451.141.685.172-.113.084-.284.23-.572.43-.401.256-1.203.085-1.491 0M160.305 14.32c.288.142.46.401.372.572-.087.172-.372.172-.686.03-.314-.143-.459-.402-.375-.574.084-.17.404-.174.69-.029M151.01 11.391c.143.26.832.72.344 1.465a4.58 4.58 0 0 0-.289.647c-.054-.117-.17-.324-.323-.647-.2-.46.113-1.235.26-1.494M152.395 12.739c-.23.23-.517.324-.647.204-.129-.12-.058-.43.172-.648.23-.217.517-.324.647-.2.129.122.058.43-.172.647" fill="#0572B6" mask="url(#d)"/><path d="M151.45 13.458c.324-.201 1.26-.972 1.777-.515.25.162.535.26.83.285-.144.088-.4.259-.746.43-.544.29-1.518-.058-1.86-.2M157.326 6.944a4.914 4.914 0 0 1-2.352-.89 3.154 3.154 0 0 1-.773-.946c.38-.027.763.032 1.119.171a6.25 6.25 0 0 1 2.006 1.665M156.006 3.271c.288.23 1.32.888 1.09 1.52-.073.282-.073.579 0 .86a6.731 6.731 0 0 1-.647-.572c-.43-.402-.43-1.435-.43-1.808M154.919 4.706c-.23-.288-.288-.648-.146-.774.143-.126.489.026.718.324.23.298.285.648.143.774-.143.127-.46-.029-.715-.324M168.445 17.503c-.172-.323-.602-1.147-.43-1.665.087-.256.2-.485.323-.745.084.143.2.373.372.716.259.49-.087 1.38-.26 1.694M142.363 6.627c.372-.084 1.52-.515 1.863.059.201.343.545.43.69.544-.175.029-.46.116-.86.174-.573.084-1.405-.547-1.693-.777M138.093 13.429a5.043 5.043 0 0 1-2.436.259 5.622 5.622 0 0 1-1.149-.402c.318-.18.67-.29 1.032-.324a5.281 5.281 0 0 1 2.553.46M138.895 10.416c.114-.518.832-1.723 1.576-2.095.518-.26.547-.632.773-.716-.055.23-.142.632-.323 1.176-.23.774-1.547 1.435-2.035 1.62M138.294 7.696c.087.259.514.69.087 1.434a6.067 6.067 0 0 0-.288.632 16.576 16.576 0 0 0-.171-.602c-.088-.402.23-1.176.372-1.464M146.158 4.418c-.285-.2-1.029-.803-1.058-1.348a7.435 7.435 0 0 1-.029-.803c.218.152.43.313.631.486.43.376.456 1.322.456 1.665M145.23 16.642c-.088-.343-.324-1.26 0-1.72.138-.229.302-.44.488-.632.08.255.148.513.2.774.085.544-.488 1.322-.688 1.578M163.715 23.845c-.323.142-1.203.46-1.689.2-.23-.112-.46-.259-.689-.4.142-.059.402-.172.744-.285.488-.176 1.32.284 1.618.485M161.078 25.912c-.171-.344-.171-.69 0-.774.172-.085.46.113.648.46.187.346.17.686 0 .773-.172.088-.486-.142-.648-.46M160.823 24.188c.371.059 1.404.23 1.718.72.23.343.371.602.459.745-.171-.03-.259-.085-.647-.172-.602-.114-1.346-.972-1.517-1.296M160.564 24.363a2.118 2.118 0 0 1-.372 2.009c-.259.343-.172.647-.288.832a7.859 7.859 0 0 1-.113-.891c-.088-.602.514-1.578.773-1.943M156.035 23.272c.142-.343.459-1.522 1.145-1.464.29-.017.573-.096.831-.23a8.68 8.68 0 0 1-.343.803c-.258.519-1.232.803-1.633.89M156.064 22.352c.029.324-.088.606-.259.632-.171.025-.372-.23-.4-.545-.03-.314.087-.602.258-.631.171-.03.342.23.4.544M154.029 22.352c.323.058 1.061-.227 1.375.606.093.212.208.413.343.602-.142-.03-.372-.058-.686-.117-.46-.113-.89-.832-1.032-1.091M142.706 18.478s-.857 1.208-1.346 1.18a2.63 2.63 0 0 0-.83.171c.087-.117.229-.343.458-.632.343-.401 1.346-.631 1.718-.719M134.654 25.94c.084-.401.23-1.62.744-2.238.285-.29.592-.56.92-.802-.03.2-.118.514-.231.945-.171.648-1.09 1.694-1.433 2.096M135.055 23.213c-.346.117-.689.03-.747-.171-.059-.2.175-.431.518-.545.342-.113.688-.029.744.172.054.201-.172.431-.515.544M133.88 20.917c.344.088 1.434.23 1.577.862.096.273.242.527.43.748-.146-.03-.401-.117-.773-.23-.518-.172-1.061-1.034-1.233-1.38M133.392 19.741c.515-.113 1.977-.372 2.725.117.37.22.724.47 1.057.745-.226.058-.686-.259-1.258-.172a4.292 4.292 0 0 1-2.524-.69M138.523 24.937c-.23-.373-1.002-1.552-.831-2.296.074-.398.093-.803.058-1.206.113.172.285.46.515.891.323.632.287 2.066.258 2.61M140.3 21.837c-.343.087-1.295.259-1.718-.088l-.606-.515c.175-.029.43-.087.806-.142.544-.117 1.259.486 1.517.745M138.924 22.754c-.2-.201-.258-.457-.142-.574.117-.116.343 0 .544.201.2.2.258.46.142.577-.116.116-.343 0-.544-.204M136.602 18.967c.171.289.2.573.029.69-.172.117-.43-.03-.602-.324-.171-.295-.2-.573-.03-.686.172-.114.43.054.603.323M137.262 20.344c0-.256-.324-.745.258-1.406.15-.18.284-.371.401-.573v.602c.03.46-.459 1.121-.646 1.377M135.34 20.804c.292-.151.622-.211.948-.172.15.037.295.095.43.172-.087.029.113.058 0 .172-.375.372-1.177-.085-1.378-.172M142.6 19.456c0-.323.142-.602.323-.602.181 0 .346.256.346.573 0-.03-.146.602-.324.602-.178 0-.342-.258-.342-.573M144.628 19.511c-.259-.113-.89-.025-1.175-.832a4.391 4.391 0 0 0-.323-.629c.196.075.387.16.573.257.4.171.776.92.919 1.204M140.587 11.994c.285-.402 1.087-1.464 1.89-1.665.546-.114.948-.2 1.206-.23a2.64 2.64 0 0 1-.647.92c-.948.648-1.404.402-2.436.972M134.596 15.123c.2-.172.372-.774 1.233-.749.23-.003.46-.022.688-.055-.087.084-.23.23-.459.431-.324.285-1.145.344-1.462.373M157.21 20.172c.546-.172 2.063-.544 2.781-.058.371.233.725.493 1.058.777-.255.084-.685-.26-1.294-.116-.831.2-2.093-.26-2.552-.603M163.744 21.377c.346.288 1.294 1.15 1.491 1.943.143.545.201.946.259 1.176a5.887 5.887 0 0 1-.773-.719c-.747-.716-.46-1.318-.97-2.41M140.7 4.78c.518-.054 1.664-.255 2.637.26.387.202.753.443 1.09.719-.23.026-.69-.259-1.233-.23-.802.055-2.034-.43-2.494-.748M142.878 4.104c-.201-.324-.201-.69-.026-.803.175-.114.485.055.686.372.2.317.2.687.028.774-.17.172-.488 0-.688-.343M133.28 11.965c.255-.085 1.002-.256 1.374 0 .181.11.353.235.515.372-.113.03-.344-.113-.631-.055a1.823 1.823 0 0 1-1.259-.324M143.767 11.936a4.234 4.234 0 0 1 2.294-.457c.395.035.787.092 1.174.171a8.467 8.467 0 0 1-.915.344c-.69.2-2.064.03-2.553-.058M146.433 16.616c-.288.142-.602.142-.689-.03-.087-.171.087-.43.375-.576.288-.146.602-.142.686.03.084.17-.084.43-.372.576M135.942 10.646c-.402-.116-1.346-.69-1.634-1.263-.2-.402-.485-.46-.573-.631.323.06.64.147.948.259.602.2 1.087 1.234 1.259 1.635M162.683 18.507c-.026-.343-.055-1.295.346-1.665.187-.196.388-.378.602-.544 0 .172.029.43.029.804-.03.544-.719 1.175-.97 1.405M163.488 13.344c.428.201 1.576.745 1.806 1.435.113.344.2.687.284 1.06-.2-.085-.4-.324-.857-.545-.647-.343-1.12-1.464-1.233-1.943M165.95 14.821c-.025-.343-.054-1.295.324-1.69.2-.201.4-.376.602-.548 0 .172.029.431.029.804 0 .547-.69 1.208-.948 1.434M164.922 13.717c-.088-.346.025-.69.226-.72.2-.028.43.202.518.575.087.372-.03.69-.23.718-.2.03-.43-.2-.514-.573M167.901 23.816c-.258-.324-1.061-1.147-.945-1.779.084-.333.2-.658.343-.971.113.143.143.431.401.803.373.515.289 1.548.201 1.944M144.084 1.033c.055.26.372.632 0 1.406-.087.2-.174.43-.258.648-.04-.19-.07-.383-.088-.577-.084-.401.23-1.176.346-1.49M169.075 13.315c.143.286.802.745.289 1.49-.126.201-.234.413-.324.632-.055-.113-.172-.343-.285-.632-.171-.456.171-1.204.324-1.49M164.747 7.66c-.285.117-.485.72-1.488.117-.288-.172-.488-.289-.602-.372.142-.06.343-.117.647-.23.489-.117 1.203.323 1.433.485M164.546 10.73c-.343-.084-1.002.117-1.776-.802l-.689-.687c.272.046.54.114.802.2.518.201 1.35 1.004 1.663 1.296M164.275 9.672c-.372 0-.69-.176-.69-.376s.324-.344.69-.344c.365 0 .685.172.685.373s-.323.347-.685.347M146.692 15.609c.543-.143 2.035-.516 2.779-.026.368.237.723.495 1.061.774-.26.084-.69-.26-1.294-.117-.857.175-2.119-.285-2.55-.631M149.3 14.203c.258.145 1.06.2 1.06 1.091.001.233.03.464.085.69-.113-.058-.324-.2-.602-.376-.372-.284-.515-1.088-.544-1.405M136.89 17.244c.514-.113 1.892.03 2.549.547.46.344.802.23.97.402a8.41 8.41 0 0 1-1.207.201c-.802.142-1.918-.774-2.319-1.15M157.84 16.415c.572-.029 2.122-.029 2.724.628.4.46.686.778.86 1.007-.258.026-.601-.404-1.203-.404a4.026 4.026 0 0 1-2.381-1.231M161.738 15.353c.142.285.802.745.288 1.49a4.71 4.71 0 0 0-.324.647c-.054-.113-.17-.343-.284-.631-.2-.486.171-1.234.323-1.52M162.334 14.433c.323.029 1.06-.286 1.403.518.109.208.243.4.402.573-.231-.01-.46-.04-.686-.087-.489-.055-.948-.745-1.12-1.004M153.227 2.928c.43-.204 1.575-.807 2.406-.631.431.113.861.255 1.295.401-.369.075-.733.17-1.09.285-.715.26-2.094.087-2.608-.055M151.981 2.928a4.852 4.852 0 0 1-1.834-1.635 5.06 5.06 0 0 1-.489-1.121c.329.141.637.325.92.544.6.49 1.203 1.723 1.403 2.212M153.486 2.439c-.324.343-.719.49-.92.285-.2-.204-.087-.602.201-.946.288-.343.719-.486.92-.285.2.201.112.603-.201.946M152.253 4.016a2.31 2.31 0 0 1-1.663.402 1.92 1.92 0 0 1-.747-.324c.146-.087.375-.2.718-.372.486-.201 1.375.142 1.692.285M151.046 3.53c-.343-.087-.602-.346-.543-.518.058-.172.372-.288.744-.2.372.087.605.343.547.518-.059.175-.402.285-.748.2M151.334 5.882c-.343-.324-.459-.745-.288-.917.172-.171.605-.087.948.227.343.314.46.749.285.92-.175.172-.602.087-.945-.23M153.31 3.731c.088.373.603.946.03 2.122-.142.346-.256.647-.372 1.033-.029-.171-.087-.46-.172-.89-.087-.63.343-1.808.515-2.268M154.113 6.656c-.323.201-.628.23-.744.03-.116-.202.059-.46.343-.648.285-.189.63-.23.747-.056.116.175-.058.486-.346.687M152.454 0c.142.285.802.745.284 1.493-.124.2-.232.41-.323.629a8.364 8.364 0 0 1-.288-.629c-.172-.46.171-1.234.323-1.493M152.68 9.814c.43-.172 1.55-.72 2.352-.547.43.116.831.23 1.262.375-.201.085-.573.085-1.061.23-.69.227-2.035.055-2.553-.058M152.253 10.446c-.323-.26-1.178-.972-1.294-1.665-.087-.46-.116-.803-.143-1.004.143.113.402.323.715.602.49.431.69 1.636.719 2.067M153.599 9.095c-.259.288-.602.402-.773.259-.172-.142-.088-.489.17-.774.26-.285.603-.402.775-.259.17.142.086.489-.172.774M152.195 7.174c.113.23.647.632.23 1.235a2.122 2.122 0 0 0-.26.514 3.719 3.719 0 0 1-.229-.544c-.143-.343.142-1.004.259-1.205M155.747 14.002c.029-.372-.055-1.548.575-1.92.264-.204.495-.447.687-.72a8.29 8.29 0 0 1-.085.891c-.087.602-.86 1.464-1.177 1.749M155.32 13.17c.172.258.2.576.055.69-.146.113-.43-.03-.602-.289-.172-.26-.2-.573-.058-.687.142-.113.43.03.605.286M153.511 14.119c.288-.117.832-.69 1.492-.117.177.159.381.285.602.372-.143.059-.344.117-.647.23-.457.117-1.175-.324-1.433-.485M146.061 10.96c-.323-.2-.46-.514-.343-.715.117-.201.456-.146.773.055.317.2.46.518.343.72-.116.2-.46.17-.773-.06M147.064 12.023c0 .324.43 1.004-.343 1.464-.196.136-.379.29-.547.46v-.72c.03-.459.647-1.003.89-1.204M143.738 15.725c-.23.201-.543.946-1.375.632a2.742 2.742 0 0 0-.689-.143c.117-.087.288-.23.547-.43.401-.289 1.203-.117 1.517-.059M157.982 18.384c-.343-.2-1.203-.2-1.689-1.464-.145-.343-.323-.647-.488-1.004.171.085.43.26.802.49.573.372 1.175 1.548 1.375 1.978M155.404 17.413c0-.324.116-.603.323-.603.207 0 .343.256.373.574.029.317-.117.602-.324.602-.207 0-.372-.26-.372-.573M155.54 16.214c-.113.324-.372 1.318-1.003 1.461a2.099 2.099 0 0 0-.744.401c.058-.142.142-.372.323-.715.201-.49 1.09-.972 1.433-1.147" fill="#0572B6" mask="url(#d)"/></g></g></svg>